ISO-10303-21;
HEADER;
/* Generated by software containing ST-Developer
 * from STEP Tools, Inc. (www.steptools.com) 
 */

FILE_DESCRIPTION(
/* description */ (''),
/* implementation_level */ '2;1');

FILE_NAME(
/* name */ 'brush_holder_batt.stp',
/* time_stamp */ '2026-08-21T17:54:08+02:00',
/* author */ ('zzapa'),
/* organization */ (''),
/* preprocessor_version */ 'ST-DEVELOPER v20',
/* originating_system */ 'Autodesk Inventor 2025',
/* authorisation */ '');

FILE_SCHEMA (('AUTOMOTIVE_DESIGN { 1 0 10303 214 3 1 1 }'));
ENDSEC;

DATA;
#10=MECHANICAL_DESIGN_GEOMETRIC_PRESENTATION_REPRESENTATION('',(#13),#755);
#11=SHAPE_REPRESENTATION_RELATIONSHIP('SRR','None',#762,#12);
#12=ADVANCED_BREP_SHAPE_REPRESENTATION('',(#14),#754);
#13=STYLED_ITEM('',(#771),#14);
#14=MANIFOLD_SOLID_BREP('Bry\X2\0142\X0\a1',#410);
#15=FACE_BOUND('',#69,.T.);
#16=FACE_BOUND('',#79,.T.);
#17=B_SPLINE_CURVE_WITH_KNOTS('',3,(#669,#670,#671,#672,#673,#674,#675,
#676,#677,#678),.UNSPECIFIED.,.F.,.F.,(4,2,2,2,4),(1.81140607077356,1.92451138631795,
2.03761670186233,2.15126049830767,2.264904294753),.UNSPECIFIED.);
#18=B_SPLINE_CURVE_WITH_KNOTS('',3,(#689,#690,#691,#692,#693,#694,#695,
#696,#697,#698),.UNSPECIFIED.,.F.,.F.,(4,2,2,2,4),(1.35790784679413,1.47155164323946,
1.58519543968479,1.69830075522917,1.81140607077356),.UNSPECIFIED.);
#19=B_SPLINE_CURVE_WITH_KNOTS('',3,(#705,#706,#707,#708,#709,#710,#711,
#712,#713,#714),.UNSPECIFIED.,.F.,.F.,(4,2,2,2,4),(1.35790784679413,1.47155164323946,
1.58519543968479,1.69830075522917,1.81140607077356),.UNSPECIFIED.);
#20=B_SPLINE_CURVE_WITH_KNOTS('',3,(#715,#716,#717,#718,#719,#720,#721,
#722,#723,#724),.UNSPECIFIED.,.F.,.F.,(4,2,2,2,4),(1.81140607077356,1.92451138631795,
2.03761670186233,2.15126049830767,2.264904294753),.UNSPECIFIED.);
#21=PLANE('',#436);
#22=PLANE('',#451);
#23=PLANE('',#455);
#24=PLANE('',#457);
#25=PLANE('',#459);
#26=PLANE('',#466);
#27=PLANE('',#467);
#28=PLANE('',#471);
#29=PLANE('',#472);
#30=PLANE('',#473);
#31=PLANE('',#474);
#32=PLANE('',#475);
#33=FACE_OUTER_BOUND('',#56,.T.);
#34=FACE_OUTER_BOUND('',#57,.T.);
#35=FACE_OUTER_BOUND('',#58,.T.);
#36=FACE_OUTER_BOUND('',#59,.T.);
#37=FACE_OUTER_BOUND('',#60,.T.);
#38=FACE_OUTER_BOUND('',#61,.T.);
#39=FACE_OUTER_BOUND('',#62,.T.);
#40=FACE_OUTER_BOUND('',#63,.T.);
#41=FACE_OUTER_BOUND('',#64,.T.);
#42=FACE_OUTER_BOUND('',#65,.T.);
#43=FACE_OUTER_BOUND('',#66,.T.);
#44=FACE_OUTER_BOUND('',#67,.T.);
#45=FACE_OUTER_BOUND('',#68,.T.);
#46=FACE_OUTER_BOUND('',#70,.T.);
#47=FACE_OUTER_BOUND('',#71,.T.);
#48=FACE_OUTER_BOUND('',#72,.T.);
#49=FACE_OUTER_BOUND('',#73,.T.);
#50=FACE_OUTER_BOUND('',#74,.T.);
#51=FACE_OUTER_BOUND('',#75,.T.);
#52=FACE_OUTER_BOUND('',#76,.T.);
#53=FACE_OUTER_BOUND('',#77,.T.);
#54=FACE_OUTER_BOUND('',#78,.T.);
#55=FACE_OUTER_BOUND('',#80,.T.);
#56=EDGE_LOOP('',(#262,#263,#264,#265));
#57=EDGE_LOOP('',(#266,#267,#268,#269,#270,#271,#272,#273,#274,#275,#276,
#277,#278,#279,#280,#281));
#58=EDGE_LOOP('',(#282,#283,#284,#285));
#59=EDGE_LOOP('',(#286,#287,#288,#289));
#60=EDGE_LOOP('',(#290,#291,#292,#293));
#61=EDGE_LOOP('',(#294,#295,#296,#297,#298,#299,#300,#301));
#62=EDGE_LOOP('',(#302,#303,#304,#305));
#63=EDGE_LOOP('',(#306,#307,#308,#309));
#64=EDGE_LOOP('',(#310,#311,#312,#313));
#65=EDGE_LOOP('',(#314,#315,#316,#317));
#66=EDGE_LOOP('',(#318,#319,#320,#321));
#67=EDGE_LOOP('',(#322,#323,#324,#325));
#68=EDGE_LOOP('',(#326,#327,#328,#329,#330,#331,#332,#333));
#69=EDGE_LOOP('',(#334,#335,#336,#337));
#70=EDGE_LOOP('',(#338,#339,#340,#341));
#71=EDGE_LOOP('',(#342,#343,#344,#345));
#72=EDGE_LOOP('',(#346,#347,#348,#349));
#73=EDGE_LOOP('',(#350,#351,#352,#353,#354,#355,#356,#357));
#74=EDGE_LOOP('',(#358,#359,#360,#361));
#75=EDGE_LOOP('',(#362));
#76=EDGE_LOOP('',(#363,#364));
#77=EDGE_LOOP('',(#365,#366));
#78=EDGE_LOOP('',(#367,#368,#369,#370));
#79=EDGE_LOOP('',(#371));
#80=EDGE_LOOP('',(#372,#373,#374,#375));
#81=LINE('',#603,#114);
#82=LINE('',#606,#115);
#83=LINE('',#613,#116);
#84=LINE('',#617,#117);
#85=LINE('',#621,#118);
#86=LINE('',#625,#119);
#87=LINE('',#629,#120);
#88=LINE('',#633,#121);
#89=LINE('',#636,#122);
#90=LINE('',#640,#123);
#91=LINE('',#644,#124);
#92=LINE('',#647,#125);
#93=LINE('',#650,#126);
#94=LINE('',#653,#127);
#95=LINE('',#655,#128);
#96=LINE('',#658,#129);
#97=LINE('',#659,#130);
#98=LINE('',#662,#131);
#99=LINE('',#665,#132);
#100=LINE('',#679,#133);
#101=LINE('',#680,#134);
#102=LINE('',#683,#135);
#103=LINE('',#684,#136);
#104=LINE('',#687,#137);
#105=LINE('',#699,#138);
#106=LINE('',#702,#139);
#107=LINE('',#703,#140);
#108=LINE('',#730,#141);
#109=LINE('',#733,#142);
#110=LINE('',#737,#143);
#111=LINE('',#743,#144);
#112=LINE('',#747,#145);
#113=LINE('',#749,#146);
#114=VECTOR('',#482,10.);
#115=VECTOR('',#485,10.);
#116=VECTOR('',#492,10.);
#117=VECTOR('',#495,10.);
#118=VECTOR('',#498,10.);
#119=VECTOR('',#501,10.);
#120=VECTOR('',#504,10.);
#121=VECTOR('',#507,10.);
#122=VECTOR('',#510,10.);
#123=VECTOR('',#515,10.);
#124=VECTOR('',#520,10.);
#125=VECTOR('',#523,10.);
#126=VECTOR('',#526,10.);
#127=VECTOR('',#529,10.);
#128=VECTOR('',#530,10.);
#129=VECTOR('',#533,10.);
#130=VECTOR('',#534,10.);
#131=VECTOR('',#537,10.);
#132=VECTOR('',#542,10.);
#133=VECTOR('',#545,10.);
#134=VECTOR('',#546,10.);
#135=VECTOR('',#549,10.);
#136=VECTOR('',#550,10.);
#137=VECTOR('',#553,10.);
#138=VECTOR('',#554,10.);
#139=VECTOR('',#557,10.);
#140=VECTOR('',#558,10.);
#141=VECTOR('',#565,10.);
#142=VECTOR('',#568,10.);
#143=VECTOR('',#575,10.);
#144=VECTOR('',#582,1.45);
#145=VECTOR('',#589,10.);
#146=VECTOR('',#592,10.);
#147=CIRCLE('',#434,0.5);
#148=CIRCLE('',#435,0.5);
#149=CIRCLE('',#437,2.25);
#150=CIRCLE('',#438,0.5);
#151=CIRCLE('',#439,0.5);
#152=CIRCLE('',#440,3.);
#153=CIRCLE('',#441,3.);
#154=CIRCLE('',#442,3.);
#155=CIRCLE('',#443,3.);
#156=CIRCLE('',#444,0.5);
#157=CIRCLE('',#446,2.25);
#158=CIRCLE('',#448,0.5);
#159=CIRCLE('',#450,0.5);
#160=CIRCLE('',#452,30.15);
#161=CIRCLE('',#454,0.5);
#162=CIRCLE('',#461,30.15);
#163=CIRCLE('',#462,30.15);
#164=CIRCLE('',#463,30.15);
#165=CIRCLE('',#469,1.45);
#166=CIRCLE('',#470,1.45);
#167=VERTEX_POINT('',#599);
#168=VERTEX_POINT('',#600);
#169=VERTEX_POINT('',#602);
#170=VERTEX_POINT('',#604);
#171=VERTEX_POINT('',#608);
#172=VERTEX_POINT('',#610);
#173=VERTEX_POINT('',#612);
#174=VERTEX_POINT('',#614);
#175=VERTEX_POINT('',#616);
#176=VERTEX_POINT('',#618);
#177=VERTEX_POINT('',#620);
#178=VERTEX_POINT('',#622);
#179=VERTEX_POINT('',#624);
#180=VERTEX_POINT('',#626);
#181=VERTEX_POINT('',#628);
#182=VERTEX_POINT('',#630);
#183=VERTEX_POINT('',#632);
#184=VERTEX_POINT('',#634);
#185=VERTEX_POINT('',#638);
#186=VERTEX_POINT('',#642);
#187=VERTEX_POINT('',#646);
#188=VERTEX_POINT('',#648);
#189=VERTEX_POINT('',#652);
#190=VERTEX_POINT('',#654);
#191=VERTEX_POINT('',#656);
#192=VERTEX_POINT('',#661);
#193=VERTEX_POINT('',#667);
#194=VERTEX_POINT('',#668);
#195=VERTEX_POINT('',#682);
#196=VERTEX_POINT('',#686);
#197=VERTEX_POINT('',#688);
#198=VERTEX_POINT('',#701);
#199=VERTEX_POINT('',#726);
#200=VERTEX_POINT('',#727);
#201=VERTEX_POINT('',#729);
#202=VERTEX_POINT('',#731);
#203=VERTEX_POINT('',#740);
#204=VERTEX_POINT('',#742);
#205=EDGE_CURVE('',#167,#168,#147,.T.);
#206=EDGE_CURVE('',#168,#169,#81,.T.);
#207=EDGE_CURVE('',#169,#170,#148,.F.);
#208=EDGE_CURVE('',#170,#167,#82,.T.);
#209=EDGE_CURVE('',#167,#171,#149,.T.);
#210=EDGE_CURVE('',#172,#171,#150,.T.);
#211=EDGE_CURVE('',#172,#173,#83,.T.);
#212=EDGE_CURVE('',#174,#173,#151,.T.);
#213=EDGE_CURVE('',#174,#175,#84,.T.);
#214=EDGE_CURVE('',#176,#175,#152,.T.);
#215=EDGE_CURVE('',#176,#177,#85,.T.);
#216=EDGE_CURVE('',#178,#177,#153,.T.);
#217=EDGE_CURVE('',#179,#178,#86,.T.);
#218=EDGE_CURVE('',#180,#179,#154,.T.);
#219=EDGE_CURVE('',#181,#180,#87,.T.);
#220=EDGE_CURVE('',#182,#181,#155,.T.);
#221=EDGE_CURVE('',#182,#183,#88,.T.);
#222=EDGE_CURVE('',#184,#183,#156,.T.);
#223=EDGE_CURVE('',#184,#168,#89,.T.);
#224=EDGE_CURVE('',#185,#170,#157,.T.);
#225=EDGE_CURVE('',#171,#185,#90,.T.);
#226=EDGE_CURVE('',#185,#186,#158,.F.);
#227=EDGE_CURVE('',#186,#172,#91,.T.);
#228=EDGE_CURVE('',#183,#187,#92,.T.);
#229=EDGE_CURVE('',#187,#188,#159,.F.);
#230=EDGE_CURVE('',#188,#184,#93,.T.);
#231=EDGE_CURVE('',#189,#187,#94,.T.);
#232=EDGE_CURVE('',#190,#182,#95,.T.);
#233=EDGE_CURVE('',#191,#190,#160,.T.);
#234=EDGE_CURVE('',#175,#191,#96,.T.);
#235=EDGE_CURVE('',#189,#174,#97,.T.);
#236=EDGE_CURVE('',#173,#192,#98,.T.);
#237=EDGE_CURVE('',#192,#189,#161,.F.);
#238=EDGE_CURVE('',#192,#186,#99,.T.);
#239=EDGE_CURVE('',#193,#194,#17,.T.);
#240=EDGE_CURVE('',#194,#178,#100,.T.);
#241=EDGE_CURVE('',#177,#193,#101,.T.);
#242=EDGE_CURVE('',#195,#176,#102,.T.);
#243=EDGE_CURVE('',#193,#195,#103,.T.);
#244=EDGE_CURVE('',#179,#196,#104,.T.);
#245=EDGE_CURVE('',#196,#197,#18,.T.);
#246=EDGE_CURVE('',#197,#180,#105,.T.);
#247=EDGE_CURVE('',#198,#197,#106,.T.);
#248=EDGE_CURVE('',#181,#198,#107,.T.);
#249=EDGE_CURVE('',#191,#195,#19,.T.);
#250=EDGE_CURVE('',#198,#190,#20,.T.);
#251=EDGE_CURVE('',#196,#194,#162,.T.);
#252=EDGE_CURVE('',#199,#200,#163,.T.);
#253=EDGE_CURVE('',#200,#201,#108,.T.);
#254=EDGE_CURVE('',#201,#202,#164,.T.);
#255=EDGE_CURVE('',#202,#199,#109,.T.);
#256=EDGE_CURVE('',#188,#169,#110,.T.);
#257=EDGE_CURVE('',#203,#203,#165,.T.);
#258=EDGE_CURVE('',#203,#204,#111,.T.);
#259=EDGE_CURVE('',#204,#204,#166,.T.);
#260=EDGE_CURVE('',#202,#201,#112,.T.);
#261=EDGE_CURVE('',#200,#199,#113,.T.);
#262=ORIENTED_EDGE('',*,*,#205,.T.);
#263=ORIENTED_EDGE('',*,*,#206,.T.);
#264=ORIENTED_EDGE('',*,*,#207,.T.);
#265=ORIENTED_EDGE('',*,*,#208,.T.);
#266=ORIENTED_EDGE('',*,*,#205,.F.);
#267=ORIENTED_EDGE('',*,*,#209,.T.);
#268=ORIENTED_EDGE('',*,*,#210,.F.);
#269=ORIENTED_EDGE('',*,*,#211,.T.);
#270=ORIENTED_EDGE('',*,*,#212,.F.);
#271=ORIENTED_EDGE('',*,*,#213,.T.);
#272=ORIENTED_EDGE('',*,*,#214,.F.);
#273=ORIENTED_EDGE('',*,*,#215,.T.);
#274=ORIENTED_EDGE('',*,*,#216,.F.);
#275=ORIENTED_EDGE('',*,*,#217,.F.);
#276=ORIENTED_EDGE('',*,*,#218,.F.);
#277=ORIENTED_EDGE('',*,*,#219,.F.);
#278=ORIENTED_EDGE('',*,*,#220,.F.);
#279=ORIENTED_EDGE('',*,*,#221,.T.);
#280=ORIENTED_EDGE('',*,*,#222,.F.);
#281=ORIENTED_EDGE('',*,*,#223,.T.);
#282=ORIENTED_EDGE('',*,*,#208,.F.);
#283=ORIENTED_EDGE('',*,*,#224,.F.);
#284=ORIENTED_EDGE('',*,*,#225,.F.);
#285=ORIENTED_EDGE('',*,*,#209,.F.);
#286=ORIENTED_EDGE('',*,*,#210,.T.);
#287=ORIENTED_EDGE('',*,*,#225,.T.);
#288=ORIENTED_EDGE('',*,*,#226,.T.);
#289=ORIENTED_EDGE('',*,*,#227,.T.);
#290=ORIENTED_EDGE('',*,*,#222,.T.);
#291=ORIENTED_EDGE('',*,*,#228,.T.);
#292=ORIENTED_EDGE('',*,*,#229,.T.);
#293=ORIENTED_EDGE('',*,*,#230,.T.);
#294=ORIENTED_EDGE('',*,*,#231,.T.);
#295=ORIENTED_EDGE('',*,*,#228,.F.);
#296=ORIENTED_EDGE('',*,*,#221,.F.);
#297=ORIENTED_EDGE('',*,*,#232,.F.);
#298=ORIENTED_EDGE('',*,*,#233,.F.);
#299=ORIENTED_EDGE('',*,*,#234,.F.);
#300=ORIENTED_EDGE('',*,*,#213,.F.);
#301=ORIENTED_EDGE('',*,*,#235,.F.);
#302=ORIENTED_EDGE('',*,*,#212,.T.);
#303=ORIENTED_EDGE('',*,*,#236,.T.);
#304=ORIENTED_EDGE('',*,*,#237,.T.);
#305=ORIENTED_EDGE('',*,*,#235,.T.);
#306=ORIENTED_EDGE('',*,*,#227,.F.);
#307=ORIENTED_EDGE('',*,*,#238,.F.);
#308=ORIENTED_EDGE('',*,*,#236,.F.);
#309=ORIENTED_EDGE('',*,*,#211,.F.);
#310=ORIENTED_EDGE('',*,*,#239,.T.);
#311=ORIENTED_EDGE('',*,*,#240,.T.);
#312=ORIENTED_EDGE('',*,*,#216,.T.);
#313=ORIENTED_EDGE('',*,*,#241,.T.);
#314=ORIENTED_EDGE('',*,*,#241,.F.);
#315=ORIENTED_EDGE('',*,*,#215,.F.);
#316=ORIENTED_EDGE('',*,*,#242,.F.);
#317=ORIENTED_EDGE('',*,*,#243,.F.);
#318=ORIENTED_EDGE('',*,*,#218,.T.);
#319=ORIENTED_EDGE('',*,*,#244,.T.);
#320=ORIENTED_EDGE('',*,*,#245,.T.);
#321=ORIENTED_EDGE('',*,*,#246,.T.);
#322=ORIENTED_EDGE('',*,*,#246,.F.);
#323=ORIENTED_EDGE('',*,*,#247,.F.);
#324=ORIENTED_EDGE('',*,*,#248,.F.);
#325=ORIENTED_EDGE('',*,*,#219,.T.);
#326=ORIENTED_EDGE('',*,*,#239,.F.);
#327=ORIENTED_EDGE('',*,*,#243,.T.);
#328=ORIENTED_EDGE('',*,*,#249,.F.);
#329=ORIENTED_EDGE('',*,*,#233,.T.);
#330=ORIENTED_EDGE('',*,*,#250,.F.);
#331=ORIENTED_EDGE('',*,*,#247,.T.);
#332=ORIENTED_EDGE('',*,*,#245,.F.);
#333=ORIENTED_EDGE('',*,*,#251,.T.);
#334=ORIENTED_EDGE('',*,*,#252,.T.);
#335=ORIENTED_EDGE('',*,*,#253,.T.);
#336=ORIENTED_EDGE('',*,*,#254,.T.);
#337=ORIENTED_EDGE('',*,*,#255,.T.);
#338=ORIENTED_EDGE('',*,*,#220,.T.);
#339=ORIENTED_EDGE('',*,*,#248,.T.);
#340=ORIENTED_EDGE('',*,*,#250,.T.);
#341=ORIENTED_EDGE('',*,*,#232,.T.);
#342=ORIENTED_EDGE('',*,*,#249,.T.);
#343=ORIENTED_EDGE('',*,*,#242,.T.);
#344=ORIENTED_EDGE('',*,*,#214,.T.);
#345=ORIENTED_EDGE('',*,*,#234,.T.);
#346=ORIENTED_EDGE('',*,*,#206,.F.);
#347=ORIENTED_EDGE('',*,*,#223,.F.);
#348=ORIENTED_EDGE('',*,*,#230,.F.);
#349=ORIENTED_EDGE('',*,*,#256,.T.);
#350=ORIENTED_EDGE('',*,*,#224,.T.);
#351=ORIENTED_EDGE('',*,*,#207,.F.);
#352=ORIENTED_EDGE('',*,*,#256,.F.);
#353=ORIENTED_EDGE('',*,*,#229,.F.);
#354=ORIENTED_EDGE('',*,*,#231,.F.);
#355=ORIENTED_EDGE('',*,*,#237,.F.);
#356=ORIENTED_EDGE('',*,*,#238,.T.);
#357=ORIENTED_EDGE('',*,*,#226,.F.);
#358=ORIENTED_EDGE('',*,*,#257,.F.);
#359=ORIENTED_EDGE('',*,*,#258,.T.);
#360=ORIENTED_EDGE('',*,*,#259,.F.);
#361=ORIENTED_EDGE('',*,*,#258,.F.);
#362=ORIENTED_EDGE('',*,*,#259,.T.);
#363=ORIENTED_EDGE('',*,*,#254,.F.);
#364=ORIENTED_EDGE('',*,*,#260,.F.);
#365=ORIENTED_EDGE('',*,*,#252,.F.);
#366=ORIENTED_EDGE('',*,*,#261,.F.);
#367=ORIENTED_EDGE('',*,*,#253,.F.);
#368=ORIENTED_EDGE('',*,*,#261,.T.);
#369=ORIENTED_EDGE('',*,*,#255,.F.);
#370=ORIENTED_EDGE('',*,*,#260,.T.);
#371=ORIENTED_EDGE('',*,*,#257,.T.);
#372=ORIENTED_EDGE('',*,*,#240,.F.);
#373=ORIENTED_EDGE('',*,*,#251,.F.);
#374=ORIENTED_EDGE('',*,*,#244,.F.);
#375=ORIENTED_EDGE('',*,*,#217,.T.);
#376=CYLINDRICAL_SURFACE('',#433,0.5);
#377=CYLINDRICAL_SURFACE('',#445,2.25);
#378=CYLINDRICAL_SURFACE('',#447,0.5);
#379=CYLINDRICAL_SURFACE('',#449,0.5);
#380=CYLINDRICAL_SURFACE('',#453,0.5);
#381=CYLINDRICAL_SURFACE('',#456,3.);
#382=CYLINDRICAL_SURFACE('',#458,3.);
#383=CYLINDRICAL_SURFACE('',#460,30.15);
#384=CYLINDRICAL_SURFACE('',#464,3.);
#385=CYLINDRICAL_SURFACE('',#465,3.);
#386=CYLINDRICAL_SURFACE('',#468,1.45);
#387=ADVANCED_FACE('',(#33),#376,.T.);
#388=ADVANCED_FACE('',(#34),#21,.T.);
#389=ADVANCED_FACE('',(#35),#377,.F.);
#390=ADVANCED_FACE('',(#36),#378,.T.);
#391=ADVANCED_FACE('',(#37),#379,.T.);
#392=ADVANCED_FACE('',(#38),#22,.F.);
#393=ADVANCED_FACE('',(#39),#380,.T.);
#394=ADVANCED_FACE('',(#40),#23,.F.);
#395=ADVANCED_FACE('',(#41),#381,.T.);
#396=ADVANCED_FACE('',(#42),#24,.T.);
#397=ADVANCED_FACE('',(#43),#382,.T.);
#398=ADVANCED_FACE('',(#44),#25,.T.);
#399=ADVANCED_FACE('',(#45,#15),#383,.T.);
#400=ADVANCED_FACE('',(#46),#384,.T.);
#401=ADVANCED_FACE('',(#47),#385,.T.);
#402=ADVANCED_FACE('',(#48),#26,.F.);
#403=ADVANCED_FACE('',(#49),#27,.T.);
#404=ADVANCED_FACE('',(#50),#386,.F.);
#405=ADVANCED_FACE('',(#51),#28,.T.);
#406=ADVANCED_FACE('',(#52),#29,.F.);
#407=ADVANCED_FACE('',(#53),#30,.F.);
#408=ADVANCED_FACE('',(#54,#16),#31,.F.);
#409=ADVANCED_FACE('',(#55),#32,.T.);
#410=CLOSED_SHELL('',(#387,#388,#389,#390,#391,#392,#393,#394,#395,#396,
#397,#398,#399,#400,#401,#402,#403,#404,#405,#406,#407,#408,#409));
#411=DERIVED_UNIT_ELEMENT(#414,1.);
#412=DERIVED_UNIT_ELEMENT(#757,-3.);
#413=DIMENSIONAL_EXPONENTS(0.,1.,0.,0.,0.,0.,0.);
#414=(
CONVERSION_BASED_UNIT('gram',#416)
MASS_UNIT()
NAMED_UNIT(#413)
);
#415=(
MASS_UNIT()
NAMED_UNIT(*)
SI_UNIT(.KILO.,.GRAM.)
);
#416=MASS_MEASURE_WITH_UNIT(MASS_MEASURE(0.001),#415);
#417=DERIVED_UNIT((#411,#412));
#418=MEASURE_REPRESENTATION_ITEM('density measure',
POSITIVE_RATIO_MEASURE(1.),#417);
#419=PROPERTY_DEFINITION_REPRESENTATION(#424,#421);
#420=PROPERTY_DEFINITION_REPRESENTATION(#425,#422);
#421=REPRESENTATION('material name',(#423),#754);
#422=REPRESENTATION('density',(#418),#754);
#423=DESCRIPTIVE_REPRESENTATION_ITEM('Og\X\F3lny','Og\X\F3lny');
#424=PROPERTY_DEFINITION('material property','material name',#764);
#425=PROPERTY_DEFINITION('material property','density of part',#764);
#426=DATE_TIME_ROLE('creation_date');
#427=APPLIED_DATE_AND_TIME_ASSIGNMENT(#428,#426,(#764));
#428=DATE_AND_TIME(#429,#430);
#429=CALENDAR_DATE(2026,13,8);
#430=LOCAL_TIME(0,0,0.,#431);
#431=COORDINATED_UNIVERSAL_TIME_OFFSET(0,0,.BEHIND.);
#432=AXIS2_PLACEMENT_3D('',#597,#476,#477);
#433=AXIS2_PLACEMENT_3D('',#598,#478,#479);
#434=AXIS2_PLACEMENT_3D('',#601,#480,#481);
#435=AXIS2_PLACEMENT_3D('',#605,#483,#484);
#436=AXIS2_PLACEMENT_3D('',#607,#486,#487);
#437=AXIS2_PLACEMENT_3D('',#609,#488,#489);
#438=AXIS2_PLACEMENT_3D('',#611,#490,#491);
#439=AXIS2_PLACEMENT_3D('',#615,#493,#494);
#440=AXIS2_PLACEMENT_3D('',#619,#496,#497);
#441=AXIS2_PLACEMENT_3D('',#623,#499,#500);
#442=AXIS2_PLACEMENT_3D('',#627,#502,#503);
#443=AXIS2_PLACEMENT_3D('',#631,#505,#506);
#444=AXIS2_PLACEMENT_3D('',#635,#508,#509);
#445=AXIS2_PLACEMENT_3D('',#637,#511,#512);
#446=AXIS2_PLACEMENT_3D('',#639,#513,#514);
#447=AXIS2_PLACEMENT_3D('',#641,#516,#517);
#448=AXIS2_PLACEMENT_3D('',#643,#518,#519);
#449=AXIS2_PLACEMENT_3D('',#645,#521,#522);
#450=AXIS2_PLACEMENT_3D('',#649,#524,#525);
#451=AXIS2_PLACEMENT_3D('',#651,#527,#528);
#452=AXIS2_PLACEMENT_3D('',#657,#531,#532);
#453=AXIS2_PLACEMENT_3D('',#660,#535,#536);
#454=AXIS2_PLACEMENT_3D('',#663,#538,#539);
#455=AXIS2_PLACEMENT_3D('',#664,#540,#541);
#456=AXIS2_PLACEMENT_3D('',#666,#543,#544);
#457=AXIS2_PLACEMENT_3D('',#681,#547,#548);
#458=AXIS2_PLACEMENT_3D('',#685,#551,#552);
#459=AXIS2_PLACEMENT_3D('',#700,#555,#556);
#460=AXIS2_PLACEMENT_3D('',#704,#559,#560);
#461=AXIS2_PLACEMENT_3D('',#725,#561,#562);
#462=AXIS2_PLACEMENT_3D('',#728,#563,#564);
#463=AXIS2_PLACEMENT_3D('',#732,#566,#567);
#464=AXIS2_PLACEMENT_3D('',#734,#569,#570);
#465=AXIS2_PLACEMENT_3D('',#735,#571,#572);
#466=AXIS2_PLACEMENT_3D('',#736,#573,#574);
#467=AXIS2_PLACEMENT_3D('',#738,#576,#577);
#468=AXIS2_PLACEMENT_3D('',#739,#578,#579);
#469=AXIS2_PLACEMENT_3D('',#741,#580,#581);
#470=AXIS2_PLACEMENT_3D('',#744,#583,#584);
#471=AXIS2_PLACEMENT_3D('',#745,#585,#586);
#472=AXIS2_PLACEMENT_3D('',#746,#587,#588);
#473=AXIS2_PLACEMENT_3D('',#748,#590,#591);
#474=AXIS2_PLACEMENT_3D('',#750,#593,#594);
#475=AXIS2_PLACEMENT_3D('',#751,#595,#596);
#476=DIRECTION('axis',(0.,0.,1.));
#477=DIRECTION('refdir',(1.,0.,0.));
#478=DIRECTION('center_axis',(0.,1.,4.89858719658941E-16));
#479=DIRECTION('ref_axis',(0.515369253822684,0.,-0.856968221239417));
#480=DIRECTION('center_axis',(0.,1.,4.89858719658941E-16));
#481=DIRECTION('ref_axis',(0.515369253822684,0.,-0.856968221239417));
#482=DIRECTION('',(0.,1.,-6.93889390390723E-17));
#483=DIRECTION('center_axis',(0.,1.,4.89858719658941E-16));
#484=DIRECTION('ref_axis',(0.515369253822684,0.,-0.856968221239417));
#485=DIRECTION('',(0.,-1.,-4.89858719658941E-16));
#486=DIRECTION('center_axis',(0.,-1.,-4.89858719658941E-16));
#487=DIRECTION('ref_axis',(0.,4.89858719658941E-16,-1.));
#488=DIRECTION('center_axis',(0.,1.,4.89858719658941E-16));
#489=DIRECTION('ref_axis',(1.,0.,0.));
#490=DIRECTION('center_axis',(0.,1.,4.89858719658941E-16));
#491=DIRECTION('ref_axis',(0.515369253822684,0.,0.856968221239417));
#492=DIRECTION('',(-1.,0.,0.));
#493=DIRECTION('center_axis',(0.,1.,4.89858719658941E-16));
#494=DIRECTION('ref_axis',(-0.707106781186548,-1.57009245868378E-15,0.707106781186547));
#495=DIRECTION('',(0.,4.89858719658941E-16,-1.));
#496=DIRECTION('center_axis',(0.,1.,4.89858719658941E-16));
#497=DIRECTION('ref_axis',(-0.707106781186548,7.85046229341887E-16,-0.707106781186548));
#498=DIRECTION('',(1.,0.,0.));
#499=DIRECTION('center_axis',(0.,1.,4.89858719658941E-16));
#500=DIRECTION('ref_axis',(0.707106781186548,7.85046229341887E-16,-0.707106781186548));
#501=DIRECTION('',(0.,4.89858719658941E-16,-1.));
#502=DIRECTION('center_axis',(0.,1.,4.89858719658941E-16));
#503=DIRECTION('ref_axis',(0.707106781186547,-1.04672830578918E-15,0.707106781186548));
#504=DIRECTION('',(1.,0.,0.));
#505=DIRECTION('center_axis',(0.,1.,4.89858719658941E-16));
#506=DIRECTION('ref_axis',(-0.707106781186547,-1.04672830578918E-15,0.707106781186548));
#507=DIRECTION('',(0.,4.89858719658941E-16,-1.));
#508=DIRECTION('center_axis',(0.,1.,4.89858719658941E-16));
#509=DIRECTION('ref_axis',(-0.707106781186548,0.,-0.707106781186547));
#510=DIRECTION('',(1.,0.,0.));
#511=DIRECTION('center_axis',(0.,-1.,-4.89858719658941E-16));
#512=DIRECTION('ref_axis',(1.,0.,0.));
#513=DIRECTION('center_axis',(0.,-1.,-4.89858719658941E-16));
#514=DIRECTION('ref_axis',(1.,0.,0.));
#515=DIRECTION('',(0.,1.,4.89858719658941E-16));
#516=DIRECTION('center_axis',(0.,-1.,-4.89858719658941E-16));
#517=DIRECTION('ref_axis',(0.515369253822684,0.,0.856968221239417));
#518=DIRECTION('center_axis',(0.,1.,4.89858719658941E-16));
#519=DIRECTION('ref_axis',(0.515369253822684,0.,0.856968221239417));
#520=DIRECTION('',(0.,-1.,-6.80011602582908E-16));
#521=DIRECTION('center_axis',(0.,-1.,6.93889390390723E-17));
#522=DIRECTION('ref_axis',(-0.707106781186548,0.,-0.707106781186547));
#523=DIRECTION('',(0.,1.,-6.93889390390723E-17));
#524=DIRECTION('center_axis',(0.,1.,4.89858719658941E-16));
#525=DIRECTION('ref_axis',(-0.707106781186548,0.,-0.707106781186547));
#526=DIRECTION('',(0.,-1.,6.93889390390723E-17));
#527=DIRECTION('center_axis',(1.,0.,0.));
#528=DIRECTION('ref_axis',(0.,0.,-1.));
#529=DIRECTION('',(0.,0.,1.));
#530=DIRECTION('',(0.,-1.,-9.0205620750794E-16));
#531=DIRECTION('center_axis',(1.,0.,0.));
#532=DIRECTION('ref_axis',(0.,0.,-1.));
#533=DIRECTION('',(0.,1.,8.67361737988403E-16));
#534=DIRECTION('',(0.,-1.,-6.80011602582908E-16));
#535=DIRECTION('center_axis',(0.,1.,6.80011602582908E-16));
#536=DIRECTION('ref_axis',(-0.707106781186548,-1.57009245868378E-15,0.707106781186547));
#537=DIRECTION('',(0.,1.,6.80011602582908E-16));
#538=DIRECTION('center_axis',(0.,1.,4.89858719658941E-16));
#539=DIRECTION('ref_axis',(-0.707106781186548,-1.57009245868378E-15,0.707106781186547));
#540=DIRECTION('center_axis',(0.,6.80011602582908E-16,-1.));
#541=DIRECTION('ref_axis',(0.,1.,6.80011602582908E-16));
#542=DIRECTION('',(1.,0.,0.));
#543=DIRECTION('center_axis',(0.,1.,8.67361737988403E-16));
#544=DIRECTION('ref_axis',(0.707106781186548,7.85046229341887E-16,-0.707106781186548));
#545=DIRECTION('',(0.,-1.,-8.67361737988403E-16));
#546=DIRECTION('',(0.,1.,8.67361737988403E-16));
#547=DIRECTION('center_axis',(0.,8.67361737988403E-16,-1.));
#548=DIRECTION('ref_axis',(0.,1.,8.67361737988403E-16));
#549=DIRECTION('',(0.,-1.,-8.67361737988403E-16));
#550=DIRECTION('',(-1.,0.,0.));
#551=DIRECTION('center_axis',(0.,-1.,-9.0205620750794E-16));
#552=DIRECTION('ref_axis',(0.707106781186547,-1.04672830578918E-15,0.707106781186548));
#553=DIRECTION('',(0.,1.,9.0205620750794E-16));
#554=DIRECTION('',(0.,-1.,-9.0205620750794E-16));
#555=DIRECTION('center_axis',(0.,-9.0205620750794E-16,1.));
#556=DIRECTION('ref_axis',(0.,-1.,-9.0205620750794E-16));
#557=DIRECTION('',(1.,0.,0.));
#558=DIRECTION('',(0.,1.,9.0205620750794E-16));
#559=DIRECTION('center_axis',(-1.,0.,0.));
#560=DIRECTION('ref_axis',(0.,0.,-1.));
#561=DIRECTION('center_axis',(-1.,0.,0.));
#562=DIRECTION('ref_axis',(0.,0.,-1.));
#563=DIRECTION('center_axis',(1.,0.,0.));
#564=DIRECTION('ref_axis',(0.,0.,-1.));
#565=DIRECTION('',(-1.,0.,0.));
#566=DIRECTION('center_axis',(-1.,0.,0.));
#567=DIRECTION('ref_axis',(0.,0.,-1.));
#568=DIRECTION('',(1.,0.,0.));
#569=DIRECTION('center_axis',(0.,-1.,-9.0205620750794E-16));
#570=DIRECTION('ref_axis',(-0.707106781186547,-1.04672830578918E-15,0.707106781186548));
#571=DIRECTION('center_axis',(0.,1.,8.67361737988403E-16));
#572=DIRECTION('ref_axis',(-0.707106781186548,7.85046229341887E-16,-0.707106781186548));
#573=DIRECTION('center_axis',(0.,6.93889390390723E-17,1.));
#574=DIRECTION('ref_axis',(0.,-1.,6.93889390390723E-17));
#575=DIRECTION('',(1.,0.,0.));
#576=DIRECTION('center_axis',(0.,-1.,-4.89858719658941E-16));
#577=DIRECTION('ref_axis',(1.,0.,0.));
#578=DIRECTION('center_axis',(0.,1.,0.));
#579=DIRECTION('ref_axis',(1.,0.,0.));
#580=DIRECTION('center_axis',(0.,-1.,0.));
#581=DIRECTION('ref_axis',(1.,0.,0.));
#582=DIRECTION('',(0.,-1.,0.));
#583=DIRECTION('center_axis',(0.,1.,0.));
#584=DIRECTION('ref_axis',(1.,0.,0.));
#585=DIRECTION('center_axis',(0.,1.,0.));
#586=DIRECTION('ref_axis',(1.,0.,0.));
#587=DIRECTION('center_axis',(-1.,0.,0.));
#588=DIRECTION('ref_axis',(0.,0.,1.));
#589=DIRECTION('',(0.,0.,1.));
#590=DIRECTION('center_axis',(1.,0.,0.));
#591=DIRECTION('ref_axis',(0.,0.,-1.));
#592=DIRECTION('',(0.,0.,-1.));
#593=DIRECTION('center_axis',(0.,-1.,0.));
#594=DIRECTION('ref_axis',(0.,0.,1.));
#595=DIRECTION('center_axis',(1.,0.,0.));
#596=DIRECTION('ref_axis',(0.,0.,-1.));
#597=CARTESIAN_POINT('',(0.,0.,0.));
#598=CARTESIAN_POINT('Origin',(2.57089709998549,5.,1.28916992717838));
#599=CARTESIAN_POINT('',(3.0125521727154,-1.64612424303389E-15,1.05477539496413));
#600=CARTESIAN_POINT('',(2.57089709998549,-1.66533453693773E-15,0.789169927178378));
#601=CARTESIAN_POINT('Origin',(2.57089709998549,-1.66533453693773E-15,1.28916992717838));
#602=CARTESIAN_POINT('',(2.57089709998549,10.,0.789169927178377));
#603=CARTESIAN_POINT('',(2.57089709998549,5.,0.789169927178378));
#604=CARTESIAN_POINT('',(3.0125521727154,10.,1.05477539496413));
#605=CARTESIAN_POINT('Origin',(2.57089709998549,10.,1.28916992717838));
#606=CARTESIAN_POINT('',(3.0125521727154,5.,1.05477539496413));
#607=CARTESIAN_POINT('Origin',(0.,-3.443152185079E-15,5.));
#608=CARTESIAN_POINT('',(3.0125521727154,-2.96766050060138E-16,-1.05477539496413));
#609=CARTESIAN_POINT('Origin',(5.,-1.11022302462516E-15,0.));
#610=CARTESIAN_POINT('',(2.57089709998549,-6.07276816663359E-16,-0.789169927178378));
#611=CARTESIAN_POINT('Origin',(2.57089709998549,-5.55111512312578E-16,-1.28916992717838));
#612=CARTESIAN_POINT('',(0.5,-6.07276816663359E-16,-0.789169927178378));
#613=CARTESIAN_POINT('',(0.,-6.07276816663359E-16,-0.789169927178378));
#614=CARTESIAN_POINT('',(0.,-3.62347456833889E-16,-1.28916992717838));
#615=CARTESIAN_POINT('Origin',(0.5,1.11022302462516E-15,-1.28916992717838));
#616=CARTESIAN_POINT('',(0.,-1.41411474664165E-17,-2.));
#617=CARTESIAN_POINT('',(0.,-3.443152185079E-15,5.));
#618=CARTESIAN_POINT('',(3.,1.45543501151041E-15,-5.));
#619=CARTESIAN_POINT('Origin',(3.,2.77555756156289E-15,-2.));
#620=CARTESIAN_POINT('',(7.,1.45543501151041E-15,-5.));
#621=CARTESIAN_POINT('',(0.,1.45543501151041E-15,-5.));
#622=CARTESIAN_POINT('',(10.,-1.41411474664165E-17,-2.));
#623=CARTESIAN_POINT('Origin',(7.,2.77555756156289E-15,-2.));
#624=CARTESIAN_POINT('',(10.,-1.97357602610218E-15,2.));
#625=CARTESIAN_POINT('',(10.,-3.443152185079E-15,5.));
#626=CARTESIAN_POINT('',(7.,-3.443152185079E-15,5.));
#627=CARTESIAN_POINT('Origin',(7.,-2.22044604925031E-15,2.));
#628=CARTESIAN_POINT('',(3.,-3.443152185079E-15,5.));
#629=CARTESIAN_POINT('',(0.,-3.443152185079E-15,5.));
#630=CARTESIAN_POINT('',(0.,-1.97357602610218E-15,2.));
#631=CARTESIAN_POINT('Origin',(3.,-2.22044604925031E-15,2.));
#632=CARTESIAN_POINT('',(0.,-1.62536971673471E-15,1.28916992717838));
#633=CARTESIAN_POINT('',(0.,-3.443152185079E-15,5.));
#634=CARTESIAN_POINT('',(0.5,-1.66533453693773E-15,0.789169927178378));
#635=CARTESIAN_POINT('Origin',(0.5,-3.33066907387547E-15,1.28916992717838));
#636=CARTESIAN_POINT('',(0.,-1.66533453693773E-15,0.789169927178378));
#637=CARTESIAN_POINT('Origin',(5.,5.,2.44929359829471E-15));
#638=CARTESIAN_POINT('',(3.0125521727154,10.,-1.05477539496412));
#639=CARTESIAN_POINT('Origin',(5.,10.,4.89858719658941E-15));
#640=CARTESIAN_POINT('',(3.0125521727154,5.,-1.05477539496412));
#641=CARTESIAN_POINT('Origin',(2.57089709998549,5.,-1.28916992717837));
#642=CARTESIAN_POINT('',(2.57089709998549,10.,-0.789169927178371));
#643=CARTESIAN_POINT('Origin',(2.57089709998549,10.,-1.28916992717837));
#644=CARTESIAN_POINT('',(2.57089709998549,5.,-0.789169927178375));
#645=CARTESIAN_POINT('Origin',(0.5,9.,1.28916992717838));
#646=CARTESIAN_POINT('',(0.,10.,1.28916992717838));
#647=CARTESIAN_POINT('',(0.,9.,1.28916992717838));
#648=CARTESIAN_POINT('',(0.5,10.,0.789169927178377));
#649=CARTESIAN_POINT('Origin',(0.5,10.,1.28916992717838));
#650=CARTESIAN_POINT('',(0.5,9.,0.789169927178378));
#651=CARTESIAN_POINT('Origin',(0.,8.,7.21644966006352E-15));
#652=CARTESIAN_POINT('',(0.,10.,-1.28916992717837));
#653=CARTESIAN_POINT('',(0.,10.,-0.394584963589182));
#654=CARTESIAN_POINT('',(0.,15.9335918733119,2.00000000000001));
#655=CARTESIAN_POINT('',(0.,12.,2.00000000000001));
#656=CARTESIAN_POINT('',(0.,15.9335918733119,-1.99999999999999));
#657=CARTESIAN_POINT('Origin',(0.,-14.15,0.));
#658=CARTESIAN_POINT('',(0.,4.,-2.));
#659=CARTESIAN_POINT('',(0.,4.,-1.28916992717838));
#660=CARTESIAN_POINT('Origin',(0.5,4.,-1.28916992717838));
#661=CARTESIAN_POINT('',(0.5,10.,-0.789169927178371));
#662=CARTESIAN_POINT('',(0.5,4.,-0.789169927178375));
#663=CARTESIAN_POINT('Origin',(0.5,10.,-1.28916992717837));
#664=CARTESIAN_POINT('Origin',(0.,0.,-0.789169927178378));
#665=CARTESIAN_POINT('',(0.,10.,-0.789169927178371));
#666=CARTESIAN_POINT('Origin',(7.,4.,-2.));
#667=CARTESIAN_POINT('',(7.,15.582515870676,-4.99999999999999));
#668=CARTESIAN_POINT('',(10.,15.9335918733119,-1.99999999999999));
#669=CARTESIAN_POINT('Ctrl Pts',(7.,15.582515870676,-4.99999999999999));
#670=CARTESIAN_POINT('Ctrl Pts',(7.37701771848129,15.582515870676,-4.99999999999999));
#671=CARTESIAN_POINT('Ctrl Pts',(7.77872616024677,15.5955034192675,-4.92457987874897));
#672=CARTESIAN_POINT('Ctrl Pts',(8.51689041951833,15.6445002273236,-4.61889777690252));
#673=CARTESIAN_POINT('Ctrl Pts',(8.85338943114376,15.680079638959,-4.38867135664354));
#674=CARTESIAN_POINT('Ctrl Pts',(9.38589715744498,15.7534420144309,-3.85732115527347));
#675=CARTESIAN_POINT('Ctrl Pts',(9.6171855281942,15.796113738002,-3.52009237099696));
#676=CARTESIAN_POINT('Ctrl Pts',(9.92425080542367,15.8738220486781,-2.78044742662873));
#677=CARTESIAN_POINT('Ctrl Pts',(10.,15.9084633389957,-2.37797828537258));
#678=CARTESIAN_POINT('Ctrl Pts',(10.,15.9335918733119,-1.99999999999999));
#679=CARTESIAN_POINT('',(10.,4.,-2.));
#680=CARTESIAN_POINT('',(7.,4.,-5.));
#681=CARTESIAN_POINT('Origin',(0.,1.45543501151041E-15,-5.));
#682=CARTESIAN_POINT('',(3.,15.582515870676,-4.99999999999999));
#683=CARTESIAN_POINT('',(3.,4.,-5.));
#684=CARTESIAN_POINT('',(10.,15.582515870676,-4.99999999999999));
#685=CARTESIAN_POINT('Origin',(7.,12.,2.00000000000001));
#686=CARTESIAN_POINT('',(10.,15.9335918733119,2.00000000000001));
#687=CARTESIAN_POINT('',(10.,12.,2.00000000000001));
#688=CARTESIAN_POINT('',(7.,15.582515870676,5.00000000000001));
#689=CARTESIAN_POINT('Ctrl Pts',(10.,15.9335918733119,2.00000000000001));
#690=CARTESIAN_POINT('Ctrl Pts',(10.,15.9084633389957,2.3779782853726));
#691=CARTESIAN_POINT('Ctrl Pts',(9.92425080542367,15.8738220486781,2.78044742662876));
#692=CARTESIAN_POINT('Ctrl Pts',(9.6171855281942,15.796113738002,3.52009237099699));
#693=CARTESIAN_POINT('Ctrl Pts',(9.38589715744498,15.7534420144309,3.85732115527349));
#694=CARTESIAN_POINT('Ctrl Pts',(8.85338943114376,15.680079638959,4.38867135664357));
#695=CARTESIAN_POINT('Ctrl Pts',(8.51689041951833,15.6445002273236,4.61889777690255));
#696=CARTESIAN_POINT('Ctrl Pts',(7.77872616024677,15.5955034192675,4.924579878749));
#697=CARTESIAN_POINT('Ctrl Pts',(7.37701771848129,15.582515870676,5.00000000000001));
#698=CARTESIAN_POINT('Ctrl Pts',(7.,15.582515870676,5.00000000000001));
#699=CARTESIAN_POINT('',(7.,12.,5.00000000000001));
#700=CARTESIAN_POINT('Origin',(0.,16.,5.00000000000001));
#701=CARTESIAN_POINT('',(3.,15.582515870676,5.00000000000001));
#702=CARTESIAN_POINT('',(10.,15.582515870676,5.00000000000001));
#703=CARTESIAN_POINT('',(3.,12.,5.00000000000001));
#704=CARTESIAN_POINT('Origin',(10.,-14.15,0.));
#705=CARTESIAN_POINT('Ctrl Pts',(-5.3776427755281E-16,15.9335918733119,
-1.99999999999999));
#706=CARTESIAN_POINT('Ctrl Pts',(-4.53650971273196E-16,15.9084633389957,
-2.37797828537258));
#707=CARTESIAN_POINT('Ctrl Pts',(0.0757491945763333,15.8738220486781,-2.78044742662873));
#708=CARTESIAN_POINT('Ctrl Pts',(0.382814471805799,15.796113738002,-3.52009237099696));
#709=CARTESIAN_POINT('Ctrl Pts',(0.614102842555021,15.7534420144309,-3.85732115527346));
#710=CARTESIAN_POINT('Ctrl Pts',(1.14661056885624,15.680079638959,-4.38867135664354));
#711=CARTESIAN_POINT('Ctrl Pts',(1.48310958048167,15.6445002273236,-4.61889777690252));
#712=CARTESIAN_POINT('Ctrl Pts',(2.22127383975323,15.5955034192675,-4.92457987874897));
#713=CARTESIAN_POINT('Ctrl Pts',(2.62298228151871,15.582515870676,-4.99999999999999));
#714=CARTESIAN_POINT('Ctrl Pts',(3.,15.582515870676,-4.99999999999999));
#715=CARTESIAN_POINT('Ctrl Pts',(3.,15.582515870676,5.00000000000001));
#716=CARTESIAN_POINT('Ctrl Pts',(2.62298228151871,15.582515870676,5.00000000000001));
#717=CARTESIAN_POINT('Ctrl Pts',(2.22127383975323,15.5955034192675,4.924579878749));
#718=CARTESIAN_POINT('Ctrl Pts',(1.48310958048167,15.6445002273236,4.61889777690255));
#719=CARTESIAN_POINT('Ctrl Pts',(1.14661056885624,15.680079638959,4.38867135664357));
#720=CARTESIAN_POINT('Ctrl Pts',(0.614102842555024,15.7534420144309,3.85732115527349));
#721=CARTESIAN_POINT('Ctrl Pts',(0.3828144718058,15.796113738002,3.52009237099699));
#722=CARTESIAN_POINT('Ctrl Pts',(0.0757491945763339,15.8738220486781,2.78044742662876));
#723=CARTESIAN_POINT('Ctrl Pts',(1.68733031496636E-16,15.9084633389957,
2.37797828537261));
#724=CARTESIAN_POINT('Ctrl Pts',(2.94902990916057E-16,15.9335918733119,
2.00000000000002));
#725=CARTESIAN_POINT('Origin',(10.,-14.15,0.));
#726=CARTESIAN_POINT('',(8.,15.8503749976563,-3.));
#727=CARTESIAN_POINT('',(8.,15.8503749976563,3.));
#728=CARTESIAN_POINT('Origin',(8.,-14.15,0.));
#729=CARTESIAN_POINT('',(2.,15.8503749976563,3.));
#730=CARTESIAN_POINT('',(10.,15.8503749976563,3.));
#731=CARTESIAN_POINT('',(2.,15.8503749976563,-3.));
#732=CARTESIAN_POINT('Origin',(2.,-14.15,0.));
#733=CARTESIAN_POINT('',(10.,15.8503749976563,-3.));
#734=CARTESIAN_POINT('Origin',(3.,12.,2.00000000000001));
#735=CARTESIAN_POINT('Origin',(3.,4.,-2.));
#736=CARTESIAN_POINT('Origin',(0.,10.,0.789169927178377));
#737=CARTESIAN_POINT('',(0.,10.,0.789169927178377));
#738=CARTESIAN_POINT('Origin',(5.,10.,4.89858719658941E-15));
#739=CARTESIAN_POINT('Origin',(5.,13.3503749976563,0.));
#740=CARTESIAN_POINT('',(3.55,15.8503749976563,1.77573785876366E-16));
#741=CARTESIAN_POINT('Origin',(5.,15.8503749976563,0.));
#742=CARTESIAN_POINT('',(3.55,10.8503749976563,1.77573785876366E-16));
#743=CARTESIAN_POINT('',(3.55,13.3503749976563,1.77573785876366E-16));
#744=CARTESIAN_POINT('Origin',(5.,10.8503749976563,0.));
#745=CARTESIAN_POINT('Origin',(5.,10.8503749976563,0.));
#746=CARTESIAN_POINT('Origin',(2.,15.9251874988281,0.));
#747=CARTESIAN_POINT('',(2.,15.8503749976563,-3.));
#748=CARTESIAN_POINT('Origin',(8.,15.9251874988281,0.));
#749=CARTESIAN_POINT('',(8.,15.8503749976563,-3.));
#750=CARTESIAN_POINT('Origin',(5.,15.8503749976563,-3.));
#751=CARTESIAN_POINT('Origin',(10.,8.,7.7715611723761E-15));
#752=UNCERTAINTY_MEASURE_WITH_UNIT(LENGTH_MEASURE(0.01),#756,
'DISTANCE_ACCURACY_VALUE',
'Maximum model space distance between geometric entities at asserted c
onnectivities');
#753=UNCERTAINTY_MEASURE_WITH_UNIT(LENGTH_MEASURE(0.01),#756,
'DISTANCE_ACCURACY_VALUE',
'Maximum model space distance between geometric entities at asserted c
onnectivities');
#754=(
GEOMETRIC_REPRESENTATION_CONTEXT(3)
GLOBAL_UNCERTAINTY_ASSIGNED_CONTEXT((#752))
GLOBAL_UNIT_ASSIGNED_CONTEXT((#756,#758,#759))
REPRESENTATION_CONTEXT('','3D')
);
#755=(
GEOMETRIC_REPRESENTATION_CONTEXT(3)
GLOBAL_UNCERTAINTY_ASSIGNED_CONTEXT((#753))
GLOBAL_UNIT_ASSIGNED_CONTEXT((#756,#758,#759))
REPRESENTATION_CONTEXT('','3D')
);
#756=(
LENGTH_UNIT()
NAMED_UNIT(*)
SI_UNIT(.MILLI.,.METRE.)
);
#757=(
LENGTH_UNIT()
NAMED_UNIT(*)
SI_UNIT(.CENTI.,.METRE.)
);
#758=(
NAMED_UNIT(*)
PLANE_ANGLE_UNIT()
SI_UNIT($,.RADIAN.)
);
#759=(
NAMED_UNIT(*)
SI_UNIT($,.STERADIAN.)
SOLID_ANGLE_UNIT()
);
#760=SHAPE_DEFINITION_REPRESENTATION(#761,#762);
#761=PRODUCT_DEFINITION_SHAPE('',$,#764);
#762=SHAPE_REPRESENTATION('',(#432),#754);
#763=PRODUCT_DEFINITION_CONTEXT('part definition',#768,'design');
#764=PRODUCT_DEFINITION('brush_holder_batt','brush_holder_batt',#765,#763);
#765=PRODUCT_DEFINITION_FORMATION('',$,#770);
#766=PRODUCT_RELATED_PRODUCT_CATEGORY('brush_holder_batt',
'brush_holder_batt',(#770));
#767=APPLICATION_PROTOCOL_DEFINITION('international standard',
'automotive_design',2009,#768);
#768=APPLICATION_CONTEXT(
'Core Data for Automotive Mechanical Design Process');
#769=PRODUCT_CONTEXT('part definition',#768,'mechanical');
#770=PRODUCT('brush_holder_batt','brush_holder_batt',$,(#769));
#771=PRESENTATION_STYLE_ASSIGNMENT((#772));
#772=SURFACE_STYLE_USAGE(.BOTH.,#775);
#773=SURFACE_STYLE_RENDERING_WITH_PROPERTIES($,#779,(#774));
#774=SURFACE_STYLE_TRANSPARENT(0.);
#775=SURFACE_SIDE_STYLE('',(#776,#773));
#776=SURFACE_STYLE_FILL_AREA(#777);
#777=FILL_AREA_STYLE('',(#778));
#778=FILL_AREA_STYLE_COLOUR('',#779);
#779=COLOUR_RGB('',0.32156862745098,0.411764705882353,0.168627450980392);
ENDSEC;
END-ISO-10303-21;
