ISO-10303-21;
HEADER;
/* Generated by software containing ST-Developer
 * from STEP Tools, Inc. (www.steptools.com) 
 */

FILE_DESCRIPTION(
/* description */ (''),
/* implementation_level */ '2;1');

FILE_NAME(
/* name */ 'brush_cart_outer_holder.stp',
/* time_stamp */ '2026-08-21T17:50:07+02:00',
/* author */ ('zzapa'),
/* organization */ (''),
/* preprocessor_version */ 'ST-DEVELOPER v20',
/* originating_system */ 'Autodesk Inventor 2025',
/* authorisation */ '');

FILE_SCHEMA (('AUTOMOTIVE_DESIGN { 1 0 10303 214 3 1 1 }'));
ENDSEC;

DATA;
#10=MECHANICAL_DESIGN_GEOMETRIC_PRESENTATION_REPRESENTATION('',(#13),#456);
#11=SHAPE_REPRESENTATION_RELATIONSHIP('SRR','None',#463,#12);
#12=ADVANCED_BREP_SHAPE_REPRESENTATION('',(#14),#455);
#13=STYLED_ITEM('',(#472),#14);
#14=MANIFOLD_SOLID_BREP('Bry\X2\0142\X0\a1',#234);
#15=PLANE('',#263);
#16=PLANE('',#269);
#17=PLANE('',#272);
#18=PLANE('',#276);
#19=PLANE('',#277);
#20=PLANE('',#282);
#21=FACE_BOUND('',#41,.T.);
#22=FACE_BOUND('',#47,.T.);
#23=FACE_BOUND('',#51,.T.);
#24=B_SPLINE_CURVE_WITH_KNOTS('',3,(#371,#372,#373,#374,#375,#376,#377,
#378,#379,#380),.UNSPECIFIED.,.F.,.F.,(4,2,2,2,4),(0.,0.0489746581833965,
0.097949316366793,0.146923970638842,0.19589862491089),.UNSPECIFIED.);
#25=B_SPLINE_CURVE_WITH_KNOTS('',3,(#381,#382,#383,#384,#385,#386,#387,
#388,#389,#390,#391,#392,#393,#394,#395,#396,#397,#398,#399,#400,#401,#402,
#403,#404,#405,#406),.UNSPECIFIED.,.F.,.F.,(4,2,2,2,2,2,2,2,2,2,2,2,4),
(0.19589862491089,0.244873279182939,0.293847933454988,0.342822591638384,
0.391797249821781,0.440771908005177,0.489746566188574,0.538721220460622,
0.587695874732671,0.63667052900472,0.685645183276768,0.734619841460165,
0.783594499643562),.UNSPECIFIED.);
#26=FACE_OUTER_BOUND('',#39,.T.);
#27=FACE_OUTER_BOUND('',#40,.T.);
#28=FACE_OUTER_BOUND('',#42,.T.);
#29=FACE_OUTER_BOUND('',#43,.T.);
#30=FACE_OUTER_BOUND('',#44,.T.);
#31=FACE_OUTER_BOUND('',#45,.T.);
#32=FACE_OUTER_BOUND('',#46,.T.);
#33=FACE_OUTER_BOUND('',#48,.T.);
#34=FACE_OUTER_BOUND('',#49,.T.);
#35=FACE_OUTER_BOUND('',#50,.T.);
#36=FACE_OUTER_BOUND('',#52,.T.);
#37=FACE_OUTER_BOUND('',#53,.T.);
#38=FACE_OUTER_BOUND('',#54,.T.);
#39=EDGE_LOOP('',(#152,#153,#154,#155));
#40=EDGE_LOOP('',(#156,#157,#158,#159));
#41=EDGE_LOOP('',(#160,#161));
#42=EDGE_LOOP('',(#162,#163,#164,#165,#166,#167,#168,#169));
#43=EDGE_LOOP('',(#170,#171,#172,#173));
#44=EDGE_LOOP('',(#174,#175,#176,#177));
#45=EDGE_LOOP('',(#178,#179,#180,#181));
#46=EDGE_LOOP('',(#182,#183,#184,#185));
#47=EDGE_LOOP('',(#186));
#48=EDGE_LOOP('',(#187,#188,#189,#190));
#49=EDGE_LOOP('',(#191,#192,#193,#194));
#50=EDGE_LOOP('',(#195));
#51=EDGE_LOOP('',(#196));
#52=EDGE_LOOP('',(#197,#198,#199,#200));
#53=EDGE_LOOP('',(#201,#202,#203,#204,#205));
#54=EDGE_LOOP('',(#206,#207,#208,#209,#210,#211,#212,#213));
#55=LINE('',#359,#71);
#56=LINE('',#362,#72);
#57=LINE('',#367,#73);
#58=LINE('',#409,#74);
#59=LINE('',#413,#75);
#60=LINE('',#417,#76);
#61=LINE('',#421,#77);
#62=LINE('',#425,#78);
#63=LINE('',#426,#79);
#64=LINE('',#430,#80);
#65=LINE('',#433,#81);
#66=LINE('',#434,#82);
#67=LINE('',#440,#83);
#68=LINE('',#442,#84);
#69=LINE('',#449,#85);
#70=LINE('',#451,#86);
#71=VECTOR('',#289,10.);
#72=VECTOR('',#292,10.);
#73=VECTOR('',#297,10.);
#74=VECTOR('',#302,10.);
#75=VECTOR('',#305,10.);
#76=VECTOR('',#308,10.);
#77=VECTOR('',#313,10.);
#78=VECTOR('',#318,10.);
#79=VECTOR('',#319,10.);
#80=VECTOR('',#324,10.);
#81=VECTOR('',#327,10.);
#82=VECTOR('',#328,10.);
#83=VECTOR('',#335,10.);
#84=VECTOR('',#338,10.);
#85=VECTOR('',#347,2.25);
#86=VECTOR('',#350,1.3);
#87=CIRCLE('',#258,1.);
#88=CIRCLE('',#259,1.);
#89=CIRCLE('',#261,33.15);
#90=CIRCLE('',#262,33.15);
#91=CIRCLE('',#264,1.);
#92=CIRCLE('',#265,1.);
#93=CIRCLE('',#266,1.);
#94=CIRCLE('',#268,1.);
#95=CIRCLE('',#271,1.);
#96=CIRCLE('',#273,2.25);
#97=CIRCLE('',#275,1.);
#98=CIRCLE('',#278,2.25);
#99=CIRCLE('',#279,1.3);
#100=VERTEX_POINT('',#355);
#101=VERTEX_POINT('',#356);
#102=VERTEX_POINT('',#358);
#103=VERTEX_POINT('',#360);
#104=VERTEX_POINT('',#364);
#105=VERTEX_POINT('',#366);
#106=VERTEX_POINT('',#369);
#107=VERTEX_POINT('',#370);
#108=VERTEX_POINT('',#408);
#109=VERTEX_POINT('',#410);
#110=VERTEX_POINT('',#412);
#111=VERTEX_POINT('',#414);
#112=VERTEX_POINT('',#416);
#113=VERTEX_POINT('',#420);
#114=VERTEX_POINT('',#424);
#115=VERTEX_POINT('',#428);
#116=VERTEX_POINT('',#432);
#117=VERTEX_POINT('',#435);
#118=VERTEX_POINT('',#438);
#119=VERTEX_POINT('',#444);
#120=VERTEX_POINT('',#446);
#121=EDGE_CURVE('',#100,#101,#87,.T.);
#122=EDGE_CURVE('',#101,#102,#55,.T.);
#123=EDGE_CURVE('',#102,#103,#88,.T.);
#124=EDGE_CURVE('',#103,#100,#56,.T.);
#125=EDGE_CURVE('',#104,#103,#89,.T.);
#126=EDGE_CURVE('',#105,#104,#57,.T.);
#127=EDGE_CURVE('',#100,#105,#90,.T.);
#128=EDGE_CURVE('',#106,#107,#24,.T.);
#129=EDGE_CURVE('',#107,#106,#25,.T.);
#130=EDGE_CURVE('',#108,#102,#58,.T.);
#131=EDGE_CURVE('',#109,#108,#91,.T.);
#132=EDGE_CURVE('',#110,#109,#59,.T.);
#133=EDGE_CURVE('',#111,#110,#92,.T.);
#134=EDGE_CURVE('',#112,#111,#60,.T.);
#135=EDGE_CURVE('',#104,#112,#93,.T.);
#136=EDGE_CURVE('',#112,#113,#61,.T.);
#137=EDGE_CURVE('',#113,#105,#94,.T.);
#138=EDGE_CURVE('',#114,#111,#62,.T.);
#139=EDGE_CURVE('',#113,#114,#63,.T.);
#140=EDGE_CURVE('',#115,#114,#95,.T.);
#141=EDGE_CURVE('',#110,#115,#64,.T.);
#142=EDGE_CURVE('',#116,#109,#65,.T.);
#143=EDGE_CURVE('',#115,#116,#66,.T.);
#144=EDGE_CURVE('',#117,#117,#96,.T.);
#145=EDGE_CURVE('',#118,#116,#97,.T.);
#146=EDGE_CURVE('',#108,#118,#67,.T.);
#147=EDGE_CURVE('',#118,#101,#68,.T.);
#148=EDGE_CURVE('',#119,#119,#98,.T.);
#149=EDGE_CURVE('',#120,#120,#99,.T.);
#150=EDGE_CURVE('',#117,#119,#69,.T.);
#151=EDGE_CURVE('',#120,#107,#70,.T.);
#152=ORIENTED_EDGE('',*,*,#121,.T.);
#153=ORIENTED_EDGE('',*,*,#122,.T.);
#154=ORIENTED_EDGE('',*,*,#123,.T.);
#155=ORIENTED_EDGE('',*,*,#124,.T.);
#156=ORIENTED_EDGE('',*,*,#124,.F.);
#157=ORIENTED_EDGE('',*,*,#125,.F.);
#158=ORIENTED_EDGE('',*,*,#126,.F.);
#159=ORIENTED_EDGE('',*,*,#127,.F.);
#160=ORIENTED_EDGE('',*,*,#128,.T.);
#161=ORIENTED_EDGE('',*,*,#129,.T.);
#162=ORIENTED_EDGE('',*,*,#123,.F.);
#163=ORIENTED_EDGE('',*,*,#130,.F.);
#164=ORIENTED_EDGE('',*,*,#131,.F.);
#165=ORIENTED_EDGE('',*,*,#132,.F.);
#166=ORIENTED_EDGE('',*,*,#133,.F.);
#167=ORIENTED_EDGE('',*,*,#134,.F.);
#168=ORIENTED_EDGE('',*,*,#135,.F.);
#169=ORIENTED_EDGE('',*,*,#125,.T.);
#170=ORIENTED_EDGE('',*,*,#135,.T.);
#171=ORIENTED_EDGE('',*,*,#136,.T.);
#172=ORIENTED_EDGE('',*,*,#137,.T.);
#173=ORIENTED_EDGE('',*,*,#126,.T.);
#174=ORIENTED_EDGE('',*,*,#136,.F.);
#175=ORIENTED_EDGE('',*,*,#134,.T.);
#176=ORIENTED_EDGE('',*,*,#138,.F.);
#177=ORIENTED_EDGE('',*,*,#139,.F.);
#178=ORIENTED_EDGE('',*,*,#140,.T.);
#179=ORIENTED_EDGE('',*,*,#138,.T.);
#180=ORIENTED_EDGE('',*,*,#133,.T.);
#181=ORIENTED_EDGE('',*,*,#141,.T.);
#182=ORIENTED_EDGE('',*,*,#141,.F.);
#183=ORIENTED_EDGE('',*,*,#132,.T.);
#184=ORIENTED_EDGE('',*,*,#142,.F.);
#185=ORIENTED_EDGE('',*,*,#143,.F.);
#186=ORIENTED_EDGE('',*,*,#144,.T.);
#187=ORIENTED_EDGE('',*,*,#145,.T.);
#188=ORIENTED_EDGE('',*,*,#142,.T.);
#189=ORIENTED_EDGE('',*,*,#131,.T.);
#190=ORIENTED_EDGE('',*,*,#146,.T.);
#191=ORIENTED_EDGE('',*,*,#122,.F.);
#192=ORIENTED_EDGE('',*,*,#147,.F.);
#193=ORIENTED_EDGE('',*,*,#146,.F.);
#194=ORIENTED_EDGE('',*,*,#130,.T.);
#195=ORIENTED_EDGE('',*,*,#148,.T.);
#196=ORIENTED_EDGE('',*,*,#149,.F.);
#197=ORIENTED_EDGE('',*,*,#144,.F.);
#198=ORIENTED_EDGE('',*,*,#150,.T.);
#199=ORIENTED_EDGE('',*,*,#148,.F.);
#200=ORIENTED_EDGE('',*,*,#150,.F.);
#201=ORIENTED_EDGE('',*,*,#149,.T.);
#202=ORIENTED_EDGE('',*,*,#151,.T.);
#203=ORIENTED_EDGE('',*,*,#128,.F.);
#204=ORIENTED_EDGE('',*,*,#129,.F.);
#205=ORIENTED_EDGE('',*,*,#151,.F.);
#206=ORIENTED_EDGE('',*,*,#121,.F.);
#207=ORIENTED_EDGE('',*,*,#127,.T.);
#208=ORIENTED_EDGE('',*,*,#137,.F.);
#209=ORIENTED_EDGE('',*,*,#139,.T.);
#210=ORIENTED_EDGE('',*,*,#140,.F.);
#211=ORIENTED_EDGE('',*,*,#143,.T.);
#212=ORIENTED_EDGE('',*,*,#145,.F.);
#213=ORIENTED_EDGE('',*,*,#147,.T.);
#214=CYLINDRICAL_SURFACE('',#257,1.);
#215=CYLINDRICAL_SURFACE('',#260,33.15);
#216=CYLINDRICAL_SURFACE('',#267,1.);
#217=CYLINDRICAL_SURFACE('',#270,1.);
#218=CYLINDRICAL_SURFACE('',#274,1.);
#219=CYLINDRICAL_SURFACE('',#280,2.25);
#220=CYLINDRICAL_SURFACE('',#281,1.3);
#221=ADVANCED_FACE('',(#26),#214,.T.);
#222=ADVANCED_FACE('',(#27,#21),#215,.F.);
#223=ADVANCED_FACE('',(#28),#15,.F.);
#224=ADVANCED_FACE('',(#29),#216,.T.);
#225=ADVANCED_FACE('',(#30),#16,.T.);
#226=ADVANCED_FACE('',(#31),#217,.T.);
#227=ADVANCED_FACE('',(#32,#22),#17,.T.);
#228=ADVANCED_FACE('',(#33),#218,.T.);
#229=ADVANCED_FACE('',(#34),#18,.T.);
#230=ADVANCED_FACE('',(#35,#23),#19,.T.);
#231=ADVANCED_FACE('',(#36),#219,.F.);
#232=ADVANCED_FACE('',(#37),#220,.F.);
#233=ADVANCED_FACE('',(#38),#20,.T.);
#234=CLOSED_SHELL('',(#221,#222,#223,#224,#225,#226,#227,#228,#229,#230,
#231,#232,#233));
#235=DERIVED_UNIT_ELEMENT(#238,1.);
#236=DERIVED_UNIT_ELEMENT(#458,-3.);
#237=DIMENSIONAL_EXPONENTS(0.,1.,0.,0.,0.,0.,0.);
#238=(
CONVERSION_BASED_UNIT('gram',#240)
MASS_UNIT()
NAMED_UNIT(#237)
);
#239=(
MASS_UNIT()
NAMED_UNIT(*)
SI_UNIT(.KILO.,.GRAM.)
);
#240=MASS_MEASURE_WITH_UNIT(MASS_MEASURE(0.001),#239);
#241=DERIVED_UNIT((#235,#236));
#242=MEASURE_REPRESENTATION_ITEM('density measure',
POSITIVE_RATIO_MEASURE(1.),#241);
#243=PROPERTY_DEFINITION_REPRESENTATION(#248,#245);
#244=PROPERTY_DEFINITION_REPRESENTATION(#249,#246);
#245=REPRESENTATION('material name',(#247),#455);
#246=REPRESENTATION('density',(#242),#455);
#247=DESCRIPTIVE_REPRESENTATION_ITEM('Og\X\F3lny','Og\X\F3lny');
#248=PROPERTY_DEFINITION('material property','material name',#465);
#249=PROPERTY_DEFINITION('material property','density of part',#465);
#250=DATE_TIME_ROLE('creation_date');
#251=APPLIED_DATE_AND_TIME_ASSIGNMENT(#252,#250,(#465));
#252=DATE_AND_TIME(#253,#254);
#253=CALENDAR_DATE(2026,13,8);
#254=LOCAL_TIME(0,0,0.,#255);
#255=COORDINATED_UNIVERSAL_TIME_OFFSET(0,0,.BEHIND.);
#256=AXIS2_PLACEMENT_3D('',#353,#283,#284);
#257=AXIS2_PLACEMENT_3D('',#354,#285,#286);
#258=AXIS2_PLACEMENT_3D('',#357,#287,#288);
#259=AXIS2_PLACEMENT_3D('',#361,#290,#291);
#260=AXIS2_PLACEMENT_3D('',#363,#293,#294);
#261=AXIS2_PLACEMENT_3D('',#365,#295,#296);
#262=AXIS2_PLACEMENT_3D('',#368,#298,#299);
#263=AXIS2_PLACEMENT_3D('',#407,#300,#301);
#264=AXIS2_PLACEMENT_3D('',#411,#303,#304);
#265=AXIS2_PLACEMENT_3D('',#415,#306,#307);
#266=AXIS2_PLACEMENT_3D('',#418,#309,#310);
#267=AXIS2_PLACEMENT_3D('',#419,#311,#312);
#268=AXIS2_PLACEMENT_3D('',#422,#314,#315);
#269=AXIS2_PLACEMENT_3D('',#423,#316,#317);
#270=AXIS2_PLACEMENT_3D('',#427,#320,#321);
#271=AXIS2_PLACEMENT_3D('',#429,#322,#323);
#272=AXIS2_PLACEMENT_3D('',#431,#325,#326);
#273=AXIS2_PLACEMENT_3D('',#436,#329,#330);
#274=AXIS2_PLACEMENT_3D('',#437,#331,#332);
#275=AXIS2_PLACEMENT_3D('',#439,#333,#334);
#276=AXIS2_PLACEMENT_3D('',#441,#336,#337);
#277=AXIS2_PLACEMENT_3D('',#443,#339,#340);
#278=AXIS2_PLACEMENT_3D('',#445,#341,#342);
#279=AXIS2_PLACEMENT_3D('',#447,#343,#344);
#280=AXIS2_PLACEMENT_3D('',#448,#345,#346);
#281=AXIS2_PLACEMENT_3D('',#450,#348,#349);
#282=AXIS2_PLACEMENT_3D('',#452,#351,#352);
#283=DIRECTION('axis',(0.,0.,1.));
#284=DIRECTION('refdir',(1.,0.,0.));
#285=DIRECTION('center_axis',(1.,0.,0.));
#286=DIRECTION('ref_axis',(0.,-0.747372165479513,0.664405633831069));
#287=DIRECTION('center_axis',(-1.,0.,0.));
#288=DIRECTION('ref_axis',(0.,-0.747372165479513,0.664405633831069));
#289=DIRECTION('',(-1.,0.,0.));
#290=DIRECTION('center_axis',(1.,0.,0.));
#291=DIRECTION('ref_axis',(0.,-0.747372165479513,0.664405633831069));
#292=DIRECTION('',(1.,0.,0.));
#293=DIRECTION('center_axis',(-1.,0.,0.));
#294=DIRECTION('ref_axis',(0.,0.,-1.));
#295=DIRECTION('center_axis',(1.,0.,0.));
#296=DIRECTION('ref_axis',(0.,0.,-1.));
#297=DIRECTION('',(-1.,0.,0.));
#298=DIRECTION('center_axis',(-1.,0.,0.));
#299=DIRECTION('ref_axis',(0.,0.,-1.));
#300=DIRECTION('center_axis',(1.,0.,0.));
#301=DIRECTION('ref_axis',(0.,0.,-1.));
#302=DIRECTION('',(0.,-1.,-4.03717463500057E-16));
#303=DIRECTION('center_axis',(1.,0.,0.));
#304=DIRECTION('ref_axis',(0.,0.707106781186547,0.707106781186548));
#305=DIRECTION('',(0.,-4.44089209850063E-16,1.));
#306=DIRECTION('center_axis',(1.,0.,0.));
#307=DIRECTION('ref_axis',(0.,0.707106781186549,-0.707106781186546));
#308=DIRECTION('',(0.,1.,5.04646829375071E-16));
#309=DIRECTION('center_axis',(1.,0.,0.));
#310=DIRECTION('ref_axis',(0.,-0.747372165479512,-0.66440563383107));
#311=DIRECTION('center_axis',(-1.,0.,0.));
#312=DIRECTION('ref_axis',(0.,-0.747372165479512,-0.66440563383107));
#313=DIRECTION('',(1.,0.,0.));
#314=DIRECTION('center_axis',(-1.,0.,0.));
#315=DIRECTION('ref_axis',(0.,-0.747372165479512,-0.66440563383107));
#316=DIRECTION('center_axis',(0.,5.04646829375071E-16,-1.));
#317=DIRECTION('ref_axis',(0.,1.,5.04646829375071E-16));
#318=DIRECTION('',(-1.,0.,0.));
#319=DIRECTION('',(0.,1.,5.04646829375071E-16));
#320=DIRECTION('center_axis',(1.,0.,0.));
#321=DIRECTION('ref_axis',(0.,0.707106781186549,-0.707106781186546));
#322=DIRECTION('center_axis',(-1.,0.,0.));
#323=DIRECTION('ref_axis',(0.,0.707106781186549,-0.707106781186546));
#324=DIRECTION('',(1.,0.,0.));
#325=DIRECTION('center_axis',(0.,1.,4.44089209850063E-16));
#326=DIRECTION('ref_axis',(0.,-4.44089209850063E-16,1.));
#327=DIRECTION('',(-1.,0.,0.));
#328=DIRECTION('',(0.,-4.44089209850063E-16,1.));
#329=DIRECTION('center_axis',(0.,-1.,-4.44089209850063E-16));
#330=DIRECTION('ref_axis',(1.,0.,0.));
#331=DIRECTION('center_axis',(1.,0.,0.));
#332=DIRECTION('ref_axis',(0.,0.707106781186547,0.707106781186548));
#333=DIRECTION('center_axis',(-1.,0.,0.));
#334=DIRECTION('ref_axis',(0.,0.707106781186547,0.707106781186548));
#335=DIRECTION('',(1.,0.,0.));
#336=DIRECTION('center_axis',(0.,-4.03717463500057E-16,1.));
#337=DIRECTION('ref_axis',(0.,-1.,-4.03717463500057E-16));
#338=DIRECTION('',(0.,-1.,-4.03717463500057E-16));
#339=DIRECTION('center_axis',(0.,1.,4.44089209850063E-16));
#340=DIRECTION('ref_axis',(1.,0.,0.));
#341=DIRECTION('center_axis',(0.,1.,4.44089209850063E-16));
#342=DIRECTION('ref_axis',(1.,0.,0.));
#343=DIRECTION('center_axis',(0.,1.,4.44089209850063E-16));
#344=DIRECTION('ref_axis',(1.,0.,0.));
#345=DIRECTION('center_axis',(0.,1.,4.44089209850063E-16));
#346=DIRECTION('ref_axis',(1.,0.,0.));
#347=DIRECTION('',(0.,-1.,-4.44089209850063E-16));
#348=DIRECTION('center_axis',(0.,1.,4.44089209850063E-16));
#349=DIRECTION('ref_axis',(1.,0.,0.));
#350=DIRECTION('',(0.,-1.,-4.44089209850063E-16));
#351=DIRECTION('center_axis',(1.,0.,0.));
#352=DIRECTION('ref_axis',(0.,0.,-1.));
#353=CARTESIAN_POINT('',(0.,0.,0.));
#354=CARTESIAN_POINT('Origin',(10.,2.26493034048574,4.));
#355=CARTESIAN_POINT('',(10.,1.27181378585951,3.88286969253295));
#356=CARTESIAN_POINT('',(10.,2.26493034048574,5.));
#357=CARTESIAN_POINT('Origin',(10.,2.26493034048574,4.));
#358=CARTESIAN_POINT('',(0.,2.26493034048574,5.));
#359=CARTESIAN_POINT('',(10.,2.26493034048574,5.));
#360=CARTESIAN_POINT('',(0.,1.27181378585951,3.88286969253295));
#361=CARTESIAN_POINT('Origin',(0.,2.26493034048574,4.));
#362=CARTESIAN_POINT('',(10.,1.2718137858595,3.88286969253295));
#363=CARTESIAN_POINT('Origin',(10.,-31.65,0.));
#364=CARTESIAN_POINT('',(0.,1.27181378585951,-3.88286969253294));
#365=CARTESIAN_POINT('Origin',(0.,-31.65,0.));
#366=CARTESIAN_POINT('',(10.,1.27181378585951,-3.88286969253294));
#367=CARTESIAN_POINT('',(10.,1.2718137858595,-3.88286969253294));
#368=CARTESIAN_POINT('Origin',(10.,-31.65,0.));
#369=CARTESIAN_POINT('',(5.,1.47449999622636,-1.3));
#370=CARTESIAN_POINT('',(3.7,1.5,4.7511899446729E-16));
#371=CARTESIAN_POINT('Ctrl Pts',(5.,1.47449999622636,-1.3));
#372=CARTESIAN_POINT('Ctrl Pts',(4.83675113938868,1.47449999622636,-1.3));
#373=CARTESIAN_POINT('Ctrl Pts',(4.66263239561345,1.47583095648959,-1.26737125154104));
#374=CARTESIAN_POINT('Ctrl Pts',(4.34234421419013,1.48064096548221,-1.13469628559484));
#375=CARTESIAN_POINT('Ctrl Pts',(4.19617335976328,1.48405087741942,-1.0346509908483));
#376=CARTESIAN_POINT('Ctrl Pts',(3.96534901836906,1.49045402428549,-0.803826649454083));
#377=CARTESIAN_POINT('Ctrl Pts',(3.86530371700906,1.49386279193544,-0.657655790694119));
#378=CARTESIAN_POINT('Ctrl Pts',(3.73262874450109,1.49867018470881,-0.337367596233698));
#379=CARTESIAN_POINT('Ctrl Pts',(3.7,1.5,-0.163248847573495));
#380=CARTESIAN_POINT('Ctrl Pts',(3.7,1.5,2.42861286636753E-16));
#381=CARTESIAN_POINT('Ctrl Pts',(3.7,1.5,3.46944695195361E-16));
#382=CARTESIAN_POINT('Ctrl Pts',(3.7,1.5,0.163248847573496));
#383=CARTESIAN_POINT('Ctrl Pts',(3.73262874450109,1.49867018470881,0.337367596233699));
#384=CARTESIAN_POINT('Ctrl Pts',(3.86530371700906,1.49386279193544,0.657655790694119));
#385=CARTESIAN_POINT('Ctrl Pts',(3.96534901836906,1.49045402428549,0.803826649454084));
#386=CARTESIAN_POINT('Ctrl Pts',(4.19617335976328,1.48405087741942,1.0346509908483));
#387=CARTESIAN_POINT('Ctrl Pts',(4.34234421419013,1.48064096548221,1.13469628559485));
#388=CARTESIAN_POINT('Ctrl Pts',(4.66263239561345,1.47583095648959,1.26737125154104));
#389=CARTESIAN_POINT('Ctrl Pts',(4.83675113938868,1.47449999622636,1.3));
#390=CARTESIAN_POINT('Ctrl Pts',(5.16324886061132,1.47449999622636,1.3));
#391=CARTESIAN_POINT('Ctrl Pts',(5.33736760438654,1.47583095648959,1.26737125154104));
#392=CARTESIAN_POINT('Ctrl Pts',(5.65765578580986,1.48064096548221,1.13469628559485));
#393=CARTESIAN_POINT('Ctrl Pts',(5.80382664023672,1.48405087741942,1.0346509908483));
#394=CARTESIAN_POINT('Ctrl Pts',(6.03465098163094,1.49045402428549,0.803826649454084));
#395=CARTESIAN_POINT('Ctrl Pts',(6.13469628299094,1.49386279193544,0.657655790694119));
#396=CARTESIAN_POINT('Ctrl Pts',(6.26737125549891,1.49867018470881,0.337367596233699));
#397=CARTESIAN_POINT('Ctrl Pts',(6.3,1.5,0.163248847573496));
#398=CARTESIAN_POINT('Ctrl Pts',(6.3,1.5,-0.163248847573495));
#399=CARTESIAN_POINT('Ctrl Pts',(6.26737125549891,1.49867018470881,-0.337367596233697));
#400=CARTESIAN_POINT('Ctrl Pts',(6.13469628299094,1.49386279193544,-0.657655790694118));
#401=CARTESIAN_POINT('Ctrl Pts',(6.03465098163094,1.49045402428549,-0.803826649454083));
#402=CARTESIAN_POINT('Ctrl Pts',(5.80382664023672,1.48405087741942,-1.0346509908483));
#403=CARTESIAN_POINT('Ctrl Pts',(5.65765578580986,1.48064096548221,-1.13469628559484));
#404=CARTESIAN_POINT('Ctrl Pts',(5.33736760438654,1.47583095648959,-1.26737125154104));
#405=CARTESIAN_POINT('Ctrl Pts',(5.16324886061132,1.47449999622636,-1.3));
#406=CARTESIAN_POINT('Ctrl Pts',(5.,1.47449999622636,-1.3));
#407=CARTESIAN_POINT('Origin',(0.,2.75,1.11022302462516E-15));
#408=CARTESIAN_POINT('',(0.,4.5,5.));
#409=CARTESIAN_POINT('',(0.,5.5,5.));
#410=CARTESIAN_POINT('',(0.,5.5,4.));
#411=CARTESIAN_POINT('Origin',(0.,4.5,4.));
#412=CARTESIAN_POINT('',(0.,5.5,-4.));
#413=CARTESIAN_POINT('',(0.,5.5,-5.));
#414=CARTESIAN_POINT('',(0.,4.5,-5.));
#415=CARTESIAN_POINT('Origin',(0.,4.5,-4.));
#416=CARTESIAN_POINT('',(0.,2.26493034048574,-5.));
#417=CARTESIAN_POINT('',(0.,1.99521600654739E-16,-5.));
#418=CARTESIAN_POINT('Origin',(0.,2.26493034048574,-4.));
#419=CARTESIAN_POINT('Origin',(10.,2.26493034048574,-4.));
#420=CARTESIAN_POINT('',(10.,2.26493034048574,-5.));
#421=CARTESIAN_POINT('',(10.,2.26493034048574,-5.));
#422=CARTESIAN_POINT('Origin',(10.,2.26493034048574,-4.));
#423=CARTESIAN_POINT('Origin',(0.,1.99521600654739E-16,-5.));
#424=CARTESIAN_POINT('',(10.,4.5,-5.));
#425=CARTESIAN_POINT('',(0.,4.5,-5.));
#426=CARTESIAN_POINT('',(10.,1.99521600654739E-16,-5.));
#427=CARTESIAN_POINT('Origin',(0.,4.5,-4.));
#428=CARTESIAN_POINT('',(10.,5.5,-4.));
#429=CARTESIAN_POINT('Origin',(10.,4.5,-4.));
#430=CARTESIAN_POINT('',(0.,5.5,-4.));
#431=CARTESIAN_POINT('Origin',(0.,5.5,-5.));
#432=CARTESIAN_POINT('',(10.,5.5,4.));
#433=CARTESIAN_POINT('',(0.,5.5,4.));
#434=CARTESIAN_POINT('',(10.,5.5,-5.));
#435=CARTESIAN_POINT('',(2.75,5.5,2.49599157905847E-15));
#436=CARTESIAN_POINT('Origin',(5.,5.5,2.22044604925031E-15));
#437=CARTESIAN_POINT('Origin',(0.,4.5,4.));
#438=CARTESIAN_POINT('',(10.,4.5,5.));
#439=CARTESIAN_POINT('Origin',(10.,4.5,4.));
#440=CARTESIAN_POINT('',(0.,4.5,5.));
#441=CARTESIAN_POINT('Origin',(0.,5.5,5.));
#442=CARTESIAN_POINT('',(10.,5.5,5.));
#443=CARTESIAN_POINT('Origin',(5.,4.,1.55431223447522E-15));
#444=CARTESIAN_POINT('',(2.75,4.,1.82985776428337E-15));
#445=CARTESIAN_POINT('Origin',(5.,4.,1.55431223447522E-15));
#446=CARTESIAN_POINT('',(3.7,4.,1.71351631836438E-15));
#447=CARTESIAN_POINT('Origin',(5.,4.,1.55431223447522E-15));
#448=CARTESIAN_POINT('Origin',(5.,4.75,1.88737914186277E-15));
#449=CARTESIAN_POINT('',(2.75,4.75,2.16292467167092E-15));
#450=CARTESIAN_POINT('Origin',(5.,-9.30465369980281,-4.35414091439892E-15));
#451=CARTESIAN_POINT('',(3.7,-9.30465369980281,-4.19493683050977E-15));
#452=CARTESIAN_POINT('Origin',(10.,2.75,1.11022302462516E-15));
#453=UNCERTAINTY_MEASURE_WITH_UNIT(LENGTH_MEASURE(0.01),#457,
'DISTANCE_ACCURACY_VALUE',
'Maximum model space distance between geometric entities at asserted c
onnectivities');
#454=UNCERTAINTY_MEASURE_WITH_UNIT(LENGTH_MEASURE(0.01),#457,
'DISTANCE_ACCURACY_VALUE',
'Maximum model space distance between geometric entities at asserted c
onnectivities');
#455=(
GEOMETRIC_REPRESENTATION_CONTEXT(3)
GLOBAL_UNCERTAINTY_ASSIGNED_CONTEXT((#453))
GLOBAL_UNIT_ASSIGNED_CONTEXT((#457,#459,#460))
REPRESENTATION_CONTEXT('','3D')
);
#456=(
GEOMETRIC_REPRESENTATION_CONTEXT(3)
GLOBAL_UNCERTAINTY_ASSIGNED_CONTEXT((#454))
GLOBAL_UNIT_ASSIGNED_CONTEXT((#457,#459,#460))
REPRESENTATION_CONTEXT('','3D')
);
#457=(
LENGTH_UNIT()
NAMED_UNIT(*)
SI_UNIT(.MILLI.,.METRE.)
);
#458=(
LENGTH_UNIT()
NAMED_UNIT(*)
SI_UNIT(.CENTI.,.METRE.)
);
#459=(
NAMED_UNIT(*)
PLANE_ANGLE_UNIT()
SI_UNIT($,.RADIAN.)
);
#460=(
NAMED_UNIT(*)
SI_UNIT($,.STERADIAN.)
SOLID_ANGLE_UNIT()
);
#461=SHAPE_DEFINITION_REPRESENTATION(#462,#463);
#462=PRODUCT_DEFINITION_SHAPE('',$,#465);
#463=SHAPE_REPRESENTATION('',(#256),#455);
#464=PRODUCT_DEFINITION_CONTEXT('part definition',#469,'design');
#465=PRODUCT_DEFINITION('brush_cart_outer_holder',
'brush_cart_outer_holder',#466,#464);
#466=PRODUCT_DEFINITION_FORMATION('',$,#471);
#467=PRODUCT_RELATED_PRODUCT_CATEGORY('brush_cart_outer_holder',
'brush_cart_outer_holder',(#471));
#468=APPLICATION_PROTOCOL_DEFINITION('international standard',
'automotive_design',2009,#469);
#469=APPLICATION_CONTEXT(
'Core Data for Automotive Mechanical Design Process');
#470=PRODUCT_CONTEXT('part definition',#469,'mechanical');
#471=PRODUCT('brush_cart_outer_holder','brush_cart_outer_holder',$,(#470));
#472=PRESENTATION_STYLE_ASSIGNMENT((#473));
#473=SURFACE_STYLE_USAGE(.BOTH.,#476);
#474=SURFACE_STYLE_RENDERING_WITH_PROPERTIES($,#480,(#475));
#475=SURFACE_STYLE_TRANSPARENT(0.);
#476=SURFACE_SIDE_STYLE('',(#477,#474));
#477=SURFACE_STYLE_FILL_AREA(#478);
#478=FILL_AREA_STYLE('',(#479));
#479=FILL_AREA_STYLE_COLOUR('',#480);
#480=COLOUR_RGB('',0.32156862745098,0.411764705882353,0.168627450980392);
ENDSEC;
END-ISO-10303-21;
