ISO-10303-21;
HEADER;
/* Generated by software containing ST-Developer
 * from STEP Tools, Inc. (www.steptools.com) 
 */

FILE_DESCRIPTION(
/* description */ (''),
/* implementation_level */ '2;1');

FILE_NAME(
/* name */ 'commutator_plastic.stp',
/* time_stamp */ '2026-08-21T21:23:42+02:00',
/* author */ ('zzapa'),
/* organization */ (''),
/* preprocessor_version */ 'ST-DEVELOPER v20',
/* originating_system */ 'Autodesk Inventor 2025',
/* authorisation */ '');

FILE_SCHEMA (('AUTOMOTIVE_DESIGN { 1 0 10303 214 3 1 1 }'));
ENDSEC;

DATA;
#10=MECHANICAL_DESIGN_GEOMETRIC_PRESENTATION_REPRESENTATION('',(#13),#1412);
#11=SHAPE_REPRESENTATION_RELATIONSHIP('SRR','None',#1419,#12);
#12=ADVANCED_BREP_SHAPE_REPRESENTATION('',(#14),#1411);
#13=STYLED_ITEM('',(#1428),#14);
#14=MANIFOLD_SOLID_BREP('Bry\X2\0142\X0\a1',#733);
#15=FACE_BOUND('',#127,.T.);
#16=FACE_BOUND('',#128,.T.);
#17=FACE_BOUND('',#129,.T.);
#18=FACE_BOUND('',#130,.T.);
#19=FACE_BOUND('',#131,.T.);
#20=FACE_BOUND('',#132,.T.);
#21=FACE_BOUND('',#137,.T.);
#22=FACE_BOUND('',#140,.T.);
#23=FACE_BOUND('',#143,.T.);
#24=FACE_BOUND('',#146,.T.);
#25=FACE_BOUND('',#149,.T.);
#26=FACE_BOUND('',#152,.T.);
#27=FACE_BOUND('',#155,.T.);
#28=FACE_BOUND('',#158,.T.);
#29=FACE_BOUND('',#160,.T.);
#30=FACE_BOUND('',#163,.T.);
#31=CIRCLE('',#777,1.45);
#32=CIRCLE('',#779,1.45);
#33=CIRCLE('',#781,1.45);
#34=CIRCLE('',#783,1.45);
#35=CIRCLE('',#785,1.45);
#36=CIRCLE('',#787,4.05);
#37=CIRCLE('',#788,4.05);
#38=CIRCLE('',#794,1.45);
#39=CIRCLE('',#796,11.15);
#40=CIRCLE('',#797,10.);
#41=CIRCLE('',#799,11.9);
#42=CIRCLE('',#800,11.9);
#43=CIRCLE('',#802,11.15);
#44=CIRCLE('',#806,10.);
#45=CIRCLE('',#809,10.);
#46=CIRCLE('',#812,10.);
#47=CIRCLE('',#815,10.);
#48=CIRCLE('',#818,10.);
#49=CIRCLE('',#821,10.);
#50=CIRCLE('',#822,10.);
#51=CIRCLE('',#823,10.);
#52=CIRCLE('',#824,10.);
#53=CIRCLE('',#825,10.);
#54=CIRCLE('',#826,10.);
#55=CIRCLE('',#827,10.);
#56=CIRCLE('',#829,10.);
#57=B_SPLINE_CURVE_WITH_KNOTS('',3,(#1121,#1122,#1123,#1124,#1125,#1126,
#1127,#1128,#1129,#1130,#1131,#1132,#1133,#1134,#1135,#1136,#1137,#1138,
#1139,#1140,#1141,#1142,#1143,#1144,#1145,#1146,#1147),.UNSPECIFIED.,.F.,
 .F.,(4,2,2,2,2,2,2,2,2,2,3,2,4),(-0.551570538823327,-0.496399623453191,
-0.441228708083055,-0.386057792712919,-0.330886877342782,-0.275750615692155,
-0.220614354041527,-0.1654780923909,-0.110341830740273,-0.0551709153701363,
0.,0.0551709153701362,0.110341830740272),.UNSPECIFIED.);
#58=B_SPLINE_CURVE_WITH_KNOTS('',3,(#1150,#1151,#1152,#1153,#1154,#1155,
#1156,#1157,#1158,#1159,#1160,#1161,#1162,#1163,#1164,#1165,#1166,#1167,
#1168,#1169,#1170,#1171,#1172,#1173,#1174,#1175,#1176),.UNSPECIFIED.,.F.,
 .F.,(4,2,2,2,2,2,2,2,2,2,3,2,4),(-0.551570538823327,-0.496399623453191,
-0.441228708083055,-0.386057792712919,-0.330886877342782,-0.275750615692155,
-0.220614354041527,-0.1654780923909,-0.110341830740272,-0.0551709153701361,
0.,0.0551709153701363,0.110341830740272),.UNSPECIFIED.);
#59=B_SPLINE_CURVE_WITH_KNOTS('',3,(#1179,#1180,#1181,#1182,#1183,#1184,
#1185,#1186,#1187,#1188,#1189,#1190,#1191,#1192,#1193,#1194,#1195,#1196,
#1197,#1198,#1199,#1200,#1201,#1202,#1203,#1204,#1205),.UNSPECIFIED.,.F.,
 .F.,(4,2,2,2,2,2,2,2,2,2,3,2,4),(-0.551570538823328,-0.496399623453192,
-0.441228708083056,-0.38605779271292,-0.330886877342783,-0.275750615692156,
-0.220614354041528,-0.165478092390901,-0.110341830740273,-0.0551709153701367,
-2.22044604925031E-16,0.0551709153701359,0.110341830740272),
 .UNSPECIFIED.);
#60=B_SPLINE_CURVE_WITH_KNOTS('',3,(#1208,#1209,#1210,#1211,#1212,#1213,
#1214,#1215,#1216,#1217,#1218,#1219,#1220,#1221,#1222,#1223,#1224,#1225,
#1226,#1227,#1228,#1229,#1230,#1231,#1232,#1233,#1234),.UNSPECIFIED.,.F.,
 .F.,(4,2,3,2,2,2,2,2,2,2,2,2,4),(-0.110341830740271,-0.0551709153701348,
1.41553435639707E-15,0.0551709153701378,0.110341830740274,0.165478092390902,
0.220614354041529,0.275750615692157,0.330886877342784,0.386057792712921,
0.441228708083057,0.496399623453193,0.551570538823329),.UNSPECIFIED.);
#61=B_SPLINE_CURVE_WITH_KNOTS('',3,(#1237,#1238,#1239,#1240,#1241,#1242,
#1243,#1244,#1245,#1246,#1247,#1248,#1249,#1250,#1251,#1252,#1253,#1254,
#1255,#1256,#1257,#1258,#1259,#1260,#1261,#1262,#1263),.UNSPECIFIED.,.F.,
 .F.,(4,2,2,2,2,2,2,2,2,2,3,2,4),(-0.551570538823327,-0.496399623453191,
-0.441228708083055,-0.386057792712919,-0.330886877342782,-0.275750615692155,
-0.220614354041527,-0.1654780923909,-0.110341830740272,-0.0551709153701361,
0.,0.0551709153701363,0.110341830740273),.UNSPECIFIED.);
#62=B_SPLINE_CURVE_WITH_KNOTS('',3,(#1276,#1277,#1278,#1279,#1280,#1281,
#1282,#1283,#1284,#1285,#1286,#1287,#1288,#1289,#1290,#1291,#1292,#1293,
#1294,#1295,#1296,#1297,#1298,#1299,#1300,#1301,#1302),.UNSPECIFIED.,.F.,
 .F.,(4,2,2,2,2,2,2,2,2,2,3,2,4),(-0.551570538823327,-0.496399623453191,
-0.441228708083055,-0.386057792712919,-0.330886877342782,-0.275750615692155,
-0.220614354041527,-0.1654780923909,-0.110341830740273,-0.0551709153701363,
0.,0.0551709153701361,0.110341830740272),.UNSPECIFIED.);
#63=CYLINDRICAL_SURFACE('',#776,1.45);
#64=CYLINDRICAL_SURFACE('',#778,1.45);
#65=CYLINDRICAL_SURFACE('',#780,1.45);
#66=CYLINDRICAL_SURFACE('',#782,1.45);
#67=CYLINDRICAL_SURFACE('',#784,1.45);
#68=CYLINDRICAL_SURFACE('',#786,4.05);
#69=CYLINDRICAL_SURFACE('',#793,1.45);
#70=CYLINDRICAL_SURFACE('',#798,11.9);
#71=CYLINDRICAL_SURFACE('',#803,11.15);
#72=CYLINDRICAL_SURFACE('',#831,10.);
#73=FACE_OUTER_BOUND('',#111,.T.);
#74=FACE_OUTER_BOUND('',#112,.T.);
#75=FACE_OUTER_BOUND('',#113,.T.);
#76=FACE_OUTER_BOUND('',#114,.T.);
#77=FACE_OUTER_BOUND('',#115,.T.);
#78=FACE_OUTER_BOUND('',#116,.T.);
#79=FACE_OUTER_BOUND('',#117,.T.);
#80=FACE_OUTER_BOUND('',#118,.T.);
#81=FACE_OUTER_BOUND('',#119,.T.);
#82=FACE_OUTER_BOUND('',#120,.T.);
#83=FACE_OUTER_BOUND('',#121,.T.);
#84=FACE_OUTER_BOUND('',#122,.T.);
#85=FACE_OUTER_BOUND('',#123,.T.);
#86=FACE_OUTER_BOUND('',#124,.T.);
#87=FACE_OUTER_BOUND('',#125,.T.);
#88=FACE_OUTER_BOUND('',#126,.T.);
#89=FACE_OUTER_BOUND('',#133,.T.);
#90=FACE_OUTER_BOUND('',#134,.T.);
#91=FACE_OUTER_BOUND('',#135,.T.);
#92=FACE_OUTER_BOUND('',#136,.T.);
#93=FACE_OUTER_BOUND('',#138,.T.);
#94=FACE_OUTER_BOUND('',#139,.T.);
#95=FACE_OUTER_BOUND('',#141,.T.);
#96=FACE_OUTER_BOUND('',#142,.T.);
#97=FACE_OUTER_BOUND('',#144,.T.);
#98=FACE_OUTER_BOUND('',#145,.T.);
#99=FACE_OUTER_BOUND('',#147,.T.);
#100=FACE_OUTER_BOUND('',#148,.T.);
#101=FACE_OUTER_BOUND('',#150,.T.);
#102=FACE_OUTER_BOUND('',#151,.T.);
#103=FACE_OUTER_BOUND('',#153,.T.);
#104=FACE_OUTER_BOUND('',#154,.T.);
#105=FACE_OUTER_BOUND('',#156,.T.);
#106=FACE_OUTER_BOUND('',#157,.T.);
#107=FACE_OUTER_BOUND('',#159,.T.);
#108=FACE_OUTER_BOUND('',#161,.T.);
#109=FACE_OUTER_BOUND('',#162,.T.);
#110=FACE_OUTER_BOUND('',#164,.T.);
#111=EDGE_LOOP('',(#463,#464,#465,#466));
#112=EDGE_LOOP('',(#467,#468,#469,#470));
#113=EDGE_LOOP('',(#471,#472,#473,#474));
#114=EDGE_LOOP('',(#475,#476,#477,#478));
#115=EDGE_LOOP('',(#479,#480,#481,#482));
#116=EDGE_LOOP('',(#483,#484,#485,#486));
#117=EDGE_LOOP('',(#487,#488,#489,#490));
#118=EDGE_LOOP('',(#491,#492,#493,#494));
#119=EDGE_LOOP('',(#495,#496,#497,#498));
#120=EDGE_LOOP('',(#499,#500,#501,#502));
#121=EDGE_LOOP('',(#503,#504,#505,#506));
#122=EDGE_LOOP('',(#507,#508,#509,#510));
#123=EDGE_LOOP('',(#511,#512,#513,#514));
#124=EDGE_LOOP('',(#515,#516,#517,#518));
#125=EDGE_LOOP('',(#519,#520,#521,#522));
#126=EDGE_LOOP('',(#523,#524,#525,#526));
#127=EDGE_LOOP('',(#527,#528,#529));
#128=EDGE_LOOP('',(#530,#531,#532));
#129=EDGE_LOOP('',(#533,#534,#535));
#130=EDGE_LOOP('',(#536,#537,#538));
#131=EDGE_LOOP('',(#539,#540,#541));
#132=EDGE_LOOP('',(#542,#543,#544));
#133=EDGE_LOOP('',(#545,#546,#547,#548));
#134=EDGE_LOOP('',(#549,#550,#551,#552));
#135=EDGE_LOOP('',(#553,#554,#555,#556));
#136=EDGE_LOOP('',(#557));
#137=EDGE_LOOP('',(#558));
#138=EDGE_LOOP('',(#559,#560,#561,#562));
#139=EDGE_LOOP('',(#563));
#140=EDGE_LOOP('',(#564));
#141=EDGE_LOOP('',(#565,#566,#567,#568));
#142=EDGE_LOOP('',(#569));
#143=EDGE_LOOP('',(#570));
#144=EDGE_LOOP('',(#571,#572));
#145=EDGE_LOOP('',(#573,#574,#575,#576));
#146=EDGE_LOOP('',(#577,#578,#579));
#147=EDGE_LOOP('',(#580,#581));
#148=EDGE_LOOP('',(#582,#583,#584,#585));
#149=EDGE_LOOP('',(#586,#587,#588));
#150=EDGE_LOOP('',(#589,#590));
#151=EDGE_LOOP('',(#591,#592,#593,#594));
#152=EDGE_LOOP('',(#595,#596,#597));
#153=EDGE_LOOP('',(#598,#599));
#154=EDGE_LOOP('',(#600,#601,#602,#603));
#155=EDGE_LOOP('',(#604,#605,#606));
#156=EDGE_LOOP('',(#607,#608));
#157=EDGE_LOOP('',(#609,#610,#611,#612));
#158=EDGE_LOOP('',(#613,#614,#615));
#159=EDGE_LOOP('',(#616,#617,#618,#619,#620,#621,#622,#623,#624,#625,#626,
#627,#628));
#160=EDGE_LOOP('',(#629));
#161=EDGE_LOOP('',(#630,#631));
#162=EDGE_LOOP('',(#632,#633,#634,#635));
#163=EDGE_LOOP('',(#636,#637,#638));
#164=EDGE_LOOP('',(#639,#640,#641,#642,#643,#644,#645,#646,#647,#648,#649,
#650,#651,#652,#653,#654,#655,#656,#657,#658,#659,#660,#661,#662,#663,#664,
#665,#666));
#165=LINE('',#1050,#223);
#166=LINE('',#1052,#224);
#167=LINE('',#1053,#225);
#168=LINE('',#1058,#226);
#169=LINE('',#1059,#227);
#170=LINE('',#1065,#228);
#171=LINE('',#1067,#229);
#172=LINE('',#1068,#230);
#173=LINE('',#1073,#231);
#174=LINE('',#1074,#232);
#175=LINE('',#1080,#233);
#176=LINE('',#1082,#234);
#177=LINE('',#1083,#235);
#178=LINE('',#1088,#236);
#179=LINE('',#1089,#237);
#180=LINE('',#1095,#238);
#181=LINE('',#1097,#239);
#182=LINE('',#1098,#240);
#183=LINE('',#1103,#241);
#184=LINE('',#1104,#242);
#185=LINE('',#1110,#243);
#186=LINE('',#1112,#244);
#187=LINE('',#1113,#245);
#188=LINE('',#1118,#246);
#189=LINE('',#1119,#247);
#190=LINE('',#1269,#248);
#191=LINE('',#1305,#249);
#192=LINE('',#1307,#250);
#193=LINE('',#1308,#251);
#194=LINE('',#1311,#252);
#195=LINE('',#1312,#253);
#196=LINE('',#1324,#254);
#197=LINE('',#1330,#255);
#198=LINE('',#1336,#256);
#199=LINE('',#1339,#257);
#200=LINE('',#1341,#258);
#201=LINE('',#1342,#259);
#202=LINE('',#1347,#260);
#203=LINE('',#1350,#261);
#204=LINE('',#1352,#262);
#205=LINE('',#1353,#263);
#206=LINE('',#1358,#264);
#207=LINE('',#1361,#265);
#208=LINE('',#1363,#266);
#209=LINE('',#1364,#267);
#210=LINE('',#1369,#268);
#211=LINE('',#1372,#269);
#212=LINE('',#1374,#270);
#213=LINE('',#1375,#271);
#214=LINE('',#1380,#272);
#215=LINE('',#1383,#273);
#216=LINE('',#1385,#274);
#217=LINE('',#1386,#275);
#218=LINE('',#1391,#276);
#219=LINE('',#1403,#277);
#220=LINE('',#1405,#278);
#221=LINE('',#1406,#279);
#222=LINE('',#1408,#280);
#223=VECTOR('',#838,10.);
#224=VECTOR('',#839,10.);
#225=VECTOR('',#840,10.);
#226=VECTOR('',#845,10.);
#227=VECTOR('',#846,10.);
#228=VECTOR('',#851,10.);
#229=VECTOR('',#852,10.);
#230=VECTOR('',#853,10.);
#231=VECTOR('',#858,10.);
#232=VECTOR('',#859,10.);
#233=VECTOR('',#864,10.);
#234=VECTOR('',#865,10.);
#235=VECTOR('',#866,10.);
#236=VECTOR('',#871,10.);
#237=VECTOR('',#872,10.);
#238=VECTOR('',#877,10.);
#239=VECTOR('',#878,10.);
#240=VECTOR('',#879,10.);
#241=VECTOR('',#884,10.);
#242=VECTOR('',#885,10.);
#243=VECTOR('',#890,10.);
#244=VECTOR('',#891,10.);
#245=VECTOR('',#892,10.);
#246=VECTOR('',#897,10.);
#247=VECTOR('',#898,10.);
#248=VECTOR('',#923,4.05);
#249=VECTOR('',#932,10.);
#250=VECTOR('',#933,10.);
#251=VECTOR('',#934,10.);
#252=VECTOR('',#937,10.);
#253=VECTOR('',#938,10.);
#254=VECTOR('',#953,11.9);
#255=VECTOR('',#962,11.15);
#256=VECTOR('',#969,10.);
#257=VECTOR('',#972,10.);
#258=VECTOR('',#973,10.);
#259=VECTOR('',#974,10.);
#260=VECTOR('',#979,10.);
#261=VECTOR('',#982,10.);
#262=VECTOR('',#983,10.);
#263=VECTOR('',#984,10.);
#264=VECTOR('',#989,10.);
#265=VECTOR('',#992,10.);
#266=VECTOR('',#993,10.);
#267=VECTOR('',#994,10.);
#268=VECTOR('',#999,10.);
#269=VECTOR('',#1002,10.);
#270=VECTOR('',#1003,10.);
#271=VECTOR('',#1004,10.);
#272=VECTOR('',#1009,10.);
#273=VECTOR('',#1012,10.);
#274=VECTOR('',#1013,10.);
#275=VECTOR('',#1014,10.);
#276=VECTOR('',#1019,10.);
#277=VECTOR('',#1036,10.);
#278=VECTOR('',#1039,10.);
#279=VECTOR('',#1040,10.);
#280=VECTOR('',#1043,10.);
#281=ELLIPSE('',#757,5.727564927611,4.05);
#282=ELLIPSE('',#759,5.72756492761106,4.05);
#283=ELLIPSE('',#761,5.727564927611,4.05);
#284=ELLIPSE('',#763,5.72756492761106,4.05);
#285=ELLIPSE('',#765,5.727564927611,4.05);
#286=ELLIPSE('',#767,5.72756492761106,4.05);
#287=ELLIPSE('',#769,5.727564927611,4.05);
#288=ELLIPSE('',#771,5.72756492761106,4.05);
#289=ELLIPSE('',#773,5.727564927611,4.05);
#290=ELLIPSE('',#775,5.72756492761106,4.05);
#291=ELLIPSE('',#789,5.72756492761106,4.05);
#292=ELLIPSE('',#790,5.727564927611,4.05);
#293=VERTEX_POINT('',#1046);
#294=VERTEX_POINT('',#1047);
#295=VERTEX_POINT('',#1049);
#296=VERTEX_POINT('',#1051);
#297=VERTEX_POINT('',#1055);
#298=VERTEX_POINT('',#1057);
#299=VERTEX_POINT('',#1061);
#300=VERTEX_POINT('',#1062);
#301=VERTEX_POINT('',#1064);
#302=VERTEX_POINT('',#1066);
#303=VERTEX_POINT('',#1070);
#304=VERTEX_POINT('',#1072);
#305=VERTEX_POINT('',#1076);
#306=VERTEX_POINT('',#1077);
#307=VERTEX_POINT('',#1079);
#308=VERTEX_POINT('',#1081);
#309=VERTEX_POINT('',#1085);
#310=VERTEX_POINT('',#1087);
#311=VERTEX_POINT('',#1091);
#312=VERTEX_POINT('',#1092);
#313=VERTEX_POINT('',#1094);
#314=VERTEX_POINT('',#1096);
#315=VERTEX_POINT('',#1100);
#316=VERTEX_POINT('',#1102);
#317=VERTEX_POINT('',#1106);
#318=VERTEX_POINT('',#1107);
#319=VERTEX_POINT('',#1109);
#320=VERTEX_POINT('',#1111);
#321=VERTEX_POINT('',#1115);
#322=VERTEX_POINT('',#1117);
#323=VERTEX_POINT('',#1266);
#324=VERTEX_POINT('',#1268);
#325=VERTEX_POINT('',#1271);
#326=VERTEX_POINT('',#1272);
#327=VERTEX_POINT('',#1274);
#328=VERTEX_POINT('',#1304);
#329=VERTEX_POINT('',#1306);
#330=VERTEX_POINT('',#1310);
#331=VERTEX_POINT('',#1316);
#332=VERTEX_POINT('',#1318);
#333=VERTEX_POINT('',#1321);
#334=VERTEX_POINT('',#1323);
#335=VERTEX_POINT('',#1327);
#336=VERTEX_POINT('',#1333);
#337=VERTEX_POINT('',#1334);
#338=VERTEX_POINT('',#1338);
#339=VERTEX_POINT('',#1340);
#340=VERTEX_POINT('',#1344);
#341=VERTEX_POINT('',#1345);
#342=VERTEX_POINT('',#1349);
#343=VERTEX_POINT('',#1351);
#344=VERTEX_POINT('',#1355);
#345=VERTEX_POINT('',#1356);
#346=VERTEX_POINT('',#1360);
#347=VERTEX_POINT('',#1362);
#348=VERTEX_POINT('',#1366);
#349=VERTEX_POINT('',#1367);
#350=VERTEX_POINT('',#1371);
#351=VERTEX_POINT('',#1373);
#352=VERTEX_POINT('',#1377);
#353=VERTEX_POINT('',#1378);
#354=VERTEX_POINT('',#1382);
#355=VERTEX_POINT('',#1384);
#356=VERTEX_POINT('',#1388);
#357=VERTEX_POINT('',#1390);
#358=VERTEX_POINT('',#1396);
#359=VERTEX_POINT('',#1400);
#360=VERTEX_POINT('',#1401);
#361=EDGE_CURVE('',#293,#294,#281,.T.);
#362=EDGE_CURVE('',#295,#293,#165,.T.);
#363=EDGE_CURVE('',#296,#295,#166,.T.);
#364=EDGE_CURVE('',#296,#294,#167,.T.);
#365=EDGE_CURVE('',#297,#293,#282,.T.);
#366=EDGE_CURVE('',#298,#297,#168,.T.);
#367=EDGE_CURVE('',#295,#298,#169,.T.);
#368=EDGE_CURVE('',#299,#300,#283,.T.);
#369=EDGE_CURVE('',#301,#299,#170,.T.);
#370=EDGE_CURVE('',#302,#301,#171,.T.);
#371=EDGE_CURVE('',#302,#300,#172,.T.);
#372=EDGE_CURVE('',#303,#299,#284,.T.);
#373=EDGE_CURVE('',#304,#303,#173,.T.);
#374=EDGE_CURVE('',#301,#304,#174,.T.);
#375=EDGE_CURVE('',#305,#306,#285,.T.);
#376=EDGE_CURVE('',#307,#305,#175,.T.);
#377=EDGE_CURVE('',#308,#307,#176,.T.);
#378=EDGE_CURVE('',#308,#306,#177,.T.);
#379=EDGE_CURVE('',#309,#305,#286,.T.);
#380=EDGE_CURVE('',#310,#309,#178,.T.);
#381=EDGE_CURVE('',#307,#310,#179,.T.);
#382=EDGE_CURVE('',#311,#312,#287,.T.);
#383=EDGE_CURVE('',#313,#311,#180,.T.);
#384=EDGE_CURVE('',#314,#313,#181,.T.);
#385=EDGE_CURVE('',#312,#314,#182,.T.);
#386=EDGE_CURVE('',#315,#311,#288,.T.);
#387=EDGE_CURVE('',#315,#316,#183,.T.);
#388=EDGE_CURVE('',#313,#316,#184,.T.);
#389=EDGE_CURVE('',#317,#318,#289,.T.);
#390=EDGE_CURVE('',#319,#317,#185,.T.);
#391=EDGE_CURVE('',#320,#319,#186,.T.);
#392=EDGE_CURVE('',#320,#318,#187,.T.);
#393=EDGE_CURVE('',#321,#317,#290,.T.);
#394=EDGE_CURVE('',#322,#321,#188,.T.);
#395=EDGE_CURVE('',#319,#322,#189,.T.);
#396=EDGE_CURVE('',#294,#297,#57,.T.);
#397=EDGE_CURVE('',#298,#296,#31,.T.);
#398=EDGE_CURVE('',#300,#303,#58,.T.);
#399=EDGE_CURVE('',#304,#302,#32,.T.);
#400=EDGE_CURVE('',#306,#309,#59,.T.);
#401=EDGE_CURVE('',#310,#308,#33,.T.);
#402=EDGE_CURVE('',#312,#315,#60,.T.);
#403=EDGE_CURVE('',#316,#314,#34,.T.);
#404=EDGE_CURVE('',#318,#321,#61,.T.);
#405=EDGE_CURVE('',#322,#320,#35,.T.);
#406=EDGE_CURVE('',#323,#323,#36,.T.);
#407=EDGE_CURVE('',#323,#324,#190,.T.);
#408=EDGE_CURVE('',#324,#324,#37,.T.);
#409=EDGE_CURVE('',#325,#326,#291,.T.);
#410=EDGE_CURVE('',#326,#327,#292,.T.);
#411=EDGE_CURVE('',#327,#325,#62,.T.);
#412=EDGE_CURVE('',#328,#326,#191,.T.);
#413=EDGE_CURVE('',#329,#328,#192,.T.);
#414=EDGE_CURVE('',#329,#327,#193,.T.);
#415=EDGE_CURVE('',#330,#325,#194,.T.);
#416=EDGE_CURVE('',#328,#330,#195,.T.);
#417=EDGE_CURVE('',#330,#329,#38,.T.);
#418=EDGE_CURVE('',#331,#331,#39,.T.);
#419=EDGE_CURVE('',#332,#332,#40,.T.);
#420=EDGE_CURVE('',#333,#333,#41,.T.);
#421=EDGE_CURVE('',#333,#334,#196,.T.);
#422=EDGE_CURVE('',#334,#334,#42,.T.);
#423=EDGE_CURVE('',#335,#335,#43,.T.);
#424=EDGE_CURVE('',#335,#331,#197,.T.);
#425=EDGE_CURVE('',#336,#337,#44,.T.);
#426=EDGE_CURVE('',#337,#336,#198,.T.);
#427=EDGE_CURVE('',#338,#336,#199,.T.);
#428=EDGE_CURVE('',#339,#338,#200,.T.);
#429=EDGE_CURVE('',#337,#339,#201,.T.);
#430=EDGE_CURVE('',#340,#341,#45,.T.);
#431=EDGE_CURVE('',#341,#340,#202,.T.);
#432=EDGE_CURVE('',#342,#340,#203,.T.);
#433=EDGE_CURVE('',#343,#342,#204,.T.);
#434=EDGE_CURVE('',#341,#343,#205,.T.);
#435=EDGE_CURVE('',#344,#345,#46,.T.);
#436=EDGE_CURVE('',#345,#344,#206,.T.);
#437=EDGE_CURVE('',#346,#344,#207,.T.);
#438=EDGE_CURVE('',#347,#346,#208,.T.);
#439=EDGE_CURVE('',#345,#347,#209,.T.);
#440=EDGE_CURVE('',#348,#349,#47,.T.);
#441=EDGE_CURVE('',#349,#348,#210,.T.);
#442=EDGE_CURVE('',#350,#348,#211,.T.);
#443=EDGE_CURVE('',#351,#350,#212,.T.);
#444=EDGE_CURVE('',#349,#351,#213,.T.);
#445=EDGE_CURVE('',#352,#353,#48,.T.);
#446=EDGE_CURVE('',#353,#352,#214,.T.);
#447=EDGE_CURVE('',#354,#352,#215,.T.);
#448=EDGE_CURVE('',#355,#354,#216,.T.);
#449=EDGE_CURVE('',#353,#355,#217,.T.);
#450=EDGE_CURVE('',#338,#356,#49,.T.);
#451=EDGE_CURVE('',#356,#357,#218,.T.);
#452=EDGE_CURVE('',#357,#355,#50,.T.);
#453=EDGE_CURVE('',#354,#351,#51,.T.);
#454=EDGE_CURVE('',#350,#347,#52,.T.);
#455=EDGE_CURVE('',#346,#343,#53,.T.);
#456=EDGE_CURVE('',#342,#358,#54,.T.);
#457=EDGE_CURVE('',#358,#339,#55,.T.);
#458=EDGE_CURVE('',#359,#360,#56,.T.);
#459=EDGE_CURVE('',#360,#359,#219,.T.);
#460=EDGE_CURVE('',#357,#359,#220,.T.);
#461=EDGE_CURVE('',#360,#356,#221,.T.);
#462=EDGE_CURVE('',#358,#332,#222,.T.);
#463=ORIENTED_EDGE('',*,*,#361,.F.);
#464=ORIENTED_EDGE('',*,*,#362,.F.);
#465=ORIENTED_EDGE('',*,*,#363,.F.);
#466=ORIENTED_EDGE('',*,*,#364,.T.);
#467=ORIENTED_EDGE('',*,*,#365,.F.);
#468=ORIENTED_EDGE('',*,*,#366,.F.);
#469=ORIENTED_EDGE('',*,*,#367,.F.);
#470=ORIENTED_EDGE('',*,*,#362,.T.);
#471=ORIENTED_EDGE('',*,*,#368,.F.);
#472=ORIENTED_EDGE('',*,*,#369,.F.);
#473=ORIENTED_EDGE('',*,*,#370,.F.);
#474=ORIENTED_EDGE('',*,*,#371,.T.);
#475=ORIENTED_EDGE('',*,*,#372,.F.);
#476=ORIENTED_EDGE('',*,*,#373,.F.);
#477=ORIENTED_EDGE('',*,*,#374,.F.);
#478=ORIENTED_EDGE('',*,*,#369,.T.);
#479=ORIENTED_EDGE('',*,*,#375,.F.);
#480=ORIENTED_EDGE('',*,*,#376,.F.);
#481=ORIENTED_EDGE('',*,*,#377,.F.);
#482=ORIENTED_EDGE('',*,*,#378,.T.);
#483=ORIENTED_EDGE('',*,*,#379,.F.);
#484=ORIENTED_EDGE('',*,*,#380,.F.);
#485=ORIENTED_EDGE('',*,*,#381,.F.);
#486=ORIENTED_EDGE('',*,*,#376,.T.);
#487=ORIENTED_EDGE('',*,*,#382,.F.);
#488=ORIENTED_EDGE('',*,*,#383,.F.);
#489=ORIENTED_EDGE('',*,*,#384,.F.);
#490=ORIENTED_EDGE('',*,*,#385,.F.);
#491=ORIENTED_EDGE('',*,*,#386,.F.);
#492=ORIENTED_EDGE('',*,*,#387,.T.);
#493=ORIENTED_EDGE('',*,*,#388,.F.);
#494=ORIENTED_EDGE('',*,*,#383,.T.);
#495=ORIENTED_EDGE('',*,*,#389,.F.);
#496=ORIENTED_EDGE('',*,*,#390,.F.);
#497=ORIENTED_EDGE('',*,*,#391,.F.);
#498=ORIENTED_EDGE('',*,*,#392,.T.);
#499=ORIENTED_EDGE('',*,*,#393,.F.);
#500=ORIENTED_EDGE('',*,*,#394,.F.);
#501=ORIENTED_EDGE('',*,*,#395,.F.);
#502=ORIENTED_EDGE('',*,*,#390,.T.);
#503=ORIENTED_EDGE('',*,*,#366,.T.);
#504=ORIENTED_EDGE('',*,*,#396,.F.);
#505=ORIENTED_EDGE('',*,*,#364,.F.);
#506=ORIENTED_EDGE('',*,*,#397,.F.);
#507=ORIENTED_EDGE('',*,*,#373,.T.);
#508=ORIENTED_EDGE('',*,*,#398,.F.);
#509=ORIENTED_EDGE('',*,*,#371,.F.);
#510=ORIENTED_EDGE('',*,*,#399,.F.);
#511=ORIENTED_EDGE('',*,*,#380,.T.);
#512=ORIENTED_EDGE('',*,*,#400,.F.);
#513=ORIENTED_EDGE('',*,*,#378,.F.);
#514=ORIENTED_EDGE('',*,*,#401,.F.);
#515=ORIENTED_EDGE('',*,*,#387,.F.);
#516=ORIENTED_EDGE('',*,*,#402,.F.);
#517=ORIENTED_EDGE('',*,*,#385,.T.);
#518=ORIENTED_EDGE('',*,*,#403,.F.);
#519=ORIENTED_EDGE('',*,*,#394,.T.);
#520=ORIENTED_EDGE('',*,*,#404,.F.);
#521=ORIENTED_EDGE('',*,*,#392,.F.);
#522=ORIENTED_EDGE('',*,*,#405,.F.);
#523=ORIENTED_EDGE('',*,*,#406,.F.);
#524=ORIENTED_EDGE('',*,*,#407,.T.);
#525=ORIENTED_EDGE('',*,*,#408,.F.);
#526=ORIENTED_EDGE('',*,*,#407,.F.);
#527=ORIENTED_EDGE('',*,*,#379,.T.);
#528=ORIENTED_EDGE('',*,*,#375,.T.);
#529=ORIENTED_EDGE('',*,*,#400,.T.);
#530=ORIENTED_EDGE('',*,*,#365,.T.);
#531=ORIENTED_EDGE('',*,*,#361,.T.);
#532=ORIENTED_EDGE('',*,*,#396,.T.);
#533=ORIENTED_EDGE('',*,*,#386,.T.);
#534=ORIENTED_EDGE('',*,*,#382,.T.);
#535=ORIENTED_EDGE('',*,*,#402,.T.);
#536=ORIENTED_EDGE('',*,*,#393,.T.);
#537=ORIENTED_EDGE('',*,*,#389,.T.);
#538=ORIENTED_EDGE('',*,*,#404,.T.);
#539=ORIENTED_EDGE('',*,*,#409,.T.);
#540=ORIENTED_EDGE('',*,*,#410,.T.);
#541=ORIENTED_EDGE('',*,*,#411,.T.);
#542=ORIENTED_EDGE('',*,*,#372,.T.);
#543=ORIENTED_EDGE('',*,*,#368,.T.);
#544=ORIENTED_EDGE('',*,*,#398,.T.);
#545=ORIENTED_EDGE('',*,*,#410,.F.);
#546=ORIENTED_EDGE('',*,*,#412,.F.);
#547=ORIENTED_EDGE('',*,*,#413,.F.);
#548=ORIENTED_EDGE('',*,*,#414,.T.);
#549=ORIENTED_EDGE('',*,*,#409,.F.);
#550=ORIENTED_EDGE('',*,*,#415,.F.);
#551=ORIENTED_EDGE('',*,*,#416,.F.);
#552=ORIENTED_EDGE('',*,*,#412,.T.);
#553=ORIENTED_EDGE('',*,*,#415,.T.);
#554=ORIENTED_EDGE('',*,*,#411,.F.);
#555=ORIENTED_EDGE('',*,*,#414,.F.);
#556=ORIENTED_EDGE('',*,*,#417,.F.);
#557=ORIENTED_EDGE('',*,*,#418,.T.);
#558=ORIENTED_EDGE('',*,*,#419,.F.);
#559=ORIENTED_EDGE('',*,*,#420,.F.);
#560=ORIENTED_EDGE('',*,*,#421,.T.);
#561=ORIENTED_EDGE('',*,*,#422,.T.);
#562=ORIENTED_EDGE('',*,*,#421,.F.);
#563=ORIENTED_EDGE('',*,*,#420,.T.);
#564=ORIENTED_EDGE('',*,*,#423,.F.);
#565=ORIENTED_EDGE('',*,*,#423,.T.);
#566=ORIENTED_EDGE('',*,*,#424,.T.);
#567=ORIENTED_EDGE('',*,*,#418,.F.);
#568=ORIENTED_EDGE('',*,*,#424,.F.);
#569=ORIENTED_EDGE('',*,*,#422,.F.);
#570=ORIENTED_EDGE('',*,*,#408,.T.);
#571=ORIENTED_EDGE('',*,*,#425,.F.);
#572=ORIENTED_EDGE('',*,*,#426,.F.);
#573=ORIENTED_EDGE('',*,*,#427,.F.);
#574=ORIENTED_EDGE('',*,*,#428,.F.);
#575=ORIENTED_EDGE('',*,*,#429,.F.);
#576=ORIENTED_EDGE('',*,*,#426,.T.);
#577=ORIENTED_EDGE('',*,*,#381,.T.);
#578=ORIENTED_EDGE('',*,*,#401,.T.);
#579=ORIENTED_EDGE('',*,*,#377,.T.);
#580=ORIENTED_EDGE('',*,*,#430,.F.);
#581=ORIENTED_EDGE('',*,*,#431,.F.);
#582=ORIENTED_EDGE('',*,*,#432,.F.);
#583=ORIENTED_EDGE('',*,*,#433,.F.);
#584=ORIENTED_EDGE('',*,*,#434,.F.);
#585=ORIENTED_EDGE('',*,*,#431,.T.);
#586=ORIENTED_EDGE('',*,*,#388,.T.);
#587=ORIENTED_EDGE('',*,*,#403,.T.);
#588=ORIENTED_EDGE('',*,*,#384,.T.);
#589=ORIENTED_EDGE('',*,*,#435,.F.);
#590=ORIENTED_EDGE('',*,*,#436,.F.);
#591=ORIENTED_EDGE('',*,*,#437,.F.);
#592=ORIENTED_EDGE('',*,*,#438,.F.);
#593=ORIENTED_EDGE('',*,*,#439,.F.);
#594=ORIENTED_EDGE('',*,*,#436,.T.);
#595=ORIENTED_EDGE('',*,*,#395,.T.);
#596=ORIENTED_EDGE('',*,*,#405,.T.);
#597=ORIENTED_EDGE('',*,*,#391,.T.);
#598=ORIENTED_EDGE('',*,*,#440,.F.);
#599=ORIENTED_EDGE('',*,*,#441,.F.);
#600=ORIENTED_EDGE('',*,*,#442,.F.);
#601=ORIENTED_EDGE('',*,*,#443,.F.);
#602=ORIENTED_EDGE('',*,*,#444,.F.);
#603=ORIENTED_EDGE('',*,*,#441,.T.);
#604=ORIENTED_EDGE('',*,*,#416,.T.);
#605=ORIENTED_EDGE('',*,*,#417,.T.);
#606=ORIENTED_EDGE('',*,*,#413,.T.);
#607=ORIENTED_EDGE('',*,*,#445,.F.);
#608=ORIENTED_EDGE('',*,*,#446,.F.);
#609=ORIENTED_EDGE('',*,*,#447,.F.);
#610=ORIENTED_EDGE('',*,*,#448,.F.);
#611=ORIENTED_EDGE('',*,*,#449,.F.);
#612=ORIENTED_EDGE('',*,*,#446,.T.);
#613=ORIENTED_EDGE('',*,*,#367,.T.);
#614=ORIENTED_EDGE('',*,*,#397,.T.);
#615=ORIENTED_EDGE('',*,*,#363,.T.);
#616=ORIENTED_EDGE('',*,*,#428,.T.);
#617=ORIENTED_EDGE('',*,*,#450,.T.);
#618=ORIENTED_EDGE('',*,*,#451,.T.);
#619=ORIENTED_EDGE('',*,*,#452,.T.);
#620=ORIENTED_EDGE('',*,*,#448,.T.);
#621=ORIENTED_EDGE('',*,*,#453,.T.);
#622=ORIENTED_EDGE('',*,*,#443,.T.);
#623=ORIENTED_EDGE('',*,*,#454,.T.);
#624=ORIENTED_EDGE('',*,*,#438,.T.);
#625=ORIENTED_EDGE('',*,*,#455,.T.);
#626=ORIENTED_EDGE('',*,*,#433,.T.);
#627=ORIENTED_EDGE('',*,*,#456,.T.);
#628=ORIENTED_EDGE('',*,*,#457,.T.);
#629=ORIENTED_EDGE('',*,*,#406,.T.);
#630=ORIENTED_EDGE('',*,*,#458,.F.);
#631=ORIENTED_EDGE('',*,*,#459,.F.);
#632=ORIENTED_EDGE('',*,*,#460,.F.);
#633=ORIENTED_EDGE('',*,*,#451,.F.);
#634=ORIENTED_EDGE('',*,*,#461,.F.);
#635=ORIENTED_EDGE('',*,*,#459,.T.);
#636=ORIENTED_EDGE('',*,*,#374,.T.);
#637=ORIENTED_EDGE('',*,*,#399,.T.);
#638=ORIENTED_EDGE('',*,*,#370,.T.);
#639=ORIENTED_EDGE('',*,*,#429,.T.);
#640=ORIENTED_EDGE('',*,*,#457,.F.);
#641=ORIENTED_EDGE('',*,*,#462,.T.);
#642=ORIENTED_EDGE('',*,*,#419,.T.);
#643=ORIENTED_EDGE('',*,*,#462,.F.);
#644=ORIENTED_EDGE('',*,*,#456,.F.);
#645=ORIENTED_EDGE('',*,*,#432,.T.);
#646=ORIENTED_EDGE('',*,*,#430,.T.);
#647=ORIENTED_EDGE('',*,*,#434,.T.);
#648=ORIENTED_EDGE('',*,*,#455,.F.);
#649=ORIENTED_EDGE('',*,*,#437,.T.);
#650=ORIENTED_EDGE('',*,*,#435,.T.);
#651=ORIENTED_EDGE('',*,*,#439,.T.);
#652=ORIENTED_EDGE('',*,*,#454,.F.);
#653=ORIENTED_EDGE('',*,*,#442,.T.);
#654=ORIENTED_EDGE('',*,*,#440,.T.);
#655=ORIENTED_EDGE('',*,*,#444,.T.);
#656=ORIENTED_EDGE('',*,*,#453,.F.);
#657=ORIENTED_EDGE('',*,*,#447,.T.);
#658=ORIENTED_EDGE('',*,*,#445,.T.);
#659=ORIENTED_EDGE('',*,*,#449,.T.);
#660=ORIENTED_EDGE('',*,*,#452,.F.);
#661=ORIENTED_EDGE('',*,*,#460,.T.);
#662=ORIENTED_EDGE('',*,*,#458,.T.);
#663=ORIENTED_EDGE('',*,*,#461,.T.);
#664=ORIENTED_EDGE('',*,*,#450,.F.);
#665=ORIENTED_EDGE('',*,*,#427,.T.);
#666=ORIENTED_EDGE('',*,*,#425,.T.);
#667=PLANE('',#756);
#668=PLANE('',#758);
#669=PLANE('',#760);
#670=PLANE('',#762);
#671=PLANE('',#764);
#672=PLANE('',#766);
#673=PLANE('',#768);
#674=PLANE('',#770);
#675=PLANE('',#772);
#676=PLANE('',#774);
#677=PLANE('',#791);
#678=PLANE('',#792);
#679=PLANE('',#795);
#680=PLANE('',#801);
#681=PLANE('',#804);
#682=PLANE('',#805);
#683=PLANE('',#807);
#684=PLANE('',#808);
#685=PLANE('',#810);
#686=PLANE('',#811);
#687=PLANE('',#813);
#688=PLANE('',#814);
#689=PLANE('',#816);
#690=PLANE('',#817);
#691=PLANE('',#819);
#692=PLANE('',#820);
#693=PLANE('',#828);
#694=PLANE('',#830);
#695=ADVANCED_FACE('',(#73),#667,.F.);
#696=ADVANCED_FACE('',(#74),#668,.F.);
#697=ADVANCED_FACE('',(#75),#669,.F.);
#698=ADVANCED_FACE('',(#76),#670,.F.);
#699=ADVANCED_FACE('',(#77),#671,.F.);
#700=ADVANCED_FACE('',(#78),#672,.F.);
#701=ADVANCED_FACE('',(#79),#673,.F.);
#702=ADVANCED_FACE('',(#80),#674,.F.);
#703=ADVANCED_FACE('',(#81),#675,.F.);
#704=ADVANCED_FACE('',(#82),#676,.F.);
#705=ADVANCED_FACE('',(#83),#63,.F.);
#706=ADVANCED_FACE('',(#84),#64,.F.);
#707=ADVANCED_FACE('',(#85),#65,.F.);
#708=ADVANCED_FACE('',(#86),#66,.F.);
#709=ADVANCED_FACE('',(#87),#67,.F.);
#710=ADVANCED_FACE('',(#88,#15,#16,#17,#18,#19,#20),#68,.F.);
#711=ADVANCED_FACE('',(#89),#677,.F.);
#712=ADVANCED_FACE('',(#90),#678,.F.);
#713=ADVANCED_FACE('',(#91),#69,.F.);
#714=ADVANCED_FACE('',(#92,#21),#679,.T.);
#715=ADVANCED_FACE('',(#93),#70,.T.);
#716=ADVANCED_FACE('',(#94,#22),#680,.T.);
#717=ADVANCED_FACE('',(#95),#71,.F.);
#718=ADVANCED_FACE('',(#96,#23),#681,.T.);
#719=ADVANCED_FACE('',(#97),#682,.F.);
#720=ADVANCED_FACE('',(#98,#24),#683,.F.);
#721=ADVANCED_FACE('',(#99),#684,.F.);
#722=ADVANCED_FACE('',(#100,#25),#685,.F.);
#723=ADVANCED_FACE('',(#101),#686,.F.);
#724=ADVANCED_FACE('',(#102,#26),#687,.F.);
#725=ADVANCED_FACE('',(#103),#688,.F.);
#726=ADVANCED_FACE('',(#104,#27),#689,.F.);
#727=ADVANCED_FACE('',(#105),#690,.F.);
#728=ADVANCED_FACE('',(#106,#28),#691,.F.);
#729=ADVANCED_FACE('',(#107,#29),#692,.T.);
#730=ADVANCED_FACE('',(#108),#693,.F.);
#731=ADVANCED_FACE('',(#109,#30),#694,.F.);
#732=ADVANCED_FACE('',(#110),#72,.T.);
#733=CLOSED_SHELL('',(#695,#696,#697,#698,#699,#700,#701,#702,#703,#704,
#705,#706,#707,#708,#709,#710,#711,#712,#713,#714,#715,#716,#717,#718,#719,
#720,#721,#722,#723,#724,#725,#726,#727,#728,#729,#730,#731,#732));
#734=DERIVED_UNIT_ELEMENT(#737,1.);
#735=DERIVED_UNIT_ELEMENT(#1414,-3.);
#736=DIMENSIONAL_EXPONENTS(0.,1.,0.,0.,0.,0.,0.);
#737=(
CONVERSION_BASED_UNIT('gram',#739)
MASS_UNIT()
NAMED_UNIT(#736)
);
#738=(
MASS_UNIT()
NAMED_UNIT(*)
SI_UNIT(.KILO.,.GRAM.)
);
#739=MASS_MEASURE_WITH_UNIT(MASS_MEASURE(0.001),#738);
#740=DERIVED_UNIT((#734,#735));
#741=MEASURE_REPRESENTATION_ITEM('density measure',
POSITIVE_RATIO_MEASURE(1.),#740);
#742=PROPERTY_DEFINITION_REPRESENTATION(#747,#744);
#743=PROPERTY_DEFINITION_REPRESENTATION(#748,#745);
#744=REPRESENTATION('material name',(#746),#1411);
#745=REPRESENTATION('density',(#741),#1411);
#746=DESCRIPTIVE_REPRESENTATION_ITEM('Og\X\F3lny','Og\X\F3lny');
#747=PROPERTY_DEFINITION('material property','material name',#1421);
#748=PROPERTY_DEFINITION('material property','density of part',#1421);
#749=DATE_TIME_ROLE('creation_date');
#750=APPLIED_DATE_AND_TIME_ASSIGNMENT(#751,#749,(#1421));
#751=DATE_AND_TIME(#752,#753);
#752=CALENDAR_DATE(2026,7,8);
#753=LOCAL_TIME(0,0,0.,#754);
#754=COORDINATED_UNIVERSAL_TIME_OFFSET(0,0,.BEHIND.);
#755=AXIS2_PLACEMENT_3D('',#1044,#832,#833);
#756=AXIS2_PLACEMENT_3D('',#1045,#834,#835);
#757=AXIS2_PLACEMENT_3D('',#1048,#836,#837);
#758=AXIS2_PLACEMENT_3D('',#1054,#841,#842);
#759=AXIS2_PLACEMENT_3D('',#1056,#843,#844);
#760=AXIS2_PLACEMENT_3D('',#1060,#847,#848);
#761=AXIS2_PLACEMENT_3D('',#1063,#849,#850);
#762=AXIS2_PLACEMENT_3D('',#1069,#854,#855);
#763=AXIS2_PLACEMENT_3D('',#1071,#856,#857);
#764=AXIS2_PLACEMENT_3D('',#1075,#860,#861);
#765=AXIS2_PLACEMENT_3D('',#1078,#862,#863);
#766=AXIS2_PLACEMENT_3D('',#1084,#867,#868);
#767=AXIS2_PLACEMENT_3D('',#1086,#869,#870);
#768=AXIS2_PLACEMENT_3D('',#1090,#873,#874);
#769=AXIS2_PLACEMENT_3D('',#1093,#875,#876);
#770=AXIS2_PLACEMENT_3D('',#1099,#880,#881);
#771=AXIS2_PLACEMENT_3D('',#1101,#882,#883);
#772=AXIS2_PLACEMENT_3D('',#1105,#886,#887);
#773=AXIS2_PLACEMENT_3D('',#1108,#888,#889);
#774=AXIS2_PLACEMENT_3D('',#1114,#893,#894);
#775=AXIS2_PLACEMENT_3D('',#1116,#895,#896);
#776=AXIS2_PLACEMENT_3D('',#1120,#899,#900);
#777=AXIS2_PLACEMENT_3D('',#1148,#901,#902);
#778=AXIS2_PLACEMENT_3D('',#1149,#903,#904);
#779=AXIS2_PLACEMENT_3D('',#1177,#905,#906);
#780=AXIS2_PLACEMENT_3D('',#1178,#907,#908);
#781=AXIS2_PLACEMENT_3D('',#1206,#909,#910);
#782=AXIS2_PLACEMENT_3D('',#1207,#911,#912);
#783=AXIS2_PLACEMENT_3D('',#1235,#913,#914);
#784=AXIS2_PLACEMENT_3D('',#1236,#915,#916);
#785=AXIS2_PLACEMENT_3D('',#1264,#917,#918);
#786=AXIS2_PLACEMENT_3D('',#1265,#919,#920);
#787=AXIS2_PLACEMENT_3D('',#1267,#921,#922);
#788=AXIS2_PLACEMENT_3D('',#1270,#924,#925);
#789=AXIS2_PLACEMENT_3D('',#1273,#926,#927);
#790=AXIS2_PLACEMENT_3D('',#1275,#928,#929);
#791=AXIS2_PLACEMENT_3D('',#1303,#930,#931);
#792=AXIS2_PLACEMENT_3D('',#1309,#935,#936);
#793=AXIS2_PLACEMENT_3D('',#1313,#939,#940);
#794=AXIS2_PLACEMENT_3D('',#1314,#941,#942);
#795=AXIS2_PLACEMENT_3D('',#1315,#943,#944);
#796=AXIS2_PLACEMENT_3D('',#1317,#945,#946);
#797=AXIS2_PLACEMENT_3D('',#1319,#947,#948);
#798=AXIS2_PLACEMENT_3D('',#1320,#949,#950);
#799=AXIS2_PLACEMENT_3D('',#1322,#951,#952);
#800=AXIS2_PLACEMENT_3D('',#1325,#954,#955);
#801=AXIS2_PLACEMENT_3D('',#1326,#956,#957);
#802=AXIS2_PLACEMENT_3D('',#1328,#958,#959);
#803=AXIS2_PLACEMENT_3D('',#1329,#960,#961);
#804=AXIS2_PLACEMENT_3D('',#1331,#963,#964);
#805=AXIS2_PLACEMENT_3D('',#1332,#965,#966);
#806=AXIS2_PLACEMENT_3D('',#1335,#967,#968);
#807=AXIS2_PLACEMENT_3D('',#1337,#970,#971);
#808=AXIS2_PLACEMENT_3D('',#1343,#975,#976);
#809=AXIS2_PLACEMENT_3D('',#1346,#977,#978);
#810=AXIS2_PLACEMENT_3D('',#1348,#980,#981);
#811=AXIS2_PLACEMENT_3D('',#1354,#985,#986);
#812=AXIS2_PLACEMENT_3D('',#1357,#987,#988);
#813=AXIS2_PLACEMENT_3D('',#1359,#990,#991);
#814=AXIS2_PLACEMENT_3D('',#1365,#995,#996);
#815=AXIS2_PLACEMENT_3D('',#1368,#997,#998);
#816=AXIS2_PLACEMENT_3D('',#1370,#1000,#1001);
#817=AXIS2_PLACEMENT_3D('',#1376,#1005,#1006);
#818=AXIS2_PLACEMENT_3D('',#1379,#1007,#1008);
#819=AXIS2_PLACEMENT_3D('',#1381,#1010,#1011);
#820=AXIS2_PLACEMENT_3D('',#1387,#1015,#1016);
#821=AXIS2_PLACEMENT_3D('',#1389,#1017,#1018);
#822=AXIS2_PLACEMENT_3D('',#1392,#1020,#1021);
#823=AXIS2_PLACEMENT_3D('',#1393,#1022,#1023);
#824=AXIS2_PLACEMENT_3D('',#1394,#1024,#1025);
#825=AXIS2_PLACEMENT_3D('',#1395,#1026,#1027);
#826=AXIS2_PLACEMENT_3D('',#1397,#1028,#1029);
#827=AXIS2_PLACEMENT_3D('',#1398,#1030,#1031);
#828=AXIS2_PLACEMENT_3D('',#1399,#1032,#1033);
#829=AXIS2_PLACEMENT_3D('',#1402,#1034,#1035);
#830=AXIS2_PLACEMENT_3D('',#1404,#1037,#1038);
#831=AXIS2_PLACEMENT_3D('',#1407,#1041,#1042);
#832=DIRECTION('axis',(0.,0.,1.));
#833=DIRECTION('refdir',(1.,0.,0.));
#834=DIRECTION('center_axis',(0.353553390593273,0.707106781186551,-0.612372435695791));
#835=DIRECTION('ref_axis',(-0.353553390593276,0.707106781186544,0.612372435695798));
#836=DIRECTION('center_axis',(-0.353553390593273,-0.707106781186551,0.612372435695791));
#837=DIRECTION('ref_axis',(0.353553390593277,-0.707106781186544,-0.612372435695797));
#838=DIRECTION('',(0.866025403784438,-1.96947537590518E-16,0.500000000000001));
#839=DIRECTION('',(-0.353553390593276,0.707106781186544,0.612372435695798));
#840=DIRECTION('',(0.866025403784439,-1.85037170770859E-16,0.5));
#841=DIRECTION('center_axis',(-0.353553390593276,0.707106781186544,0.612372435695797));
#842=DIRECTION('ref_axis',(-0.353553390593273,-0.707106781186551,0.612372435695791));
#843=DIRECTION('center_axis',(0.353553390593276,-0.707106781186544,-0.612372435695797));
#844=DIRECTION('ref_axis',(0.353553390593273,0.707106781186551,-0.612372435695791));
#845=DIRECTION('',(0.866025403784439,-1.85037170770859E-16,0.5));
#846=DIRECTION('',(-0.353553390593272,-0.707106781186551,0.612372435695791));
#847=DIRECTION('center_axis',(0.707106781186544,0.707106781186551,7.21644966006352E-16));
#848=DIRECTION('ref_axis',(-0.707106781186551,0.707106781186544,-3.88578058618805E-16));
#849=DIRECTION('center_axis',(-0.707106781186544,-0.707106781186551,-7.21644966006352E-16));
#850=DIRECTION('ref_axis',(0.707106781186551,-0.707106781186544,0.));
#851=DIRECTION('',(-7.21644966006352E-16,-1.96947537590518E-16,1.));
#852=DIRECTION('',(-0.707106781186551,0.707106781186544,1.30841038223647E-16));
#853=DIRECTION('',(0.,-1.85037170770859E-16,1.));
#854=DIRECTION('center_axis',(-0.707106781186551,0.707106781186544,-3.88578058618805E-16));
#855=DIRECTION('ref_axis',(-0.707106781186544,-0.707106781186551,-5.55111512312578E-16));
#856=DIRECTION('center_axis',(0.707106781186551,-0.707106781186544,3.88578058618805E-16));
#857=DIRECTION('ref_axis',(0.707106781186544,0.707106781186551,0.));
#858=DIRECTION('',(0.,-1.85037170770859E-16,1.));
#859=DIRECTION('',(-0.707106781186544,-0.707106781186551,-1.30841038223648E-16));
#860=DIRECTION('center_axis',(0.353553390593271,0.707106781186551,0.612372435695791));
#861=DIRECTION('ref_axis',(-0.353553390593276,0.707106781186544,-0.612372435695798));
#862=DIRECTION('center_axis',(-0.353553390593271,-0.707106781186551,-0.612372435695791));
#863=DIRECTION('ref_axis',(0.353553390593275,-0.707106781186544,0.612372435695798));
#864=DIRECTION('',(-0.866025403784439,-1.96947537590518E-16,0.5));
#865=DIRECTION('',(-0.353553390593275,0.707106781186544,-0.612372435695798));
#866=DIRECTION('',(-0.866025403784439,-1.85037170770859E-16,0.499999999999999));
#867=DIRECTION('center_axis',(-0.353553390593275,0.707106781186544,-0.612372435695798));
#868=DIRECTION('ref_axis',(-0.353553390593272,-0.707106781186551,-0.612372435695792));
#869=DIRECTION('center_axis',(0.353553390593275,-0.707106781186544,0.612372435695798));
#870=DIRECTION('ref_axis',(0.353553390593272,0.707106781186551,0.612372435695792));
#871=DIRECTION('',(-0.866025403784439,-1.85037170770859E-16,0.499999999999999));
#872=DIRECTION('',(-0.353553390593271,-0.707106781186551,-0.612372435695792));
#873=DIRECTION('center_axis',(-0.353553390593272,0.707106781186551,0.612372435695791));
#874=DIRECTION('ref_axis',(0.353553390593276,0.707106781186544,-0.612372435695798));
#875=DIRECTION('center_axis',(0.353553390593272,-0.707106781186551,-0.612372435695791));
#876=DIRECTION('ref_axis',(0.353553390593276,0.707106781186544,-0.612372435695798));
#877=DIRECTION('',(-0.866025403784438,-1.96947537590518E-16,-0.5));
#878=DIRECTION('',(0.353553390593276,0.707106781186544,-0.612372435695798));
#879=DIRECTION('',(0.866025403784439,-1.85037170770859E-16,0.5));
#880=DIRECTION('center_axis',(0.353553390593276,0.707106781186544,-0.612372435695797));
#881=DIRECTION('ref_axis',(0.353553390593272,-0.707106781186551,-0.612372435695791));
#882=DIRECTION('center_axis',(-0.353553390593276,-0.707106781186544,0.612372435695797));
#883=DIRECTION('ref_axis',(0.353553390593272,-0.707106781186551,-0.612372435695792));
#884=DIRECTION('',(0.866025403784439,-1.85037170770859E-16,0.5));
#885=DIRECTION('',(0.353553390593273,-0.707106781186551,-0.612372435695791));
#886=DIRECTION('center_axis',(-0.707106781186544,0.707106781186551,-4.44089209850063E-16));
#887=DIRECTION('ref_axis',(0.707106781186551,0.707106781186544,1.66533453693773E-16));
#888=DIRECTION('center_axis',(0.707106781186544,-0.707106781186551,4.44089209850063E-16));
#889=DIRECTION('ref_axis',(0.707106781186551,0.707106781186544,0.));
#890=DIRECTION('',(3.88578058618805E-16,-1.96947537590518E-16,-1.));
#891=DIRECTION('',(0.707106781186551,0.707106781186544,-1.30841038223634E-17));
#892=DIRECTION('',(1.66533453693773E-16,-1.85037170770859E-16,-1.));
#893=DIRECTION('center_axis',(0.707106781186551,0.707106781186544,1.11022302462516E-16));
#894=DIRECTION('ref_axis',(0.707106781186544,-0.707106781186551,3.33066907387547E-16));
#895=DIRECTION('center_axis',(-0.707106781186551,-0.707106781186544,-1.11022302462516E-16));
#896=DIRECTION('ref_axis',(0.707106781186544,-0.707106781186551,0.));
#897=DIRECTION('',(1.66533453693773E-16,-1.85037170770859E-16,-1.));
#898=DIRECTION('',(0.707106781186544,-0.707106781186551,2.48597972624931E-16));
#899=DIRECTION('center_axis',(-0.866025403784439,1.85037170770859E-16,-0.5));
#900=DIRECTION('ref_axis',(7.65671051465625E-16,-1.,-1.57919654364785E-15));
#901=DIRECTION('center_axis',(0.866025403784439,-1.85037170770859E-16,0.5));
#902=DIRECTION('ref_axis',(-0.5,0.,0.866025403784439));
#903=DIRECTION('center_axis',(0.,1.85037170770859E-16,-1.));
#904=DIRECTION('ref_axis',(2.60330291914301E-15,-1.,-1.85037170770859E-16));
#905=DIRECTION('center_axis',(0.,-1.85037170770859E-16,1.));
#906=DIRECTION('ref_axis',(-1.,0.,0.));
#907=DIRECTION('center_axis',(0.866025403784439,1.85037170770859E-16,-0.499999999999999));
#908=DIRECTION('ref_axis',(2.20130427296367E-15,-1.,3.82835525732813E-15));
#909=DIRECTION('center_axis',(-0.866025403784439,-1.85037170770859E-16,
0.499999999999999));
#910=DIRECTION('ref_axis',(-0.499999999999999,0.,-0.866025403784439));
#911=DIRECTION('center_axis',(-0.866025403784439,1.85037170770859E-16,-0.5));
#912=DIRECTION('ref_axis',(1.81846874723086E-15,-1.,-3.30195640944551E-15));
#913=DIRECTION('center_axis',(-0.866025403784438,-1.85037170770859E-16,
-0.5));
#914=DIRECTION('ref_axis',(-0.5,0.,0.866025403784439));
#915=DIRECTION('center_axis',(-1.66533453693773E-16,1.85037170770859E-16,
1.));
#916=DIRECTION('ref_axis',(-1.71512449944288E-15,-1.,1.14212598510289E-16));
#917=DIRECTION('center_axis',(1.66533453693773E-16,-1.85037170770859E-16,
-1.));
#918=DIRECTION('ref_axis',(1.,0.,9.57088814332032E-17));
#919=DIRECTION('center_axis',(0.,1.,0.));
#920=DIRECTION('ref_axis',(1.,0.,0.));
#921=DIRECTION('center_axis',(0.,-1.,0.));
#922=DIRECTION('ref_axis',(1.,0.,0.));
#923=DIRECTION('',(0.,-1.,0.));
#924=DIRECTION('center_axis',(0.,1.,0.));
#925=DIRECTION('ref_axis',(1.,0.,0.));
#926=DIRECTION('center_axis',(-0.353553390593275,-0.707106781186544,-0.612372435695797));
#927=DIRECTION('ref_axis',(0.353553390593272,-0.707106781186551,0.612372435695792));
#928=DIRECTION('center_axis',(0.353553390593272,-0.707106781186551,0.612372435695791));
#929=DIRECTION('ref_axis',(0.353553390593275,0.707106781186544,0.612372435695798));
#930=DIRECTION('center_axis',(-0.353553390593272,0.707106781186551,-0.612372435695791));
#931=DIRECTION('ref_axis',(0.353553390593276,0.707106781186544,0.612372435695798));
#932=DIRECTION('',(0.866025403784439,-1.96947537590518E-16,-0.5));
#933=DIRECTION('',(0.353553390593276,0.707106781186544,0.612372435695798));
#934=DIRECTION('',(0.866025403784439,-1.85037170770859E-16,-0.5));
#935=DIRECTION('center_axis',(0.353553390593275,0.707106781186544,0.612372435695797));
#936=DIRECTION('ref_axis',(0.353553390593272,-0.707106781186551,0.612372435695792));
#937=DIRECTION('',(0.866025403784439,-1.85037170770859E-16,-0.5));
#938=DIRECTION('',(0.353553390593272,-0.707106781186551,0.612372435695792));
#939=DIRECTION('center_axis',(-0.866025403784439,1.85037170770859E-16,0.5));
#940=DIRECTION('ref_axis',(-1.29206989934824E-15,-1.,-2.24915871368027E-15));
#941=DIRECTION('center_axis',(0.866025403784439,-1.85037170770859E-16,-0.5));
#942=DIRECTION('ref_axis',(0.5,0.,0.866025403784439));
#943=DIRECTION('center_axis',(0.,1.,0.));
#944=DIRECTION('ref_axis',(0.,0.,1.));
#945=DIRECTION('center_axis',(0.,1.,0.));
#946=DIRECTION('ref_axis',(1.,0.,0.));
#947=DIRECTION('center_axis',(0.,1.,0.));
#948=DIRECTION('ref_axis',(-1.,0.,0.));
#949=DIRECTION('center_axis',(0.,1.,0.));
#950=DIRECTION('ref_axis',(0.,0.,1.));
#951=DIRECTION('center_axis',(0.,1.,0.));
#952=DIRECTION('ref_axis',(1.,0.,0.));
#953=DIRECTION('',(0.,-1.,0.));
#954=DIRECTION('center_axis',(0.,1.,0.));
#955=DIRECTION('ref_axis',(1.,0.,0.));
#956=DIRECTION('center_axis',(0.,1.,0.));
#957=DIRECTION('ref_axis',(0.,0.,1.));
#958=DIRECTION('center_axis',(0.,1.,0.));
#959=DIRECTION('ref_axis',(1.,0.,0.));
#960=DIRECTION('center_axis',(0.,1.,0.));
#961=DIRECTION('ref_axis',(0.,0.,1.));
#962=DIRECTION('',(0.,-1.,0.));
#963=DIRECTION('center_axis',(0.,-1.,0.));
#964=DIRECTION('ref_axis',(0.,0.,-1.));
#965=DIRECTION('center_axis',(0.,-1.,0.));
#966=DIRECTION('ref_axis',(0.866025403784439,0.,-0.499999999999999));
#967=DIRECTION('center_axis',(0.,-1.,0.));
#968=DIRECTION('ref_axis',(-1.,0.,0.));
#969=DIRECTION('',(-0.499999999999999,0.,-0.866025403784439));
#970=DIRECTION('center_axis',(-0.866025403784439,-1.85037170770859E-16,
0.499999999999999));
#971=DIRECTION('ref_axis',(1.60246890531964E-16,-1.,-9.25185853854295E-17));
#972=DIRECTION('',(0.,-1.,0.));
#973=DIRECTION('',(-0.499999999999999,0.,-0.866025403784439));
#974=DIRECTION('',(0.,1.,0.));
#975=DIRECTION('center_axis',(0.,-1.,0.));
#976=DIRECTION('ref_axis',(0.866025403784438,0.,0.5));
#977=DIRECTION('center_axis',(0.,-1.,0.));
#978=DIRECTION('ref_axis',(-1.,0.,0.));
#979=DIRECTION('',(0.5,0.,-0.866025403784438));
#980=DIRECTION('center_axis',(-0.866025403784438,-1.85037170770859E-16,
-0.5));
#981=DIRECTION('ref_axis',(1.60246890531964E-16,-1.,9.25185853854297E-17));
#982=DIRECTION('',(0.,-1.,0.));
#983=DIRECTION('',(0.5,0.,-0.866025403784438));
#984=DIRECTION('',(0.,1.,0.));
#985=DIRECTION('center_axis',(0.,-1.,0.));
#986=DIRECTION('ref_axis',(-1.66533453693773E-16,0.,1.));
#987=DIRECTION('center_axis',(0.,-1.,0.));
#988=DIRECTION('ref_axis',(-1.,0.,0.));
#989=DIRECTION('',(1.,0.,1.66533453693773E-16));
#990=DIRECTION('center_axis',(1.66533453693773E-16,-1.85037170770859E-16,
-1.));
#991=DIRECTION('ref_axis',(-2.46519032881566E-32,-1.,1.85037170770859E-16));
#992=DIRECTION('',(0.,-1.,0.));
#993=DIRECTION('',(1.,0.,1.66533453693773E-16));
#994=DIRECTION('',(0.,1.,0.));
#995=DIRECTION('center_axis',(0.,-1.,0.));
#996=DIRECTION('ref_axis',(-0.866025403784439,0.,0.5));
#997=DIRECTION('center_axis',(0.,-1.,0.));
#998=DIRECTION('ref_axis',(-1.,0.,0.));
#999=DIRECTION('',(0.5,0.,0.866025403784439));
#1000=DIRECTION('center_axis',(0.866025403784439,-1.85037170770859E-16,
-0.5));
#1001=DIRECTION('ref_axis',(-1.60246890531964E-16,-1.,9.25185853854296E-17));
#1002=DIRECTION('',(0.,-1.,0.));
#1003=DIRECTION('',(0.5,0.,0.866025403784439));
#1004=DIRECTION('',(0.,1.,0.));
#1005=DIRECTION('center_axis',(0.,-1.,0.));
#1006=DIRECTION('ref_axis',(-0.866025403784439,0.,-0.5));
#1007=DIRECTION('center_axis',(0.,-1.,0.));
#1008=DIRECTION('ref_axis',(-1.,0.,0.));
#1009=DIRECTION('',(-0.5,0.,0.866025403784439));
#1010=DIRECTION('center_axis',(0.866025403784439,-1.85037170770859E-16,
0.5));
#1011=DIRECTION('ref_axis',(-1.60246890531964E-16,-1.,-9.25185853854297E-17));
#1012=DIRECTION('',(0.,-1.,0.));
#1013=DIRECTION('',(-0.5,0.,0.866025403784439));
#1014=DIRECTION('',(0.,1.,0.));
#1015=DIRECTION('center_axis',(0.,1.,0.));
#1016=DIRECTION('ref_axis',(0.,0.,1.));
#1017=DIRECTION('center_axis',(0.,1.,0.));
#1018=DIRECTION('ref_axis',(-1.,0.,0.));
#1019=DIRECTION('',(-1.,0.,0.));
#1020=DIRECTION('center_axis',(0.,1.,0.));
#1021=DIRECTION('ref_axis',(-1.,0.,0.));
#1022=DIRECTION('center_axis',(0.,1.,0.));
#1023=DIRECTION('ref_axis',(-1.,0.,0.));
#1024=DIRECTION('center_axis',(0.,1.,0.));
#1025=DIRECTION('ref_axis',(-1.,0.,0.));
#1026=DIRECTION('center_axis',(0.,1.,0.));
#1027=DIRECTION('ref_axis',(-1.,0.,0.));
#1028=DIRECTION('center_axis',(0.,1.,0.));
#1029=DIRECTION('ref_axis',(-1.,0.,0.));
#1030=DIRECTION('center_axis',(0.,1.,0.));
#1031=DIRECTION('ref_axis',(-1.,0.,0.));
#1032=DIRECTION('center_axis',(0.,-1.,0.));
#1033=DIRECTION('ref_axis',(0.,0.,-1.));
#1034=DIRECTION('center_axis',(0.,-1.,0.));
#1035=DIRECTION('ref_axis',(-1.,0.,0.));
#1036=DIRECTION('',(-1.,0.,0.));
#1037=DIRECTION('center_axis',(0.,-1.85037170770859E-16,1.));
#1038=DIRECTION('ref_axis',(0.,-1.,-1.85037170770859E-16));
#1039=DIRECTION('',(0.,-1.,0.));
#1040=DIRECTION('',(0.,1.,0.));
#1041=DIRECTION('center_axis',(0.,1.,0.));
#1042=DIRECTION('ref_axis',(-1.,0.,0.));
#1043=DIRECTION('',(0.,-1.,0.));
#1044=CARTESIAN_POINT('',(0.,0.,0.));
#1045=CARTESIAN_POINT('Origin',(-7.71458891959191,15.0253048327205,-5.63794003175892));
#1046=CARTESIAN_POINT('',(-3.50740288532697,16.050609665441,-2.02500000000001));
#1047=CARTESIAN_POINT('',(-2.88049324806383,15.0253048327205,-2.84697359451377));
#1048=CARTESIAN_POINT('Origin',(0.,16.050609665441,0.));
#1049=CARTESIAN_POINT('',(-8.22724133595216,16.050609665441,-4.75000000000001));
#1050=CARTESIAN_POINT('',(-8.22724133595216,16.050609665441,-4.75000000000001));
#1051=CARTESIAN_POINT('',(-7.71458891959191,15.0253048327205,-5.63794003175892));
#1052=CARTESIAN_POINT('',(-8.08958891959191,15.7753048327205,-4.98842097892058));
#1053=CARTESIAN_POINT('',(20.8642494052946,15.0253048327205,10.8620599682411));
#1054=CARTESIAN_POINT('Origin',(-8.22724133595216,16.050609665441,-4.75000000000001));
#1055=CARTESIAN_POINT('',(-3.90579808078433,15.0253048327205,-1.07109353099597));
#1056=CARTESIAN_POINT('Origin',(0.,16.050609665441,0.));
#1057=CARTESIAN_POINT('',(-8.7398937523124,15.0253048327205,-3.86205996824111));
#1058=CARTESIAN_POINT('',(19.8389445725741,15.0253048327205,12.6379400317589));
#1059=CARTESIAN_POINT('',(-8.10856754413228,16.2879572490807,-4.95554903695889));
#1060=CARTESIAN_POINT('Origin',(1.02530483272051,15.0253048327205,-9.49999999999999));
#1061=CARTESIAN_POINT('',(7.21644966006352E-15,16.050609665441,-4.05));
#1062=CARTESIAN_POINT('',(1.02530483272051,15.0253048327205,-3.91806712550972));
#1063=CARTESIAN_POINT('Origin',(0.,16.050609665441,0.));
#1064=CARTESIAN_POINT('',(1.16573417585641E-14,16.050609665441,-9.49999999999999));
#1065=CARTESIAN_POINT('',(1.16573417585641E-14,16.050609665441,-9.49999999999999));
#1066=CARTESIAN_POINT('',(1.02530483272051,15.0253048327205,-9.49999999999999));
#1067=CARTESIAN_POINT('',(0.275304832720505,15.7753048327205,-9.49999999999999));
#1068=CARTESIAN_POINT('',(1.02530483272049,15.0253048327205,23.5));
#1069=CARTESIAN_POINT('Origin',(1.16573417585641E-14,16.050609665441,-9.49999999999999));
#1070=CARTESIAN_POINT('',(-1.02530483272048,15.0253048327205,-3.91806712550972));
#1071=CARTESIAN_POINT('Origin',(0.,16.050609665441,0.));
#1072=CARTESIAN_POINT('',(-1.02530483272048,15.0253048327205,-9.5));
#1073=CARTESIAN_POINT('',(-1.02530483272049,15.0253048327205,23.5));
#1074=CARTESIAN_POINT('',(0.237347583639762,16.2879572490807,-9.49999999999999));
#1075=CARTESIAN_POINT('Origin',(8.73989375231242,15.0253048327205,-3.86205996824108));
#1076=CARTESIAN_POINT('',(3.50740288532698,16.050609665441,-2.02499999999999));
#1077=CARTESIAN_POINT('',(3.90579808078434,15.0253048327205,-1.07109353099595));
#1078=CARTESIAN_POINT('Origin',(0.,16.050609665441,0.));
#1079=CARTESIAN_POINT('',(8.22724133595217,16.050609665441,-4.74999999999999));
#1080=CARTESIAN_POINT('',(8.22724133595217,16.050609665441,-4.74999999999999));
#1081=CARTESIAN_POINT('',(8.73989375231242,15.0253048327205,-3.86205996824108));
#1082=CARTESIAN_POINT('',(8.36489375231242,15.7753048327205,-4.51157902107942));
#1083=CARTESIAN_POINT('',(-19.8389445725741,15.0253048327205,12.6379400317589));
#1084=CARTESIAN_POINT('Origin',(8.22724133595217,16.050609665441,-4.74999999999999));
#1085=CARTESIAN_POINT('',(2.88049324806385,15.0253048327205,-2.84697359451376));
#1086=CARTESIAN_POINT('Origin',(0.,16.050609665441,0.));
#1087=CARTESIAN_POINT('',(7.71458891959192,15.0253048327205,-5.63794003175889));
#1088=CARTESIAN_POINT('',(-20.8642494052946,15.0253048327205,10.8620599682411));
#1089=CARTESIAN_POINT('',(8.34591512777205,16.2879572490807,-4.54445096304111));
#1090=CARTESIAN_POINT('Origin',(7.71458891959191,15.0253048327205,5.63794003175891));
#1091=CARTESIAN_POINT('',(3.50740288532697,16.050609665441,2.02500000000001));
#1092=CARTESIAN_POINT('',(2.88049324806384,15.0253048327205,2.84697359451377));
#1093=CARTESIAN_POINT('Origin',(0.,16.050609665441,0.));
#1094=CARTESIAN_POINT('',(8.22724133595216,16.050609665441,4.75000000000001));
#1095=CARTESIAN_POINT('',(8.22724133595216,16.050609665441,4.75000000000001));
#1096=CARTESIAN_POINT('',(7.71458891959191,15.0253048327205,5.63794003175891));
#1097=CARTESIAN_POINT('',(8.08958891959191,15.7753048327205,4.98842097892058));
#1098=CARTESIAN_POINT('',(19.8389445725741,15.0253048327205,12.6379400317589));
#1099=CARTESIAN_POINT('Origin',(8.22724133595216,16.050609665441,4.75000000000001));
#1100=CARTESIAN_POINT('',(3.90579808078433,15.0253048327205,1.07109353099597));
#1101=CARTESIAN_POINT('Origin',(0.,16.050609665441,0.));
#1102=CARTESIAN_POINT('',(8.7398937523124,15.0253048327205,3.86205996824111));
#1103=CARTESIAN_POINT('',(20.8642494052946,15.0253048327205,10.8620599682411));
#1104=CARTESIAN_POINT('',(8.10856754413228,16.2879572490807,4.95554903695888));
#1105=CARTESIAN_POINT('Origin',(-1.02530483272051,15.0253048327205,9.49999999999999));
#1106=CARTESIAN_POINT('',(-6.10622663543836E-15,16.050609665441,4.05));
#1107=CARTESIAN_POINT('',(-1.0253048327205,15.0253048327205,3.91806712550972));
#1108=CARTESIAN_POINT('Origin',(0.,16.050609665441,0.));
#1109=CARTESIAN_POINT('',(-8.32667268468867E-15,16.050609665441,9.49999999999999));
#1110=CARTESIAN_POINT('',(-8.32667268468867E-15,16.050609665441,9.49999999999999));
#1111=CARTESIAN_POINT('',(-1.02530483272051,15.0253048327205,9.5));
#1112=CARTESIAN_POINT('',(-0.275304832720503,15.7753048327205,9.5));
#1113=CARTESIAN_POINT('',(-1.0253048327205,15.0253048327205,-23.5));
#1114=CARTESIAN_POINT('Origin',(-8.32667268468867E-15,16.050609665441,9.49999999999999));
#1115=CARTESIAN_POINT('',(1.02530483272048,15.0253048327205,3.91806712550972));
#1116=CARTESIAN_POINT('Origin',(0.,16.050609665441,0.));
#1117=CARTESIAN_POINT('',(1.02530483272048,15.0253048327205,9.5));
#1118=CARTESIAN_POINT('',(1.02530483272049,15.0253048327205,-23.5));
#1119=CARTESIAN_POINT('',(-0.23734758363976,16.2879572490807,9.5));
#1120=CARTESIAN_POINT('Origin',(20.3515969889343,14.,11.75));
#1121=CARTESIAN_POINT('Ctrl Pts',(-2.88049324806383,15.0253048327205,-2.84697359451378));
#1122=CARTESIAN_POINT('Ctrl Pts',(-2.78758059454089,14.897436413423,-2.94098018159568));
#1123=CARTESIAN_POINT('Ctrl Pts',(-2.70054136879848,14.7354960626447,-3.01923190111718));
#1124=CARTESIAN_POINT('Ctrl Pts',(-2.58129076852769,14.3788107579213,-3.12179808359331));
#1125=CARTESIAN_POINT('Ctrl Pts',(-2.54990457876255,14.1839030512338,-3.14650387560635));
#1126=CARTESIAN_POINT('Ctrl Pts',(-2.54990457876255,13.8160969487662,-3.14650387560635));
#1127=CARTESIAN_POINT('Ctrl Pts',(-2.58129076852769,13.6211892420787,-3.12179808359331));
#1128=CARTESIAN_POINT('Ctrl Pts',(-2.70054136879849,13.2645039373553,-3.01923190111718));
#1129=CARTESIAN_POINT('Ctrl Pts',(-2.78758059454089,13.102563586577,-2.94098018159568));
#1130=CARTESIAN_POINT('Ctrl Pts',(-2.97334754168805,12.8469070641469,-2.75302605444747));
#1131=CARTESIAN_POINT('Ctrl Pts',(-3.08482599714077,12.7355579517293,-2.63035924539752));
#1132=CARTESIAN_POINT('Ctrl Pts',(-3.3061441027849,12.5870614496907,-2.34613562367007));
#1133=CARTESIAN_POINT('Ctrl Pts',(-3.41550911590926,12.55,-2.18416467753051));
#1134=CARTESIAN_POINT('Ctrl Pts',(-3.59929665474468,12.55,-1.86583532246952));
#1135=CARTESIAN_POINT('Ctrl Pts',(-3.68488510221436,12.5870614496907,-1.69013696974883));
#1136=CARTESIAN_POINT('Ctrl Pts',(-3.8203709261639,12.7355579517293,-1.35635805707984));
#1137=CARTESIAN_POINT('Ctrl Pts',(-3.87086427127597,12.8469070641469,-1.19848147815815));
#1138=CARTESIAN_POINT('Ctrl Pts',(-3.94075384655886,13.102563586577,-0.943625519171132));
#1139=CARTESIAN_POINT('Ctrl Pts',(-3.9650022106831,13.2645039373553,-0.82912147879173));
#1140=CARTESIAN_POINT('Ctrl Pts',(-3.99420183014122,13.6211892420787,-0.674564338302617));
#1141=CARTESIAN_POINT('Ctrl Pts',(-3.99990457876256,13.8160969487662,-0.635030204631485));
#1142=CARTESIAN_POINT('Ctrl Pts',(-3.99990457876256,14.,-0.635030204631485));
#1143=CARTESIAN_POINT('Ctrl Pts',(-3.99990457876256,14.1839030512338,-0.635030204631486));
#1144=CARTESIAN_POINT('Ctrl Pts',(-3.99420183014122,14.3788107579213,-0.674564338302617));
#1145=CARTESIAN_POINT('Ctrl Pts',(-3.9650022106831,14.7354960626447,-0.82912147879173));
#1146=CARTESIAN_POINT('Ctrl Pts',(-3.94075384655887,14.897436413423,-0.94362551917113));
#1147=CARTESIAN_POINT('Ctrl Pts',(-3.90579808078434,15.0253048327205,-1.07109353099597));
#1148=CARTESIAN_POINT('Origin',(-8.22724133595215,14.,-4.75000000000001));
#1149=CARTESIAN_POINT('Origin',(1.38777878078145E-14,14.,23.5));
#1150=CARTESIAN_POINT('Ctrl Pts',(1.02530483272051,15.0253048327205,-3.91806712550972));
#1151=CARTESIAN_POINT('Ctrl Pts',(1.15317325201798,14.897436413423,-3.88460570076678));
#1152=CARTESIAN_POINT('Ctrl Pts',(1.26446084188462,14.7354960626447,-3.84835337990888));
#1153=CARTESIAN_POINT('Ctrl Pts',(1.41291106161353,14.3788107579213,-3.79636242189589));
#1154=CARTESIAN_POINT('Ctrl Pts',(1.45000000000001,14.1839030512338,-3.7815340802378));
#1155=CARTESIAN_POINT('Ctrl Pts',(1.45000000000001,13.8160969487662,-3.7815340802378));
#1156=CARTESIAN_POINT('Ctrl Pts',(1.41291106161353,13.6211892420787,-3.79636242189589));
#1157=CARTESIAN_POINT('Ctrl Pts',(1.26446084188462,13.2645039373553,-3.84835337990888));
#1158=CARTESIAN_POINT('Ctrl Pts',(1.15317325201798,13.102563586577,-3.88460570076678));
#1159=CARTESIAN_POINT('Ctrl Pts',(0.897516729587929,12.8469070641469,-3.95150753260559));
#1160=CARTESIAN_POINT('Ctrl Pts',(0.735544929023136,12.7355579517293,-3.98671730247733));
#1161=CARTESIAN_POINT('Ctrl Pts',(0.378740999429473,12.5870614496907,-4.03627259341887));
#1162=CARTESIAN_POINT('Ctrl Pts',(0.183787538835439,12.55,-4.05));
#1163=CARTESIAN_POINT('Ctrl Pts',(-0.183787538835411,12.55,-4.05));
#1164=CARTESIAN_POINT('Ctrl Pts',(-0.378740999429445,12.5870614496907,-4.03627259341887));
#1165=CARTESIAN_POINT('Ctrl Pts',(-0.735544929023107,12.7355579517293,-3.98671730247734));
#1166=CARTESIAN_POINT('Ctrl Pts',(-0.897516729587902,12.8469070641469,-3.9515075326056));
#1167=CARTESIAN_POINT('Ctrl Pts',(-1.15317325201795,13.102563586577,-3.88460570076678));
#1168=CARTESIAN_POINT('Ctrl Pts',(-1.26446084188459,13.2645039373553,-3.84835337990889));
#1169=CARTESIAN_POINT('Ctrl Pts',(-1.41291106161351,13.6211892420787,-3.7963624218959));
#1170=CARTESIAN_POINT('Ctrl Pts',(-1.44999999999999,13.8160969487662,-3.78153408023781));
#1171=CARTESIAN_POINT('Ctrl Pts',(-1.44999999999999,14.,-3.78153408023781));
#1172=CARTESIAN_POINT('Ctrl Pts',(-1.44999999999999,14.1839030512338,-3.78153408023781));
#1173=CARTESIAN_POINT('Ctrl Pts',(-1.41291106161351,14.3788107579213,-3.7963624218959));
#1174=CARTESIAN_POINT('Ctrl Pts',(-1.26446084188459,14.7354960626447,-3.84835337990889));
#1175=CARTESIAN_POINT('Ctrl Pts',(-1.15317325201795,14.897436413423,-3.88460570076678));
#1176=CARTESIAN_POINT('Ctrl Pts',(-1.02530483272048,15.0253048327205,-3.91806712550972));
#1177=CARTESIAN_POINT('Origin',(1.38777878078145E-14,14.,-9.49999999999999));
#1178=CARTESIAN_POINT('Origin',(-20.3515969889343,14.,11.75));
#1179=CARTESIAN_POINT('Ctrl Pts',(3.90579808078434,15.0253048327205,-1.07109353099594));
#1180=CARTESIAN_POINT('Ctrl Pts',(3.94075384655887,14.897436413423,-0.943625519171092));
#1181=CARTESIAN_POINT('Ctrl Pts',(3.96500221068311,14.7354960626447,-0.829121478791694));
#1182=CARTESIAN_POINT('Ctrl Pts',(3.99420183014123,14.3788107579213,-0.67456433830258));
#1183=CARTESIAN_POINT('Ctrl Pts',(3.99990457876257,14.1839030512338,-0.635030204631447));
#1184=CARTESIAN_POINT('Ctrl Pts',(3.99990457876257,13.8160969487662,-0.635030204631447));
#1185=CARTESIAN_POINT('Ctrl Pts',(3.99420183014123,13.6211892420787,-0.674564338302578));
#1186=CARTESIAN_POINT('Ctrl Pts',(3.96500221068311,13.2645039373553,-0.829121478791692));
#1187=CARTESIAN_POINT('Ctrl Pts',(3.94075384655887,13.102563586577,-0.943625519171093));
#1188=CARTESIAN_POINT('Ctrl Pts',(3.87086427127598,12.8469070641469,-1.19848147815811));
#1189=CARTESIAN_POINT('Ctrl Pts',(3.82037092616391,12.7355579517293,-1.3563580570798));
#1190=CARTESIAN_POINT('Ctrl Pts',(3.68488510221438,12.5870614496907,-1.69013696974879));
#1191=CARTESIAN_POINT('Ctrl Pts',(3.5992966547447,12.55,-1.86583532246948));
#1192=CARTESIAN_POINT('Ctrl Pts',(3.41550911590928,12.55,-2.18416467753048));
#1193=CARTESIAN_POINT('Ctrl Pts',(3.30614410278492,12.5870614496907,-2.34613562367004));
#1194=CARTESIAN_POINT('Ctrl Pts',(3.0848259971408,12.7355579517293,-2.63035924539749));
#1195=CARTESIAN_POINT('Ctrl Pts',(2.97334754168807,12.8469070641469,-2.75302605444744));
#1196=CARTESIAN_POINT('Ctrl Pts',(2.78758059454092,13.102563586577,-2.94098018159565));
#1197=CARTESIAN_POINT('Ctrl Pts',(2.70054136879851,13.2645039373553,-3.01923190111716));
#1198=CARTESIAN_POINT('Ctrl Pts',(2.58129076852772,13.6211892420787,-3.12179808359329));
#1199=CARTESIAN_POINT('Ctrl Pts',(2.54990457876258,13.8160969487662,-3.14650387560633));
#1200=CARTESIAN_POINT('Ctrl Pts',(2.54990457876258,14.,-3.14650387560633));
#1201=CARTESIAN_POINT('Ctrl Pts',(2.54990457876258,14.1839030512338,-3.14650387560633));
#1202=CARTESIAN_POINT('Ctrl Pts',(2.58129076852772,14.3788107579213,-3.12179808359329));
#1203=CARTESIAN_POINT('Ctrl Pts',(2.70054136879851,14.7354960626447,-3.01923190111716));
#1204=CARTESIAN_POINT('Ctrl Pts',(2.78758059454091,14.897436413423,-2.94098018159565));
#1205=CARTESIAN_POINT('Ctrl Pts',(2.88049324806386,15.0253048327205,-2.84697359451375));
#1206=CARTESIAN_POINT('Origin',(8.22724133595218,14.,-4.74999999999998));
#1207=CARTESIAN_POINT('Origin',(20.3515969889343,14.,11.75));
#1208=CARTESIAN_POINT('Ctrl Pts',(2.88049324806385,15.0253048327205,2.84697359451375));
#1209=CARTESIAN_POINT('Ctrl Pts',(2.78758059454091,14.897436413423,2.94098018159565));
#1210=CARTESIAN_POINT('Ctrl Pts',(2.70054136879851,14.7354960626447,3.01923190111716));
#1211=CARTESIAN_POINT('Ctrl Pts',(2.58129076852772,14.3788107579213,3.12179808359329));
#1212=CARTESIAN_POINT('Ctrl Pts',(2.54990457876258,14.1839030512338,3.14650387560633));
#1213=CARTESIAN_POINT('Ctrl Pts',(2.54990457876258,14.,3.14650387560633));
#1214=CARTESIAN_POINT('Ctrl Pts',(2.54990457876258,13.8160969487662,3.14650387560633));
#1215=CARTESIAN_POINT('Ctrl Pts',(2.58129076852772,13.6211892420787,3.12179808359329));
#1216=CARTESIAN_POINT('Ctrl Pts',(2.70054136879851,13.2645039373553,3.01923190111716));
#1217=CARTESIAN_POINT('Ctrl Pts',(2.78758059454091,13.102563586577,2.94098018159565));
#1218=CARTESIAN_POINT('Ctrl Pts',(2.97334754168807,12.8469070641469,2.75302605444745));
#1219=CARTESIAN_POINT('Ctrl Pts',(3.08482599714079,12.7355579517293,2.6303592453975));
#1220=CARTESIAN_POINT('Ctrl Pts',(3.30614410278492,12.5870614496907,2.34613562367004));
#1221=CARTESIAN_POINT('Ctrl Pts',(3.41550911590927,12.55,2.18416467753048));
#1222=CARTESIAN_POINT('Ctrl Pts',(3.5992966547447,12.55,1.86583532246949));
#1223=CARTESIAN_POINT('Ctrl Pts',(3.68488510221438,12.5870614496907,1.6901369697488));
#1224=CARTESIAN_POINT('Ctrl Pts',(3.82037092616391,12.7355579517293,1.35635805707981));
#1225=CARTESIAN_POINT('Ctrl Pts',(3.87086427127597,12.8469070641469,1.19848147815812));
#1226=CARTESIAN_POINT('Ctrl Pts',(3.94075384655887,13.102563586577,0.943625519171101));
#1227=CARTESIAN_POINT('Ctrl Pts',(3.96500221068311,13.2645039373553,0.8291214787917));
#1228=CARTESIAN_POINT('Ctrl Pts',(3.99420183014123,13.6211892420787,0.674564338302586));
#1229=CARTESIAN_POINT('Ctrl Pts',(3.99990457876257,13.8160969487662,0.635030204631455));
#1230=CARTESIAN_POINT('Ctrl Pts',(3.99990457876257,14.1839030512338,0.635030204631455));
#1231=CARTESIAN_POINT('Ctrl Pts',(3.99420183014123,14.3788107579213,0.674564338302585));
#1232=CARTESIAN_POINT('Ctrl Pts',(3.96500221068311,14.7354960626447,0.829121478791697));
#1233=CARTESIAN_POINT('Ctrl Pts',(3.94075384655887,14.897436413423,0.943625519171098));
#1234=CARTESIAN_POINT('Ctrl Pts',(3.90579808078434,15.0253048327205,1.07109353099594));
#1235=CARTESIAN_POINT('Origin',(8.22724133595217,14.,4.74999999999999));
#1236=CARTESIAN_POINT('Origin',(-1.11022302462516E-14,14.,-23.5));
#1237=CARTESIAN_POINT('Ctrl Pts',(-1.02530483272051,15.0253048327205,3.91806712550972));
#1238=CARTESIAN_POINT('Ctrl Pts',(-1.15317325201798,14.897436413423,3.88460570076678));
#1239=CARTESIAN_POINT('Ctrl Pts',(-1.26446084188462,14.7354960626447,3.84835337990888));
#1240=CARTESIAN_POINT('Ctrl Pts',(-1.41291106161354,14.3788107579213,3.79636242189589));
#1241=CARTESIAN_POINT('Ctrl Pts',(-1.45000000000002,14.1839030512338,3.7815340802378));
#1242=CARTESIAN_POINT('Ctrl Pts',(-1.45000000000002,13.8160969487662,3.7815340802378));
#1243=CARTESIAN_POINT('Ctrl Pts',(-1.41291106161354,13.6211892420787,3.79636242189589));
#1244=CARTESIAN_POINT('Ctrl Pts',(-1.26446084188462,13.2645039373553,3.84835337990888));
#1245=CARTESIAN_POINT('Ctrl Pts',(-1.15317325201798,13.102563586577,3.88460570076678));
#1246=CARTESIAN_POINT('Ctrl Pts',(-0.897516729587931,12.8469070641469,3.95150753260559));
#1247=CARTESIAN_POINT('Ctrl Pts',(-0.735544929023138,12.7355579517293,3.98671730247733));
#1248=CARTESIAN_POINT('Ctrl Pts',(-0.378740999429475,12.5870614496907,4.03627259341887));
#1249=CARTESIAN_POINT('Ctrl Pts',(-0.183787538835441,12.55,4.05));
#1250=CARTESIAN_POINT('Ctrl Pts',(0.183787538835409,12.55,4.05));
#1251=CARTESIAN_POINT('Ctrl Pts',(0.378740999429444,12.5870614496907,4.03627259341887));
#1252=CARTESIAN_POINT('Ctrl Pts',(0.735544929023105,12.7355579517293,3.98671730247734));
#1253=CARTESIAN_POINT('Ctrl Pts',(0.8975167295879,12.8469070641469,3.9515075326056));
#1254=CARTESIAN_POINT('Ctrl Pts',(1.15317325201795,13.102563586577,3.88460570076678));
#1255=CARTESIAN_POINT('Ctrl Pts',(1.26446084188459,13.2645039373553,3.84835337990889));
#1256=CARTESIAN_POINT('Ctrl Pts',(1.41291106161351,13.6211892420787,3.79636242189591));
#1257=CARTESIAN_POINT('Ctrl Pts',(1.44999999999998,13.8160969487662,3.78153408023781));
#1258=CARTESIAN_POINT('Ctrl Pts',(1.44999999999998,14.,3.78153408023781));
#1259=CARTESIAN_POINT('Ctrl Pts',(1.44999999999998,14.1839030512338,3.78153408023781));
#1260=CARTESIAN_POINT('Ctrl Pts',(1.41291106161351,14.3788107579213,3.79636242189591));
#1261=CARTESIAN_POINT('Ctrl Pts',(1.26446084188459,14.7354960626447,3.84835337990889));
#1262=CARTESIAN_POINT('Ctrl Pts',(1.15317325201795,14.897436413423,3.88460570076678));
#1263=CARTESIAN_POINT('Ctrl Pts',(1.02530483272048,15.0253048327205,3.91806712550972));
#1264=CARTESIAN_POINT('Origin',(-1.65978342181461E-14,14.,9.5));
#1265=CARTESIAN_POINT('Origin',(0.,0.,0.));
#1266=CARTESIAN_POINT('',(-4.05,17.,4.95981953654678E-16));
#1267=CARTESIAN_POINT('Origin',(0.,17.,0.));
#1268=CARTESIAN_POINT('',(-4.05,-1.,4.95981953654678E-16));
#1269=CARTESIAN_POINT('',(-4.05,0.,4.95981953654678E-16));
#1270=CARTESIAN_POINT('Origin',(0.,-1.,0.));
#1271=CARTESIAN_POINT('',(-2.88049324806385,15.0253048327205,2.84697359451376));
#1272=CARTESIAN_POINT('',(-3.50740288532698,16.050609665441,2.025));
#1273=CARTESIAN_POINT('Origin',(0.,16.050609665441,0.));
#1274=CARTESIAN_POINT('',(-3.90579808078434,15.0253048327205,1.07109353099595));
#1275=CARTESIAN_POINT('Origin',(0.,16.050609665441,0.));
#1276=CARTESIAN_POINT('Ctrl Pts',(-3.90579808078434,15.0253048327205,1.07109353099594));
#1277=CARTESIAN_POINT('Ctrl Pts',(-3.94075384655887,14.897436413423,0.943625519171098));
#1278=CARTESIAN_POINT('Ctrl Pts',(-3.96500221068311,14.7354960626447,0.829121478791698));
#1279=CARTESIAN_POINT('Ctrl Pts',(-3.99420183014123,14.3788107579213,0.674564338302584));
#1280=CARTESIAN_POINT('Ctrl Pts',(-3.99990457876257,14.1839030512338,0.635030204631453));
#1281=CARTESIAN_POINT('Ctrl Pts',(-3.99990457876257,13.8160969487662,0.635030204631452));
#1282=CARTESIAN_POINT('Ctrl Pts',(-3.99420183014123,13.6211892420787,0.674564338302584));
#1283=CARTESIAN_POINT('Ctrl Pts',(-3.96500221068311,13.2645039373553,0.829121478791697));
#1284=CARTESIAN_POINT('Ctrl Pts',(-3.94075384655887,13.102563586577,0.943625519171101));
#1285=CARTESIAN_POINT('Ctrl Pts',(-3.87086427127598,12.8469070641469,1.19848147815812));
#1286=CARTESIAN_POINT('Ctrl Pts',(-3.82037092616391,12.7355579517293,1.35635805707981));
#1287=CARTESIAN_POINT('Ctrl Pts',(-3.68488510221438,12.5870614496907,1.6901369697488));
#1288=CARTESIAN_POINT('Ctrl Pts',(-3.5992966547447,12.55,1.86583532246949));
#1289=CARTESIAN_POINT('Ctrl Pts',(-3.41550911590927,12.55,2.18416467753049));
#1290=CARTESIAN_POINT('Ctrl Pts',(-3.30614410278492,12.5870614496907,2.34613562367004));
#1291=CARTESIAN_POINT('Ctrl Pts',(-3.08482599714079,12.7355579517293,2.6303592453975));
#1292=CARTESIAN_POINT('Ctrl Pts',(-2.97334754168807,12.8469070641469,2.75302605444745));
#1293=CARTESIAN_POINT('Ctrl Pts',(-2.78758059454091,13.102563586577,2.94098018159565));
#1294=CARTESIAN_POINT('Ctrl Pts',(-2.70054136879851,13.2645039373553,3.01923190111716));
#1295=CARTESIAN_POINT('Ctrl Pts',(-2.58129076852772,13.6211892420787,3.12179808359329));
#1296=CARTESIAN_POINT('Ctrl Pts',(-2.54990457876258,13.8160969487662,3.14650387560633));
#1297=CARTESIAN_POINT('Ctrl Pts',(-2.54990457876258,14.,3.14650387560633));
#1298=CARTESIAN_POINT('Ctrl Pts',(-2.54990457876258,14.1839030512338,3.14650387560633));
#1299=CARTESIAN_POINT('Ctrl Pts',(-2.58129076852772,14.3788107579213,3.12179808359329));
#1300=CARTESIAN_POINT('Ctrl Pts',(-2.70054136879851,14.7354960626447,3.01923190111716));
#1301=CARTESIAN_POINT('Ctrl Pts',(-2.78758059454091,14.897436413423,2.94098018159566));
#1302=CARTESIAN_POINT('Ctrl Pts',(-2.88049324806385,15.0253048327205,2.84697359451375));
#1303=CARTESIAN_POINT('Origin',(-8.73989375231242,15.0253048327205,3.86205996824108));
#1304=CARTESIAN_POINT('',(-8.22724133595217,16.050609665441,4.74999999999999));
#1305=CARTESIAN_POINT('',(-8.22724133595217,16.050609665441,4.74999999999999));
#1306=CARTESIAN_POINT('',(-8.73989375231242,15.0253048327205,3.86205996824109));
#1307=CARTESIAN_POINT('',(-8.36489375231242,15.7753048327205,4.51157902107942));
#1308=CARTESIAN_POINT('',(19.8389445725741,15.0253048327205,-12.6379400317589));
#1309=CARTESIAN_POINT('Origin',(-8.22724133595217,16.050609665441,4.74999999999999));
#1310=CARTESIAN_POINT('',(-7.71458891959192,15.0253048327205,5.63794003175889));
#1311=CARTESIAN_POINT('',(20.8642494052946,15.0253048327205,-10.8620599682411));
#1312=CARTESIAN_POINT('',(-8.34591512777204,16.2879572490807,4.54445096304111));
#1313=CARTESIAN_POINT('Origin',(20.3515969889343,14.,-11.75));
#1314=CARTESIAN_POINT('Origin',(-8.22724133595218,14.,4.74999999999999));
#1315=CARTESIAN_POINT('Origin',(0.,0.,4.05));
#1316=CARTESIAN_POINT('',(-1.3654811810493E-15,-6.93889390390723E-17,-11.15));
#1317=CARTESIAN_POINT('Origin',(0.,0.,0.));
#1318=CARTESIAN_POINT('',(10.,0.,-1.22464679914735E-15));
#1319=CARTESIAN_POINT('Origin',(0.,0.,0.));
#1320=CARTESIAN_POINT('Origin',(0.,-8.32667268468867E-16,0.));
#1321=CARTESIAN_POINT('',(-1.45732969098535E-15,1.,-11.9));
#1322=CARTESIAN_POINT('Origin',(0.,1.,0.));
#1323=CARTESIAN_POINT('',(-1.45732969098535E-15,-1.,-11.9));
#1324=CARTESIAN_POINT('',(-1.45732969098535E-15,-8.32667268468867E-16,-11.9));
#1325=CARTESIAN_POINT('Origin',(0.,-1.,0.));
#1326=CARTESIAN_POINT('Origin',(0.,1.,11.15));
#1327=CARTESIAN_POINT('',(-1.3654811810493E-15,1.,-11.15));
#1328=CARTESIAN_POINT('Origin',(0.,1.,0.));
#1329=CARTESIAN_POINT('Origin',(0.,0.5,0.));
#1330=CARTESIAN_POINT('',(-1.3654811810493E-15,0.5,-11.15));
#1331=CARTESIAN_POINT('Origin',(0.,-1.,11.9));
#1332=CARTESIAN_POINT('Origin',(8.22724133595217,11.,-4.74999999999999));
#1333=CARTESIAN_POINT('',(6.66599183635257,11.,-7.454163456598));
#1334=CARTESIAN_POINT('',(9.78849083555177,11.,-2.04583654340199));
#1335=CARTESIAN_POINT('Origin',(0.,11.,0.));
#1336=CARTESIAN_POINT('',(8.22724133595217,11.,-4.74999999999999));
#1337=CARTESIAN_POINT('Origin',(8.22724133595217,17.,-4.74999999999999));
#1338=CARTESIAN_POINT('',(6.66599183635256,17.,-7.454163456598));
#1339=CARTESIAN_POINT('',(6.66599183635257,0.,-7.45416345659799));
#1340=CARTESIAN_POINT('',(9.78849083555177,17.,-2.04583654340199));
#1341=CARTESIAN_POINT('',(8.22724133595217,17.,-4.74999999999999));
#1342=CARTESIAN_POINT('',(9.78849083555177,0.,-2.045836543402));
#1343=CARTESIAN_POINT('Origin',(8.22724133595216,11.,4.75));
#1344=CARTESIAN_POINT('',(9.78849083555177,11.,2.045836543402));
#1345=CARTESIAN_POINT('',(6.66599183635256,11.,7.454163456598));
#1346=CARTESIAN_POINT('Origin',(0.,11.,0.));
#1347=CARTESIAN_POINT('',(8.22724133595216,11.,4.75));
#1348=CARTESIAN_POINT('Origin',(8.22724133595216,17.,4.75));
#1349=CARTESIAN_POINT('',(9.78849083555177,17.,2.045836543402));
#1350=CARTESIAN_POINT('',(9.78849083555177,0.,2.04583654340201));
#1351=CARTESIAN_POINT('',(6.66599183635255,17.,7.45416345659801));
#1352=CARTESIAN_POINT('',(8.22724133595216,17.,4.75));
#1353=CARTESIAN_POINT('',(6.66599183635256,0.,7.454163456598));
#1354=CARTESIAN_POINT('Origin',(-1.66533453693773E-15,11.,9.5));
#1355=CARTESIAN_POINT('',(3.12249899919921,11.,9.5));
#1356=CARTESIAN_POINT('',(-3.12249899919921,11.,9.5));
#1357=CARTESIAN_POINT('Origin',(0.,11.,0.));
#1358=CARTESIAN_POINT('',(-1.66533453693773E-15,11.,9.5));
#1359=CARTESIAN_POINT('Origin',(-1.66533453693773E-15,17.,9.5));
#1360=CARTESIAN_POINT('',(3.12249899919921,17.,9.49999999999999));
#1361=CARTESIAN_POINT('',(3.1224989991992,0.,9.5));
#1362=CARTESIAN_POINT('',(-3.12249899919922,17.,9.49999999999999));
#1363=CARTESIAN_POINT('',(-1.62370117351429E-15,17.,9.5));
#1364=CARTESIAN_POINT('',(-3.1224989991992,0.,9.5));
#1365=CARTESIAN_POINT('Origin',(-8.22724133595217,11.,4.75));
#1366=CARTESIAN_POINT('',(-6.66599183635256,11.,7.454163456598));
#1367=CARTESIAN_POINT('',(-9.78849083555177,11.,2.04583654340199));
#1368=CARTESIAN_POINT('Origin',(0.,11.,0.));
#1369=CARTESIAN_POINT('',(-8.22724133595217,11.,4.75));
#1370=CARTESIAN_POINT('Origin',(-8.22724133595217,17.,4.75));
#1371=CARTESIAN_POINT('',(-6.66599183635256,17.,7.454163456598));
#1372=CARTESIAN_POINT('',(-6.66599183635257,0.,7.45416345659799));
#1373=CARTESIAN_POINT('',(-9.78849083555177,17.,2.04583654340199));
#1374=CARTESIAN_POINT('',(-8.22724133595217,17.,4.75));
#1375=CARTESIAN_POINT('',(-9.78849083555177,0.,2.045836543402));
#1376=CARTESIAN_POINT('Origin',(-8.22724133595216,11.,-4.75));
#1377=CARTESIAN_POINT('',(-9.78849083555177,11.,-2.045836543402));
#1378=CARTESIAN_POINT('',(-6.66599183635256,11.,-7.454163456598));
#1379=CARTESIAN_POINT('Origin',(0.,11.,0.));
#1380=CARTESIAN_POINT('',(-8.22724133595216,11.,-4.75));
#1381=CARTESIAN_POINT('Origin',(-8.22724133595216,17.,-4.75));
#1382=CARTESIAN_POINT('',(-9.78849083555177,17.,-2.04583654340199));
#1383=CARTESIAN_POINT('',(-9.78849083555177,0.,-2.04583654340201));
#1384=CARTESIAN_POINT('',(-6.66599183635256,17.,-7.454163456598));
#1385=CARTESIAN_POINT('',(-8.22724133595216,17.,-4.75));
#1386=CARTESIAN_POINT('',(-6.66599183635256,0.,-7.454163456598));
#1387=CARTESIAN_POINT('Origin',(0.,17.,0.));
#1388=CARTESIAN_POINT('',(3.12249899919921,17.,-9.49999999999999));
#1389=CARTESIAN_POINT('Origin',(0.,17.,0.));
#1390=CARTESIAN_POINT('',(-3.12249899919921,17.,-9.49999999999999));
#1391=CARTESIAN_POINT('',(0.,17.,-9.49999999999999));
#1392=CARTESIAN_POINT('Origin',(0.,17.,0.));
#1393=CARTESIAN_POINT('Origin',(0.,17.,0.));
#1394=CARTESIAN_POINT('Origin',(0.,17.,0.));
#1395=CARTESIAN_POINT('Origin',(0.,17.,0.));
#1396=CARTESIAN_POINT('',(10.,17.,-1.22464679914735E-15));
#1397=CARTESIAN_POINT('Origin',(0.,17.,0.));
#1398=CARTESIAN_POINT('Origin',(0.,17.,0.));
#1399=CARTESIAN_POINT('Origin',(0.,11.,-9.5));
#1400=CARTESIAN_POINT('',(-3.12249899919921,11.,-9.5));
#1401=CARTESIAN_POINT('',(3.12249899919921,11.,-9.5));
#1402=CARTESIAN_POINT('Origin',(0.,11.,0.));
#1403=CARTESIAN_POINT('',(0.,11.,-9.5));
#1404=CARTESIAN_POINT('Origin',(0.,17.,-9.49999999999999));
#1405=CARTESIAN_POINT('',(-3.1224989991992,0.,-9.5));
#1406=CARTESIAN_POINT('',(3.1224989991992,0.,-9.5));
#1407=CARTESIAN_POINT('Origin',(0.,0.,0.));
#1408=CARTESIAN_POINT('',(10.,0.,-1.22464679914735E-15));
#1409=UNCERTAINTY_MEASURE_WITH_UNIT(LENGTH_MEASURE(0.01),#1413,
'DISTANCE_ACCURACY_VALUE',
'Maximum model space distance between geometric entities at asserted c
onnectivities');
#1410=UNCERTAINTY_MEASURE_WITH_UNIT(LENGTH_MEASURE(0.01),#1413,
'DISTANCE_ACCURACY_VALUE',
'Maximum model space distance between geometric entities at asserted c
onnectivities');
#1411=(
GEOMETRIC_REPRESENTATION_CONTEXT(3)
GLOBAL_UNCERTAINTY_ASSIGNED_CONTEXT((#1409))
GLOBAL_UNIT_ASSIGNED_CONTEXT((#1413,#1415,#1416))
REPRESENTATION_CONTEXT('','3D')
);
#1412=(
GEOMETRIC_REPRESENTATION_CONTEXT(3)
GLOBAL_UNCERTAINTY_ASSIGNED_CONTEXT((#1410))
GLOBAL_UNIT_ASSIGNED_CONTEXT((#1413,#1415,#1416))
REPRESENTATION_CONTEXT('','3D')
);
#1413=(
LENGTH_UNIT()
NAMED_UNIT(*)
SI_UNIT(.MILLI.,.METRE.)
);
#1414=(
LENGTH_UNIT()
NAMED_UNIT(*)
SI_UNIT(.CENTI.,.METRE.)
);
#1415=(
NAMED_UNIT(*)
PLANE_ANGLE_UNIT()
SI_UNIT($,.RADIAN.)
);
#1416=(
NAMED_UNIT(*)
SI_UNIT($,.STERADIAN.)
SOLID_ANGLE_UNIT()
);
#1417=SHAPE_DEFINITION_REPRESENTATION(#1418,#1419);
#1418=PRODUCT_DEFINITION_SHAPE('',$,#1421);
#1419=SHAPE_REPRESENTATION('',(#755),#1411);
#1420=PRODUCT_DEFINITION_CONTEXT('part definition',#1425,'design');
#1421=PRODUCT_DEFINITION('comutator_plastic','commutator_plastic',#1422,
#1420);
#1422=PRODUCT_DEFINITION_FORMATION('',$,#1427);
#1423=PRODUCT_RELATED_PRODUCT_CATEGORY('commutator_plastic',
'commutator_plastic',(#1427));
#1424=APPLICATION_PROTOCOL_DEFINITION('international standard',
'automotive_design',2009,#1425);
#1425=APPLICATION_CONTEXT(
'Core Data for Automotive Mechanical Design Process');
#1426=PRODUCT_CONTEXT('part definition',#1425,'mechanical');
#1427=PRODUCT('comutator_plastic','commutator_plastic',$,(#1426));
#1428=PRESENTATION_STYLE_ASSIGNMENT((#1429));
#1429=SURFACE_STYLE_USAGE(.BOTH.,#1432);
#1430=SURFACE_STYLE_RENDERING_WITH_PROPERTIES($,#1436,(#1431));
#1431=SURFACE_STYLE_TRANSPARENT(0.);
#1432=SURFACE_SIDE_STYLE('',(#1433,#1430));
#1433=SURFACE_STYLE_FILL_AREA(#1434);
#1434=FILL_AREA_STYLE('',(#1435));
#1435=FILL_AREA_STYLE_COLOUR('',#1436);
#1436=COLOUR_RGB('',0.0196078431372549,0.0196078431372549,0.0196078431372549);
ENDSEC;
END-ISO-10303-21;
