ISO-10303-21;
HEADER;
/* Generated by software containing ST-Developer
 * from STEP Tools, Inc. (www.steptools.com) 
 */

FILE_DESCRIPTION(
/* description */ (''),
/* implementation_level */ '2;1');

FILE_NAME(
/* name */ 'sleeve.stp',
/* time_stamp */ '2026-08-21T13:30:49+02:00',
/* author */ ('zzapa'),
/* organization */ (''),
/* preprocessor_version */ 'ST-DEVELOPER v20',
/* originating_system */ 'Autodesk Inventor 2025',
/* authorisation */ '');

FILE_SCHEMA (('AUTOMOTIVE_DESIGN { 1 0 10303 214 3 1 1 }'));
ENDSEC;

DATA;
#10=MECHANICAL_DESIGN_GEOMETRIC_PRESENTATION_REPRESENTATION('',(#13),#536);
#11=SHAPE_REPRESENTATION_RELATIONSHIP('SRR','None',#543,#12);
#12=ADVANCED_BREP_SHAPE_REPRESENTATION('',(#14),#535);
#13=STYLED_ITEM('',(#552),#14);
#14=MANIFOLD_SOLID_BREP('Bry\X2\0142\X0\a1',#291);
#15=CONICAL_SURFACE('',#327,1.7,0.785398163397452);
#16=CONICAL_SURFACE('',#338,1.7,0.785398163397451);
#17=CONICAL_SURFACE('',#343,1.7,0.785398163397452);
#18=LINE('',#462,#30);
#19=LINE('',#469,#31);
#20=LINE('',#475,#32);
#21=LINE('',#482,#33);
#22=LINE('',#497,#34);
#23=LINE('',#501,#35);
#24=LINE('',#507,#36);
#25=LINE('',#511,#37);
#26=LINE('',#517,#38);
#27=LINE('',#521,#39);
#28=LINE('',#526,#40);
#29=LINE('',#531,#41);
#30=VECTOR('',#366,11.5);
#31=VECTOR('',#375,11.1);
#32=VECTOR('',#382,10.);
#33=VECTOR('',#391,1.7);
#34=VECTOR('',#408,1.45);
#35=VECTOR('',#413,1.7);
#36=VECTOR('',#420,1.45);
#37=VECTOR('',#425,1.7);
#38=VECTOR('',#432,1.45);
#39=VECTOR('',#437,14.1);
#40=VECTOR('',#444,22.);
#41=VECTOR('',#451,11.1);
#42=CYLINDRICAL_SURFACE('',#317,11.5);
#43=CYLINDRICAL_SURFACE('',#321,11.1);
#44=CYLINDRICAL_SURFACE('',#323,10.);
#45=CYLINDRICAL_SURFACE('',#336,1.45);
#46=CYLINDRICAL_SURFACE('',#341,1.45);
#47=CYLINDRICAL_SURFACE('',#346,1.45);
#48=CYLINDRICAL_SURFACE('',#348,14.1);
#49=CYLINDRICAL_SURFACE('',#350,22.);
#50=CYLINDRICAL_SURFACE('',#354,11.1);
#51=FACE_BOUND('',#82,.T.);
#52=FACE_BOUND('',#85,.T.);
#53=FACE_BOUND('',#89,.T.);
#54=FACE_BOUND('',#92,.T.);
#55=FACE_BOUND('',#93,.T.);
#56=FACE_BOUND('',#94,.T.);
#57=FACE_BOUND('',#95,.T.);
#58=FACE_BOUND('',#104,.T.);
#59=FACE_BOUND('',#105,.T.);
#60=FACE_BOUND('',#106,.T.);
#61=FACE_BOUND('',#107,.T.);
#62=FACE_BOUND('',#110,.T.);
#63=FACE_OUTER_BOUND('',#81,.T.);
#64=FACE_OUTER_BOUND('',#83,.T.);
#65=FACE_OUTER_BOUND('',#84,.T.);
#66=FACE_OUTER_BOUND('',#86,.T.);
#67=FACE_OUTER_BOUND('',#87,.T.);
#68=FACE_OUTER_BOUND('',#88,.T.);
#69=FACE_OUTER_BOUND('',#90,.T.);
#70=FACE_OUTER_BOUND('',#91,.T.);
#71=FACE_OUTER_BOUND('',#96,.T.);
#72=FACE_OUTER_BOUND('',#97,.T.);
#73=FACE_OUTER_BOUND('',#98,.T.);
#74=FACE_OUTER_BOUND('',#99,.T.);
#75=FACE_OUTER_BOUND('',#100,.T.);
#76=FACE_OUTER_BOUND('',#101,.T.);
#77=FACE_OUTER_BOUND('',#102,.T.);
#78=FACE_OUTER_BOUND('',#103,.T.);
#79=FACE_OUTER_BOUND('',#108,.T.);
#80=FACE_OUTER_BOUND('',#109,.T.);
#81=EDGE_LOOP('',(#195));
#82=EDGE_LOOP('',(#196));
#83=EDGE_LOOP('',(#197,#198,#199,#200));
#84=EDGE_LOOP('',(#201));
#85=EDGE_LOOP('',(#202));
#86=EDGE_LOOP('',(#203,#204,#205,#206));
#87=EDGE_LOOP('',(#207,#208,#209,#210));
#88=EDGE_LOOP('',(#211));
#89=EDGE_LOOP('',(#212));
#90=EDGE_LOOP('',(#213,#214,#215,#216,#217));
#91=EDGE_LOOP('',(#218));
#92=EDGE_LOOP('',(#219));
#93=EDGE_LOOP('',(#220));
#94=EDGE_LOOP('',(#221));
#95=EDGE_LOOP('',(#222));
#96=EDGE_LOOP('',(#223,#224,#225,#226,#227));
#97=EDGE_LOOP('',(#228,#229,#230,#231,#232));
#98=EDGE_LOOP('',(#233,#234,#235,#236,#237));
#99=EDGE_LOOP('',(#238,#239,#240,#241,#242));
#100=EDGE_LOOP('',(#243,#244,#245,#246,#247));
#101=EDGE_LOOP('',(#248,#249,#250,#251));
#102=EDGE_LOOP('',(#252,#253,#254,#255));
#103=EDGE_LOOP('',(#256));
#104=EDGE_LOOP('',(#257));
#105=EDGE_LOOP('',(#258));
#106=EDGE_LOOP('',(#259));
#107=EDGE_LOOP('',(#260));
#108=EDGE_LOOP('',(#261,#262,#263,#264));
#109=EDGE_LOOP('',(#265));
#110=EDGE_LOOP('',(#266));
#111=CIRCLE('',#315,11.5);
#112=CIRCLE('',#316,11.1);
#113=CIRCLE('',#318,11.5);
#114=CIRCLE('',#320,11.1);
#115=CIRCLE('',#322,11.1);
#116=CIRCLE('',#324,10.);
#117=CIRCLE('',#325,10.);
#118=CIRCLE('',#328,1.95);
#119=CIRCLE('',#329,1.45);
#120=CIRCLE('',#330,1.45);
#121=CIRCLE('',#332,22.);
#122=CIRCLE('',#333,1.95);
#123=CIRCLE('',#334,14.1);
#124=CIRCLE('',#335,1.95);
#125=CIRCLE('',#337,1.45);
#126=CIRCLE('',#339,1.45);
#127=CIRCLE('',#340,1.45);
#128=CIRCLE('',#342,1.45);
#129=CIRCLE('',#344,1.45);
#130=CIRCLE('',#345,1.45);
#131=CIRCLE('',#347,1.45);
#132=CIRCLE('',#349,14.1);
#133=CIRCLE('',#351,22.);
#134=CIRCLE('',#353,11.1);
#135=VERTEX_POINT('',#456);
#136=VERTEX_POINT('',#458);
#137=VERTEX_POINT('',#461);
#138=VERTEX_POINT('',#465);
#139=VERTEX_POINT('',#468);
#140=VERTEX_POINT('',#472);
#141=VERTEX_POINT('',#474);
#142=VERTEX_POINT('',#479);
#143=VERTEX_POINT('',#481);
#144=VERTEX_POINT('',#483);
#145=VERTEX_POINT('',#487);
#146=VERTEX_POINT('',#489);
#147=VERTEX_POINT('',#491);
#148=VERTEX_POINT('',#493);
#149=VERTEX_POINT('',#496);
#150=VERTEX_POINT('',#500);
#151=VERTEX_POINT('',#502);
#152=VERTEX_POINT('',#506);
#153=VERTEX_POINT('',#510);
#154=VERTEX_POINT('',#512);
#155=VERTEX_POINT('',#516);
#156=VERTEX_POINT('',#520);
#157=VERTEX_POINT('',#524);
#158=VERTEX_POINT('',#528);
#159=EDGE_CURVE('',#135,#135,#111,.T.);
#160=EDGE_CURVE('',#136,#136,#112,.T.);
#161=EDGE_CURVE('',#135,#137,#18,.T.);
#162=EDGE_CURVE('',#137,#137,#113,.T.);
#163=EDGE_CURVE('',#138,#138,#114,.T.);
#164=EDGE_CURVE('',#138,#139,#19,.T.);
#165=EDGE_CURVE('',#139,#139,#115,.T.);
#166=EDGE_CURVE('',#140,#140,#116,.T.);
#167=EDGE_CURVE('',#140,#141,#20,.T.);
#168=EDGE_CURVE('',#141,#141,#117,.T.);
#169=EDGE_CURVE('',#142,#142,#118,.T.);
#170=EDGE_CURVE('',#142,#143,#21,.T.);
#171=EDGE_CURVE('',#143,#144,#119,.T.);
#172=EDGE_CURVE('',#144,#143,#120,.T.);
#173=EDGE_CURVE('',#145,#145,#121,.T.);
#174=EDGE_CURVE('',#146,#146,#122,.T.);
#175=EDGE_CURVE('',#147,#147,#123,.T.);
#176=EDGE_CURVE('',#148,#148,#124,.T.);
#177=EDGE_CURVE('',#144,#149,#22,.T.);
#178=EDGE_CURVE('',#149,#149,#125,.T.);
#179=EDGE_CURVE('',#146,#150,#23,.T.);
#180=EDGE_CURVE('',#150,#151,#126,.T.);
#181=EDGE_CURVE('',#151,#150,#127,.T.);
#182=EDGE_CURVE('',#151,#152,#24,.T.);
#183=EDGE_CURVE('',#152,#152,#128,.T.);
#184=EDGE_CURVE('',#148,#153,#25,.T.);
#185=EDGE_CURVE('',#153,#154,#129,.T.);
#186=EDGE_CURVE('',#154,#153,#130,.T.);
#187=EDGE_CURVE('',#154,#155,#26,.T.);
#188=EDGE_CURVE('',#155,#155,#131,.T.);
#189=EDGE_CURVE('',#147,#156,#27,.T.);
#190=EDGE_CURVE('',#156,#156,#132,.T.);
#191=EDGE_CURVE('',#157,#157,#133,.T.);
#192=EDGE_CURVE('',#157,#145,#28,.T.);
#193=EDGE_CURVE('',#158,#158,#134,.T.);
#194=EDGE_CURVE('',#158,#136,#29,.T.);
#195=ORIENTED_EDGE('',*,*,#159,.T.);
#196=ORIENTED_EDGE('',*,*,#160,.F.);
#197=ORIENTED_EDGE('',*,*,#159,.F.);
#198=ORIENTED_EDGE('',*,*,#161,.T.);
#199=ORIENTED_EDGE('',*,*,#162,.T.);
#200=ORIENTED_EDGE('',*,*,#161,.F.);
#201=ORIENTED_EDGE('',*,*,#162,.F.);
#202=ORIENTED_EDGE('',*,*,#163,.F.);
#203=ORIENTED_EDGE('',*,*,#163,.T.);
#204=ORIENTED_EDGE('',*,*,#164,.T.);
#205=ORIENTED_EDGE('',*,*,#165,.T.);
#206=ORIENTED_EDGE('',*,*,#164,.F.);
#207=ORIENTED_EDGE('',*,*,#166,.T.);
#208=ORIENTED_EDGE('',*,*,#167,.T.);
#209=ORIENTED_EDGE('',*,*,#168,.F.);
#210=ORIENTED_EDGE('',*,*,#167,.F.);
#211=ORIENTED_EDGE('',*,*,#165,.F.);
#212=ORIENTED_EDGE('',*,*,#166,.F.);
#213=ORIENTED_EDGE('',*,*,#169,.T.);
#214=ORIENTED_EDGE('',*,*,#170,.T.);
#215=ORIENTED_EDGE('',*,*,#171,.T.);
#216=ORIENTED_EDGE('',*,*,#172,.T.);
#217=ORIENTED_EDGE('',*,*,#170,.F.);
#218=ORIENTED_EDGE('',*,*,#173,.F.);
#219=ORIENTED_EDGE('',*,*,#174,.F.);
#220=ORIENTED_EDGE('',*,*,#175,.T.);
#221=ORIENTED_EDGE('',*,*,#176,.F.);
#222=ORIENTED_EDGE('',*,*,#169,.F.);
#223=ORIENTED_EDGE('',*,*,#171,.F.);
#224=ORIENTED_EDGE('',*,*,#172,.F.);
#225=ORIENTED_EDGE('',*,*,#177,.T.);
#226=ORIENTED_EDGE('',*,*,#178,.F.);
#227=ORIENTED_EDGE('',*,*,#177,.F.);
#228=ORIENTED_EDGE('',*,*,#174,.T.);
#229=ORIENTED_EDGE('',*,*,#179,.T.);
#230=ORIENTED_EDGE('',*,*,#180,.T.);
#231=ORIENTED_EDGE('',*,*,#181,.T.);
#232=ORIENTED_EDGE('',*,*,#179,.F.);
#233=ORIENTED_EDGE('',*,*,#180,.F.);
#234=ORIENTED_EDGE('',*,*,#181,.F.);
#235=ORIENTED_EDGE('',*,*,#182,.T.);
#236=ORIENTED_EDGE('',*,*,#183,.F.);
#237=ORIENTED_EDGE('',*,*,#182,.F.);
#238=ORIENTED_EDGE('',*,*,#176,.T.);
#239=ORIENTED_EDGE('',*,*,#184,.T.);
#240=ORIENTED_EDGE('',*,*,#185,.T.);
#241=ORIENTED_EDGE('',*,*,#186,.T.);
#242=ORIENTED_EDGE('',*,*,#184,.F.);
#243=ORIENTED_EDGE('',*,*,#185,.F.);
#244=ORIENTED_EDGE('',*,*,#186,.F.);
#245=ORIENTED_EDGE('',*,*,#187,.T.);
#246=ORIENTED_EDGE('',*,*,#188,.F.);
#247=ORIENTED_EDGE('',*,*,#187,.F.);
#248=ORIENTED_EDGE('',*,*,#175,.F.);
#249=ORIENTED_EDGE('',*,*,#189,.T.);
#250=ORIENTED_EDGE('',*,*,#190,.T.);
#251=ORIENTED_EDGE('',*,*,#189,.F.);
#252=ORIENTED_EDGE('',*,*,#191,.F.);
#253=ORIENTED_EDGE('',*,*,#192,.T.);
#254=ORIENTED_EDGE('',*,*,#173,.T.);
#255=ORIENTED_EDGE('',*,*,#192,.F.);
#256=ORIENTED_EDGE('',*,*,#191,.T.);
#257=ORIENTED_EDGE('',*,*,#178,.T.);
#258=ORIENTED_EDGE('',*,*,#188,.T.);
#259=ORIENTED_EDGE('',*,*,#183,.T.);
#260=ORIENTED_EDGE('',*,*,#193,.F.);
#261=ORIENTED_EDGE('',*,*,#193,.T.);
#262=ORIENTED_EDGE('',*,*,#194,.T.);
#263=ORIENTED_EDGE('',*,*,#160,.T.);
#264=ORIENTED_EDGE('',*,*,#194,.F.);
#265=ORIENTED_EDGE('',*,*,#190,.F.);
#266=ORIENTED_EDGE('',*,*,#168,.T.);
#267=PLANE('',#314);
#268=PLANE('',#319);
#269=PLANE('',#326);
#270=PLANE('',#331);
#271=PLANE('',#352);
#272=PLANE('',#355);
#273=ADVANCED_FACE('',(#63,#51),#267,.F.);
#274=ADVANCED_FACE('',(#64),#42,.F.);
#275=ADVANCED_FACE('',(#65,#52),#268,.F.);
#276=ADVANCED_FACE('',(#66),#43,.F.);
#277=ADVANCED_FACE('',(#67),#44,.F.);
#278=ADVANCED_FACE('',(#68,#53),#269,.T.);
#279=ADVANCED_FACE('',(#69),#15,.F.);
#280=ADVANCED_FACE('',(#70,#54,#55,#56,#57),#270,.T.);
#281=ADVANCED_FACE('',(#71),#45,.F.);
#282=ADVANCED_FACE('',(#72),#16,.F.);
#283=ADVANCED_FACE('',(#73),#46,.F.);
#284=ADVANCED_FACE('',(#74),#17,.F.);
#285=ADVANCED_FACE('',(#75),#47,.F.);
#286=ADVANCED_FACE('',(#76),#48,.T.);
#287=ADVANCED_FACE('',(#77),#49,.T.);
#288=ADVANCED_FACE('',(#78,#58,#59,#60,#61),#271,.T.);
#289=ADVANCED_FACE('',(#79),#50,.F.);
#290=ADVANCED_FACE('',(#80,#62),#272,.T.);
#291=CLOSED_SHELL('',(#273,#274,#275,#276,#277,#278,#279,#280,#281,#282,
#283,#284,#285,#286,#287,#288,#289,#290));
#292=DERIVED_UNIT_ELEMENT(#295,1.);
#293=DERIVED_UNIT_ELEMENT(#538,-3.);
#294=DIMENSIONAL_EXPONENTS(0.,1.,0.,0.,0.,0.,0.);
#295=(
CONVERSION_BASED_UNIT('gram',#297)
MASS_UNIT()
NAMED_UNIT(#294)
);
#296=(
MASS_UNIT()
NAMED_UNIT(*)
SI_UNIT(.KILO.,.GRAM.)
);
#297=MASS_MEASURE_WITH_UNIT(MASS_MEASURE(0.001),#296);
#298=DERIVED_UNIT((#292,#293));
#299=MEASURE_REPRESENTATION_ITEM('density measure',
POSITIVE_RATIO_MEASURE(1.),#298);
#300=PROPERTY_DEFINITION_REPRESENTATION(#305,#302);
#301=PROPERTY_DEFINITION_REPRESENTATION(#306,#303);
#302=REPRESENTATION('material name',(#304),#535);
#303=REPRESENTATION('density',(#299),#535);
#304=DESCRIPTIVE_REPRESENTATION_ITEM('Og\X\F3lny','Og\X\F3lny');
#305=PROPERTY_DEFINITION('material property','material name',#545);
#306=PROPERTY_DEFINITION('material property','density of part',#545);
#307=DATE_TIME_ROLE('creation_date');
#308=APPLIED_DATE_AND_TIME_ASSIGNMENT(#309,#307,(#545));
#309=DATE_AND_TIME(#310,#311);
#310=CALENDAR_DATE(2026,10,8);
#311=LOCAL_TIME(0,0,0.,#312);
#312=COORDINATED_UNIVERSAL_TIME_OFFSET(0,0,.BEHIND.);
#313=AXIS2_PLACEMENT_3D('',#454,#356,#357);
#314=AXIS2_PLACEMENT_3D('',#455,#358,#359);
#315=AXIS2_PLACEMENT_3D('',#457,#360,#361);
#316=AXIS2_PLACEMENT_3D('',#459,#362,#363);
#317=AXIS2_PLACEMENT_3D('',#460,#364,#365);
#318=AXIS2_PLACEMENT_3D('',#463,#367,#368);
#319=AXIS2_PLACEMENT_3D('',#464,#369,#370);
#320=AXIS2_PLACEMENT_3D('',#466,#371,#372);
#321=AXIS2_PLACEMENT_3D('',#467,#373,#374);
#322=AXIS2_PLACEMENT_3D('',#470,#376,#377);
#323=AXIS2_PLACEMENT_3D('',#471,#378,#379);
#324=AXIS2_PLACEMENT_3D('',#473,#380,#381);
#325=AXIS2_PLACEMENT_3D('',#476,#383,#384);
#326=AXIS2_PLACEMENT_3D('',#477,#385,#386);
#327=AXIS2_PLACEMENT_3D('',#478,#387,#388);
#328=AXIS2_PLACEMENT_3D('',#480,#389,#390);
#329=AXIS2_PLACEMENT_3D('',#484,#392,#393);
#330=AXIS2_PLACEMENT_3D('',#485,#394,#395);
#331=AXIS2_PLACEMENT_3D('',#486,#396,#397);
#332=AXIS2_PLACEMENT_3D('',#488,#398,#399);
#333=AXIS2_PLACEMENT_3D('',#490,#400,#401);
#334=AXIS2_PLACEMENT_3D('',#492,#402,#403);
#335=AXIS2_PLACEMENT_3D('',#494,#404,#405);
#336=AXIS2_PLACEMENT_3D('',#495,#406,#407);
#337=AXIS2_PLACEMENT_3D('',#498,#409,#410);
#338=AXIS2_PLACEMENT_3D('',#499,#411,#412);
#339=AXIS2_PLACEMENT_3D('',#503,#414,#415);
#340=AXIS2_PLACEMENT_3D('',#504,#416,#417);
#341=AXIS2_PLACEMENT_3D('',#505,#418,#419);
#342=AXIS2_PLACEMENT_3D('',#508,#421,#422);
#343=AXIS2_PLACEMENT_3D('',#509,#423,#424);
#344=AXIS2_PLACEMENT_3D('',#513,#426,#427);
#345=AXIS2_PLACEMENT_3D('',#514,#428,#429);
#346=AXIS2_PLACEMENT_3D('',#515,#430,#431);
#347=AXIS2_PLACEMENT_3D('',#518,#433,#434);
#348=AXIS2_PLACEMENT_3D('',#519,#435,#436);
#349=AXIS2_PLACEMENT_3D('',#522,#438,#439);
#350=AXIS2_PLACEMENT_3D('',#523,#440,#441);
#351=AXIS2_PLACEMENT_3D('',#525,#442,#443);
#352=AXIS2_PLACEMENT_3D('',#527,#445,#446);
#353=AXIS2_PLACEMENT_3D('',#529,#447,#448);
#354=AXIS2_PLACEMENT_3D('',#530,#449,#450);
#355=AXIS2_PLACEMENT_3D('',#532,#452,#453);
#356=DIRECTION('axis',(0.,0.,1.));
#357=DIRECTION('refdir',(1.,0.,0.));
#358=DIRECTION('center_axis',(0.,1.,0.));
#359=DIRECTION('ref_axis',(0.,0.,1.));
#360=DIRECTION('center_axis',(0.,-1.,0.));
#361=DIRECTION('ref_axis',(1.,0.,0.));
#362=DIRECTION('center_axis',(0.,-1.,0.));
#363=DIRECTION('ref_axis',(1.,0.,0.));
#364=DIRECTION('center_axis',(0.,-1.,0.));
#365=DIRECTION('ref_axis',(-1.,0.,0.));
#366=DIRECTION('',(0.,-1.,0.));
#367=DIRECTION('center_axis',(0.,-1.,0.));
#368=DIRECTION('ref_axis',(1.,0.,0.));
#369=DIRECTION('center_axis',(0.,-1.,0.));
#370=DIRECTION('ref_axis',(0.,0.,-1.));
#371=DIRECTION('center_axis',(0.,1.,0.));
#372=DIRECTION('ref_axis',(1.,0.,0.));
#373=DIRECTION('center_axis',(0.,1.,0.));
#374=DIRECTION('ref_axis',(1.,0.,0.));
#375=DIRECTION('',(0.,-1.,0.));
#376=DIRECTION('center_axis',(0.,-1.,0.));
#377=DIRECTION('ref_axis',(1.,0.,0.));
#378=DIRECTION('center_axis',(0.,1.,0.));
#379=DIRECTION('ref_axis',(0.,0.,1.));
#380=DIRECTION('center_axis',(0.,1.,0.));
#381=DIRECTION('ref_axis',(1.,0.,0.));
#382=DIRECTION('',(0.,-1.,0.));
#383=DIRECTION('center_axis',(0.,1.,0.));
#384=DIRECTION('ref_axis',(1.,0.,0.));
#385=DIRECTION('center_axis',(0.,1.,0.));
#386=DIRECTION('ref_axis',(0.,0.,1.));
#387=DIRECTION('center_axis',(0.,-1.,0.));
#388=DIRECTION('ref_axis',(-1.,0.,0.));
#389=DIRECTION('center_axis',(0.,-1.,0.));
#390=DIRECTION('ref_axis',(-1.,0.,0.));
#391=DIRECTION('',(-0.70710678118655,0.707106781186545,-8.65956056235496E-17));
#392=DIRECTION('center_axis',(0.,1.,0.));
#393=DIRECTION('ref_axis',(-1.,0.,0.));
#394=DIRECTION('center_axis',(0.,1.,0.));
#395=DIRECTION('ref_axis',(-1.,0.,0.));
#396=DIRECTION('center_axis',(0.,-1.,0.));
#397=DIRECTION('ref_axis',(0.,0.,-1.));
#398=DIRECTION('center_axis',(0.,1.,0.));
#399=DIRECTION('ref_axis',(1.,0.,0.));
#400=DIRECTION('center_axis',(0.,-1.,0.));
#401=DIRECTION('ref_axis',(-1.,0.,0.));
#402=DIRECTION('center_axis',(0.,1.,0.));
#403=DIRECTION('ref_axis',(1.,0.,0.));
#404=DIRECTION('center_axis',(0.,-1.,0.));
#405=DIRECTION('ref_axis',(-1.,0.,0.));
#406=DIRECTION('center_axis',(0.,-1.,0.));
#407=DIRECTION('ref_axis',(1.,0.,0.));
#408=DIRECTION('',(0.,1.,0.));
#409=DIRECTION('center_axis',(0.,-1.,0.));
#410=DIRECTION('ref_axis',(1.,0.,0.));
#411=DIRECTION('center_axis',(0.,-1.,0.));
#412=DIRECTION('ref_axis',(-1.,0.,0.));
#413=DIRECTION('',(-0.70710678118655,0.707106781186545,-8.65956056235496E-17));
#414=DIRECTION('center_axis',(0.,1.,0.));
#415=DIRECTION('ref_axis',(-1.,0.,0.));
#416=DIRECTION('center_axis',(0.,1.,0.));
#417=DIRECTION('ref_axis',(-1.,0.,0.));
#418=DIRECTION('center_axis',(0.,-1.,0.));
#419=DIRECTION('ref_axis',(1.,0.,0.));
#420=DIRECTION('',(0.,1.,0.));
#421=DIRECTION('center_axis',(0.,-1.,0.));
#422=DIRECTION('ref_axis',(1.,0.,0.));
#423=DIRECTION('center_axis',(0.,-1.,0.));
#424=DIRECTION('ref_axis',(-1.,0.,0.));
#425=DIRECTION('',(-0.70710678118655,0.707106781186545,-8.65956056235496E-17));
#426=DIRECTION('center_axis',(0.,1.,0.));
#427=DIRECTION('ref_axis',(-1.,0.,0.));
#428=DIRECTION('center_axis',(0.,1.,0.));
#429=DIRECTION('ref_axis',(-1.,0.,0.));
#430=DIRECTION('center_axis',(0.,-1.,0.));
#431=DIRECTION('ref_axis',(1.,0.,0.));
#432=DIRECTION('',(0.,1.,0.));
#433=DIRECTION('center_axis',(0.,-1.,0.));
#434=DIRECTION('ref_axis',(1.,0.,0.));
#435=DIRECTION('center_axis',(0.,1.,0.));
#436=DIRECTION('ref_axis',(1.,0.,0.));
#437=DIRECTION('',(0.,-1.,0.));
#438=DIRECTION('center_axis',(0.,1.,0.));
#439=DIRECTION('ref_axis',(1.,0.,0.));
#440=DIRECTION('center_axis',(0.,1.,0.));
#441=DIRECTION('ref_axis',(1.,0.,0.));
#442=DIRECTION('center_axis',(0.,1.,0.));
#443=DIRECTION('ref_axis',(1.,0.,0.));
#444=DIRECTION('',(0.,-1.,0.));
#445=DIRECTION('center_axis',(0.,1.,0.));
#446=DIRECTION('ref_axis',(0.,0.,1.));
#447=DIRECTION('center_axis',(0.,1.,0.));
#448=DIRECTION('ref_axis',(1.,0.,0.));
#449=DIRECTION('center_axis',(0.,1.,0.));
#450=DIRECTION('ref_axis',(1.,0.,0.));
#451=DIRECTION('',(0.,-1.,0.));
#452=DIRECTION('center_axis',(0.,-1.,0.));
#453=DIRECTION('ref_axis',(0.,0.,-1.));
#454=CARTESIAN_POINT('',(0.,0.,0.));
#455=CARTESIAN_POINT('Origin',(-11.5,10.25,0.));
#456=CARTESIAN_POINT('',(11.5,10.25,1.40834381901946E-15));
#457=CARTESIAN_POINT('Origin',(0.,10.25,0.));
#458=CARTESIAN_POINT('',(-11.1,10.25,0.));
#459=CARTESIAN_POINT('Origin',(0.,10.25,0.));
#460=CARTESIAN_POINT('Origin',(0.,9.7,0.));
#461=CARTESIAN_POINT('',(11.5,9.15,1.40834381901946E-15));
#462=CARTESIAN_POINT('',(11.5,9.7,1.40834381901946E-15));
#463=CARTESIAN_POINT('Origin',(0.,9.15,0.));
#464=CARTESIAN_POINT('Origin',(-11.1,9.15,0.));
#465=CARTESIAN_POINT('',(-11.1,9.15,0.));
#466=CARTESIAN_POINT('Origin',(0.,9.15,0.));
#467=CARTESIAN_POINT('Origin',(0.,5.75,0.));
#468=CARTESIAN_POINT('',(-11.1,2.,1.35935794705356E-15));
#469=CARTESIAN_POINT('',(-11.1,5.75,1.35935794705356E-15));
#470=CARTESIAN_POINT('Origin',(0.,2.,0.));
#471=CARTESIAN_POINT('Origin',(0.,1.,0.));
#472=CARTESIAN_POINT('',(-1.22464679914735E-15,2.,-10.));
#473=CARTESIAN_POINT('Origin',(0.,2.,0.));
#474=CARTESIAN_POINT('',(-1.22464679914735E-15,-2.77555756156289E-16,-10.));
#475=CARTESIAN_POINT('',(-1.22464679914735E-15,1.,-10.));
#476=CARTESIAN_POINT('Origin',(0.,-2.77555756156289E-16,0.));
#477=CARTESIAN_POINT('Origin',(0.,2.,10.));
#478=CARTESIAN_POINT('Origin',(16.4544826719043,7.25,-9.50000000000001));
#479=CARTESIAN_POINT('',(18.4044826719043,7.,-9.50000000000001));
#480=CARTESIAN_POINT('Origin',(16.4544826719043,7.,-9.50000000000001));
#481=CARTESIAN_POINT('',(17.9044826719043,7.5,-9.50000000000001));
#482=CARTESIAN_POINT('',(18.1544826719043,7.25,-9.50000000000001));
#483=CARTESIAN_POINT('',(15.0044826719043,7.5,-9.50000000000001));
#484=CARTESIAN_POINT('Origin',(16.4544826719043,7.5,-9.50000000000001));
#485=CARTESIAN_POINT('Origin',(16.4544826719043,7.5,-9.50000000000001));
#486=CARTESIAN_POINT('Origin',(22.,7.,0.));
#487=CARTESIAN_POINT('',(-22.,7.,2.69422295812418E-15));
#488=CARTESIAN_POINT('Origin',(0.,7.,0.));
#489=CARTESIAN_POINT('',(1.95,7.,19.));
#490=CARTESIAN_POINT('Origin',(0.,7.,19.));
#491=CARTESIAN_POINT('',(-14.1,7.,1.72675198679777E-15));
#492=CARTESIAN_POINT('Origin',(0.,7.,0.));
#493=CARTESIAN_POINT('',(-14.5044826719043,7.,-9.5));
#494=CARTESIAN_POINT('Origin',(-16.4544826719043,7.,-9.5));
#495=CARTESIAN_POINT('Origin',(16.4544826719043,70.2791434834575,-9.50000000000001));
#496=CARTESIAN_POINT('',(15.0044826719043,11.5,-9.50000000000001));
#497=CARTESIAN_POINT('',(15.0044826719043,70.2791434834575,-9.50000000000001));
#498=CARTESIAN_POINT('Origin',(16.4544826719043,11.5,-9.50000000000001));
#499=CARTESIAN_POINT('Origin',(0.,7.25,19.));
#500=CARTESIAN_POINT('',(1.45,7.5,19.));
#501=CARTESIAN_POINT('',(1.7,7.25,19.));
#502=CARTESIAN_POINT('',(-1.45,7.5,19.));
#503=CARTESIAN_POINT('Origin',(0.,7.5,19.));
#504=CARTESIAN_POINT('Origin',(0.,7.5,19.));
#505=CARTESIAN_POINT('Origin',(0.,70.2791434834575,19.));
#506=CARTESIAN_POINT('',(-1.45,11.5,19.));
#507=CARTESIAN_POINT('',(-1.45,70.2791434834575,19.));
#508=CARTESIAN_POINT('Origin',(0.,11.5,19.));
#509=CARTESIAN_POINT('Origin',(-16.4544826719043,7.25,-9.5));
#510=CARTESIAN_POINT('',(-15.0044826719043,7.5,-9.5));
#511=CARTESIAN_POINT('',(-14.7544826719043,7.25,-9.5));
#512=CARTESIAN_POINT('',(-17.9044826719043,7.5,-9.5));
#513=CARTESIAN_POINT('Origin',(-16.4544826719043,7.5,-9.5));
#514=CARTESIAN_POINT('Origin',(-16.4544826719043,7.5,-9.5));
#515=CARTESIAN_POINT('Origin',(-16.4544826719043,70.2791434834575,-9.5));
#516=CARTESIAN_POINT('',(-17.9044826719043,11.5,-9.5));
#517=CARTESIAN_POINT('',(-17.9044826719043,70.2791434834575,-9.5));
#518=CARTESIAN_POINT('Origin',(-16.4544826719043,11.5,-9.5));
#519=CARTESIAN_POINT('Origin',(0.,3.5,0.));
#520=CARTESIAN_POINT('',(-14.1,0.,1.72675198679777E-15));
#521=CARTESIAN_POINT('',(-14.1,3.5,1.72675198679777E-15));
#522=CARTESIAN_POINT('Origin',(0.,0.,0.));
#523=CARTESIAN_POINT('Origin',(0.,9.25,0.));
#524=CARTESIAN_POINT('',(-22.,11.5,2.69422295812418E-15));
#525=CARTESIAN_POINT('Origin',(0.,11.5,0.));
#526=CARTESIAN_POINT('',(-22.,9.25,2.69422295812418E-15));
#527=CARTESIAN_POINT('Origin',(11.1,11.5,0.));
#528=CARTESIAN_POINT('',(-11.1,11.5,1.35935794705356E-15));
#529=CARTESIAN_POINT('Origin',(0.,11.5,0.));
#530=CARTESIAN_POINT('Origin',(0.,5.75,0.));
#531=CARTESIAN_POINT('',(-11.1,5.75,1.35935794705356E-15));
#532=CARTESIAN_POINT('Origin',(14.1,0.,0.));
#533=UNCERTAINTY_MEASURE_WITH_UNIT(LENGTH_MEASURE(0.01),#537,
'DISTANCE_ACCURACY_VALUE',
'Maximum model space distance between geometric entities at asserted c
onnectivities');
#534=UNCERTAINTY_MEASURE_WITH_UNIT(LENGTH_MEASURE(0.01),#537,
'DISTANCE_ACCURACY_VALUE',
'Maximum model space distance between geometric entities at asserted c
onnectivities');
#535=(
GEOMETRIC_REPRESENTATION_CONTEXT(3)
GLOBAL_UNCERTAINTY_ASSIGNED_CONTEXT((#533))
GLOBAL_UNIT_ASSIGNED_CONTEXT((#537,#539,#540))
REPRESENTATION_CONTEXT('','3D')
);
#536=(
GEOMETRIC_REPRESENTATION_CONTEXT(3)
GLOBAL_UNCERTAINTY_ASSIGNED_CONTEXT((#534))
GLOBAL_UNIT_ASSIGNED_CONTEXT((#537,#539,#540))
REPRESENTATION_CONTEXT('','3D')
);
#537=(
LENGTH_UNIT()
NAMED_UNIT(*)
SI_UNIT(.MILLI.,.METRE.)
);
#538=(
LENGTH_UNIT()
NAMED_UNIT(*)
SI_UNIT(.CENTI.,.METRE.)
);
#539=(
NAMED_UNIT(*)
PLANE_ANGLE_UNIT()
SI_UNIT($,.RADIAN.)
);
#540=(
NAMED_UNIT(*)
SI_UNIT($,.STERADIAN.)
SOLID_ANGLE_UNIT()
);
#541=SHAPE_DEFINITION_REPRESENTATION(#542,#543);
#542=PRODUCT_DEFINITION_SHAPE('',$,#545);
#543=SHAPE_REPRESENTATION('',(#313),#535);
#544=PRODUCT_DEFINITION_CONTEXT('part definition',#549,'design');
#545=PRODUCT_DEFINITION('sleeve','sleeve',#546,#544);
#546=PRODUCT_DEFINITION_FORMATION('',$,#551);
#547=PRODUCT_RELATED_PRODUCT_CATEGORY('sleeve','sleeve',(#551));
#548=APPLICATION_PROTOCOL_DEFINITION('international standard',
'automotive_design',2009,#549);
#549=APPLICATION_CONTEXT(
'Core Data for Automotive Mechanical Design Process');
#550=PRODUCT_CONTEXT('part definition',#549,'mechanical');
#551=PRODUCT('sleeve','sleeve',$,(#550));
#552=PRESENTATION_STYLE_ASSIGNMENT((#553));
#553=SURFACE_STYLE_USAGE(.BOTH.,#556);
#554=SURFACE_STYLE_RENDERING_WITH_PROPERTIES($,#560,(#555));
#555=SURFACE_STYLE_TRANSPARENT(0.);
#556=SURFACE_SIDE_STYLE('',(#557,#554));
#557=SURFACE_STYLE_FILL_AREA(#558);
#558=FILL_AREA_STYLE('',(#559));
#559=FILL_AREA_STYLE_COLOUR('',#560);
#560=COLOUR_RGB('',0.32156862745098,0.411764705882353,0.168627450980392);
ENDSEC;
END-ISO-10303-21;
