ISO-10303-21;
HEADER;
/* Generated by software containing ST-Developer
 * from STEP Tools, Inc. (www.steptools.com) 
 */

FILE_DESCRIPTION(
/* description */ (''),
/* implementation_level */ '2;1');

FILE_NAME(
/* name */ 'stator_magnet_tester.stp',
/* time_stamp */ '2026-08-21T15:01:36+02:00',
/* author */ ('zzapa'),
/* organization */ (''),
/* preprocessor_version */ 'ST-DEVELOPER v20',
/* originating_system */ 'Autodesk Inventor 2025',
/* authorisation */ '');

FILE_SCHEMA (('AUTOMOTIVE_DESIGN { 1 0 10303 214 3 1 1 }'));
ENDSEC;

DATA;
#10=MECHANICAL_DESIGN_GEOMETRIC_PRESENTATION_REPRESENTATION('',(#13),#660);
#11=SHAPE_REPRESENTATION_RELATIONSHIP('SRR','None',#667,#12);
#12=ADVANCED_BREP_SHAPE_REPRESENTATION('',(#14),#659);
#13=STYLED_ITEM('',(#676),#14);
#14=MANIFOLD_SOLID_BREP('Bry\X2\0142\X0\a1',#359);
#15=PLANE('',#426);
#16=PLANE('',#427);
#17=PLANE('',#428);
#18=PLANE('',#429);
#19=PLANE('',#430);
#20=PLANE('',#431);
#21=LINE('',#574,#45);
#22=LINE('',#575,#46);
#23=LINE('',#591,#47);
#24=LINE('',#592,#48);
#25=LINE('',#601,#49);
#26=LINE('',#602,#50);
#27=LINE('',#604,#51);
#28=LINE('',#605,#52);
#29=LINE('',#614,#53);
#30=LINE('',#615,#54);
#31=LINE('',#624,#55);
#32=LINE('',#625,#56);
#33=LINE('',#627,#57);
#34=LINE('',#628,#58);
#35=LINE('',#637,#59);
#36=LINE('',#638,#60);
#37=LINE('',#640,#61);
#38=LINE('',#641,#62);
#39=LINE('',#643,#63);
#40=LINE('',#644,#64);
#41=LINE('',#646,#65);
#42=LINE('',#647,#66);
#43=LINE('',#649,#67);
#44=LINE('',#650,#68);
#45=VECTOR('',#452,10.);
#46=VECTOR('',#453,10.);
#47=VECTOR('',#472,10.);
#48=VECTOR('',#473,10.);
#49=VECTOR('',#484,10.);
#50=VECTOR('',#485,10.);
#51=VECTOR('',#488,10.);
#52=VECTOR('',#489,10.);
#53=VECTOR('',#500,10.);
#54=VECTOR('',#501,10.);
#55=VECTOR('',#512,10.);
#56=VECTOR('',#513,10.);
#57=VECTOR('',#516,10.);
#58=VECTOR('',#517,10.);
#59=VECTOR('',#528,10.);
#60=VECTOR('',#529,10.);
#61=VECTOR('',#532,10.);
#62=VECTOR('',#533,10.);
#63=VECTOR('',#536,10.);
#64=VECTOR('',#537,10.);
#65=VECTOR('',#540,10.);
#66=VECTOR('',#541,10.);
#67=VECTOR('',#544,10.);
#68=VECTOR('',#545,10.);
#69=CYLINDRICAL_SURFACE('',#390,0.4);
#70=CYLINDRICAL_SURFACE('',#399,0.4);
#71=CYLINDRICAL_SURFACE('',#404,0.4);
#72=CYLINDRICAL_SURFACE('',#405,0.4);
#73=CYLINDRICAL_SURFACE('',#410,0.4);
#74=CYLINDRICAL_SURFACE('',#415,0.4);
#75=CYLINDRICAL_SURFACE('',#416,0.4);
#76=CYLINDRICAL_SURFACE('',#421,0.4);
#77=CYLINDRICAL_SURFACE('',#422,0.4);
#78=CYLINDRICAL_SURFACE('',#423,0.4);
#79=CYLINDRICAL_SURFACE('',#424,0.4);
#80=CYLINDRICAL_SURFACE('',#425,0.4);
#81=FACE_OUTER_BOUND('',#107,.T.);
#82=FACE_OUTER_BOUND('',#108,.T.);
#83=FACE_OUTER_BOUND('',#109,.T.);
#84=FACE_OUTER_BOUND('',#110,.T.);
#85=FACE_OUTER_BOUND('',#111,.T.);
#86=FACE_OUTER_BOUND('',#112,.T.);
#87=FACE_OUTER_BOUND('',#113,.T.);
#88=FACE_OUTER_BOUND('',#114,.T.);
#89=FACE_OUTER_BOUND('',#115,.T.);
#90=FACE_OUTER_BOUND('',#116,.T.);
#91=FACE_OUTER_BOUND('',#117,.T.);
#92=FACE_OUTER_BOUND('',#118,.T.);
#93=FACE_OUTER_BOUND('',#119,.T.);
#94=FACE_OUTER_BOUND('',#120,.T.);
#95=FACE_OUTER_BOUND('',#121,.T.);
#96=FACE_OUTER_BOUND('',#122,.T.);
#97=FACE_OUTER_BOUND('',#123,.T.);
#98=FACE_OUTER_BOUND('',#124,.T.);
#99=FACE_OUTER_BOUND('',#125,.T.);
#100=FACE_OUTER_BOUND('',#126,.T.);
#101=FACE_OUTER_BOUND('',#127,.T.);
#102=FACE_OUTER_BOUND('',#128,.T.);
#103=FACE_OUTER_BOUND('',#129,.T.);
#104=FACE_OUTER_BOUND('',#130,.T.);
#105=FACE_OUTER_BOUND('',#131,.T.);
#106=FACE_OUTER_BOUND('',#132,.T.);
#107=EDGE_LOOP('',(#229,#230,#231));
#108=EDGE_LOOP('',(#232,#233,#234));
#109=EDGE_LOOP('',(#235,#236,#237,#238));
#110=EDGE_LOOP('',(#239,#240,#241));
#111=EDGE_LOOP('',(#242,#243,#244));
#112=EDGE_LOOP('',(#245,#246,#247,#248));
#113=EDGE_LOOP('',(#249,#250,#251));
#114=EDGE_LOOP('',(#252,#253,#254,#255));
#115=EDGE_LOOP('',(#256,#257,#258,#259));
#116=EDGE_LOOP('',(#260,#261,#262));
#117=EDGE_LOOP('',(#263,#264,#265,#266));
#118=EDGE_LOOP('',(#267,#268,#269));
#119=EDGE_LOOP('',(#270,#271,#272,#273));
#120=EDGE_LOOP('',(#274,#275,#276,#277));
#121=EDGE_LOOP('',(#278,#279,#280));
#122=EDGE_LOOP('',(#281,#282,#283,#284));
#123=EDGE_LOOP('',(#285,#286,#287,#288));
#124=EDGE_LOOP('',(#289,#290,#291,#292));
#125=EDGE_LOOP('',(#293,#294,#295,#296));
#126=EDGE_LOOP('',(#297,#298,#299,#300));
#127=EDGE_LOOP('',(#301,#302,#303,#304));
#128=EDGE_LOOP('',(#305,#306,#307,#308));
#129=EDGE_LOOP('',(#309,#310,#311,#312));
#130=EDGE_LOOP('',(#313,#314,#315,#316));
#131=EDGE_LOOP('',(#317,#318,#319,#320));
#132=EDGE_LOOP('',(#321,#322,#323,#324));
#133=CIRCLE('',#383,0.4);
#134=CIRCLE('',#384,0.4);
#135=CIRCLE('',#385,0.4);
#136=CIRCLE('',#387,0.4);
#137=CIRCLE('',#388,0.4);
#138=CIRCLE('',#389,0.4);
#139=CIRCLE('',#392,0.4);
#140=CIRCLE('',#393,0.4);
#141=CIRCLE('',#394,0.4);
#142=CIRCLE('',#396,0.4);
#143=CIRCLE('',#397,0.4);
#144=CIRCLE('',#398,0.4);
#145=CIRCLE('',#401,0.4);
#146=CIRCLE('',#402,0.4);
#147=CIRCLE('',#403,0.4);
#148=CIRCLE('',#407,0.400000000000001);
#149=CIRCLE('',#408,0.4);
#150=CIRCLE('',#409,0.4);
#151=CIRCLE('',#412,0.399999999999999);
#152=CIRCLE('',#413,0.4);
#153=CIRCLE('',#414,0.4);
#154=CIRCLE('',#418,0.4);
#155=CIRCLE('',#419,0.4);
#156=CIRCLE('',#420,0.4);
#157=VERTEX_POINT('',#560);
#158=VERTEX_POINT('',#561);
#159=VERTEX_POINT('',#563);
#160=VERTEX_POINT('',#567);
#161=VERTEX_POINT('',#568);
#162=VERTEX_POINT('',#570);
#163=VERTEX_POINT('',#577);
#164=VERTEX_POINT('',#578);
#165=VERTEX_POINT('',#580);
#166=VERTEX_POINT('',#584);
#167=VERTEX_POINT('',#585);
#168=VERTEX_POINT('',#587);
#169=VERTEX_POINT('',#594);
#170=VERTEX_POINT('',#595);
#171=VERTEX_POINT('',#597);
#172=VERTEX_POINT('',#607);
#173=VERTEX_POINT('',#608);
#174=VERTEX_POINT('',#610);
#175=VERTEX_POINT('',#617);
#176=VERTEX_POINT('',#618);
#177=VERTEX_POINT('',#620);
#178=VERTEX_POINT('',#630);
#179=VERTEX_POINT('',#631);
#180=VERTEX_POINT('',#633);
#181=EDGE_CURVE('',#157,#158,#133,.F.);
#182=EDGE_CURVE('',#159,#157,#134,.F.);
#183=EDGE_CURVE('',#158,#159,#135,.F.);
#184=EDGE_CURVE('',#160,#161,#136,.F.);
#185=EDGE_CURVE('',#162,#160,#137,.F.);
#186=EDGE_CURVE('',#161,#162,#138,.F.);
#187=EDGE_CURVE('',#160,#159,#21,.T.);
#188=EDGE_CURVE('',#157,#162,#22,.T.);
#189=EDGE_CURVE('',#163,#164,#139,.F.);
#190=EDGE_CURVE('',#165,#163,#140,.F.);
#191=EDGE_CURVE('',#164,#165,#141,.F.);
#192=EDGE_CURVE('',#166,#167,#142,.F.);
#193=EDGE_CURVE('',#168,#166,#143,.F.);
#194=EDGE_CURVE('',#167,#168,#144,.F.);
#195=EDGE_CURVE('',#166,#158,#23,.T.);
#196=EDGE_CURVE('',#159,#168,#24,.T.);
#197=EDGE_CURVE('',#169,#170,#145,.F.);
#198=EDGE_CURVE('',#171,#169,#146,.F.);
#199=EDGE_CURVE('',#170,#171,#147,.F.);
#200=EDGE_CURVE('',#169,#161,#25,.T.);
#201=EDGE_CURVE('',#162,#171,#26,.T.);
#202=EDGE_CURVE('',#163,#170,#27,.T.);
#203=EDGE_CURVE('',#171,#165,#28,.T.);
#204=EDGE_CURVE('',#172,#173,#148,.F.);
#205=EDGE_CURVE('',#174,#172,#149,.F.);
#206=EDGE_CURVE('',#173,#174,#150,.F.);
#207=EDGE_CURVE('',#172,#160,#29,.T.);
#208=EDGE_CURVE('',#161,#174,#30,.T.);
#209=EDGE_CURVE('',#175,#176,#151,.F.);
#210=EDGE_CURVE('',#177,#175,#152,.F.);
#211=EDGE_CURVE('',#176,#177,#153,.F.);
#212=EDGE_CURVE('',#175,#163,#31,.T.);
#213=EDGE_CURVE('',#164,#177,#32,.T.);
#214=EDGE_CURVE('',#167,#176,#33,.T.);
#215=EDGE_CURVE('',#177,#166,#34,.T.);
#216=EDGE_CURVE('',#178,#179,#154,.F.);
#217=EDGE_CURVE('',#180,#178,#155,.F.);
#218=EDGE_CURVE('',#179,#180,#156,.F.);
#219=EDGE_CURVE('',#178,#169,#35,.T.);
#220=EDGE_CURVE('',#170,#180,#36,.T.);
#221=EDGE_CURVE('',#176,#179,#37,.T.);
#222=EDGE_CURVE('',#180,#175,#38,.T.);
#223=EDGE_CURVE('',#179,#173,#39,.T.);
#224=EDGE_CURVE('',#174,#178,#40,.T.);
#225=EDGE_CURVE('',#173,#167,#41,.T.);
#226=EDGE_CURVE('',#168,#172,#42,.T.);
#227=EDGE_CURVE('',#158,#164,#43,.T.);
#228=EDGE_CURVE('',#165,#157,#44,.T.);
#229=ORIENTED_EDGE('',*,*,#181,.F.);
#230=ORIENTED_EDGE('',*,*,#182,.F.);
#231=ORIENTED_EDGE('',*,*,#183,.F.);
#232=ORIENTED_EDGE('',*,*,#184,.F.);
#233=ORIENTED_EDGE('',*,*,#185,.F.);
#234=ORIENTED_EDGE('',*,*,#186,.F.);
#235=ORIENTED_EDGE('',*,*,#185,.T.);
#236=ORIENTED_EDGE('',*,*,#187,.T.);
#237=ORIENTED_EDGE('',*,*,#182,.T.);
#238=ORIENTED_EDGE('',*,*,#188,.T.);
#239=ORIENTED_EDGE('',*,*,#189,.F.);
#240=ORIENTED_EDGE('',*,*,#190,.F.);
#241=ORIENTED_EDGE('',*,*,#191,.F.);
#242=ORIENTED_EDGE('',*,*,#192,.F.);
#243=ORIENTED_EDGE('',*,*,#193,.F.);
#244=ORIENTED_EDGE('',*,*,#194,.F.);
#245=ORIENTED_EDGE('',*,*,#193,.T.);
#246=ORIENTED_EDGE('',*,*,#195,.T.);
#247=ORIENTED_EDGE('',*,*,#183,.T.);
#248=ORIENTED_EDGE('',*,*,#196,.T.);
#249=ORIENTED_EDGE('',*,*,#197,.F.);
#250=ORIENTED_EDGE('',*,*,#198,.F.);
#251=ORIENTED_EDGE('',*,*,#199,.F.);
#252=ORIENTED_EDGE('',*,*,#198,.T.);
#253=ORIENTED_EDGE('',*,*,#200,.T.);
#254=ORIENTED_EDGE('',*,*,#186,.T.);
#255=ORIENTED_EDGE('',*,*,#201,.T.);
#256=ORIENTED_EDGE('',*,*,#190,.T.);
#257=ORIENTED_EDGE('',*,*,#202,.T.);
#258=ORIENTED_EDGE('',*,*,#199,.T.);
#259=ORIENTED_EDGE('',*,*,#203,.T.);
#260=ORIENTED_EDGE('',*,*,#204,.F.);
#261=ORIENTED_EDGE('',*,*,#205,.F.);
#262=ORIENTED_EDGE('',*,*,#206,.F.);
#263=ORIENTED_EDGE('',*,*,#205,.T.);
#264=ORIENTED_EDGE('',*,*,#207,.T.);
#265=ORIENTED_EDGE('',*,*,#184,.T.);
#266=ORIENTED_EDGE('',*,*,#208,.T.);
#267=ORIENTED_EDGE('',*,*,#209,.F.);
#268=ORIENTED_EDGE('',*,*,#210,.F.);
#269=ORIENTED_EDGE('',*,*,#211,.F.);
#270=ORIENTED_EDGE('',*,*,#210,.T.);
#271=ORIENTED_EDGE('',*,*,#212,.T.);
#272=ORIENTED_EDGE('',*,*,#189,.T.);
#273=ORIENTED_EDGE('',*,*,#213,.T.);
#274=ORIENTED_EDGE('',*,*,#192,.T.);
#275=ORIENTED_EDGE('',*,*,#214,.T.);
#276=ORIENTED_EDGE('',*,*,#211,.T.);
#277=ORIENTED_EDGE('',*,*,#215,.T.);
#278=ORIENTED_EDGE('',*,*,#216,.F.);
#279=ORIENTED_EDGE('',*,*,#217,.F.);
#280=ORIENTED_EDGE('',*,*,#218,.F.);
#281=ORIENTED_EDGE('',*,*,#217,.T.);
#282=ORIENTED_EDGE('',*,*,#219,.T.);
#283=ORIENTED_EDGE('',*,*,#197,.T.);
#284=ORIENTED_EDGE('',*,*,#220,.T.);
#285=ORIENTED_EDGE('',*,*,#209,.T.);
#286=ORIENTED_EDGE('',*,*,#221,.T.);
#287=ORIENTED_EDGE('',*,*,#218,.T.);
#288=ORIENTED_EDGE('',*,*,#222,.T.);
#289=ORIENTED_EDGE('',*,*,#216,.T.);
#290=ORIENTED_EDGE('',*,*,#223,.T.);
#291=ORIENTED_EDGE('',*,*,#206,.T.);
#292=ORIENTED_EDGE('',*,*,#224,.T.);
#293=ORIENTED_EDGE('',*,*,#204,.T.);
#294=ORIENTED_EDGE('',*,*,#225,.T.);
#295=ORIENTED_EDGE('',*,*,#194,.T.);
#296=ORIENTED_EDGE('',*,*,#226,.T.);
#297=ORIENTED_EDGE('',*,*,#181,.T.);
#298=ORIENTED_EDGE('',*,*,#227,.T.);
#299=ORIENTED_EDGE('',*,*,#191,.T.);
#300=ORIENTED_EDGE('',*,*,#228,.T.);
#301=ORIENTED_EDGE('',*,*,#187,.F.);
#302=ORIENTED_EDGE('',*,*,#207,.F.);
#303=ORIENTED_EDGE('',*,*,#226,.F.);
#304=ORIENTED_EDGE('',*,*,#196,.F.);
#305=ORIENTED_EDGE('',*,*,#188,.F.);
#306=ORIENTED_EDGE('',*,*,#228,.F.);
#307=ORIENTED_EDGE('',*,*,#203,.F.);
#308=ORIENTED_EDGE('',*,*,#201,.F.);
#309=ORIENTED_EDGE('',*,*,#200,.F.);
#310=ORIENTED_EDGE('',*,*,#219,.F.);
#311=ORIENTED_EDGE('',*,*,#224,.F.);
#312=ORIENTED_EDGE('',*,*,#208,.F.);
#313=ORIENTED_EDGE('',*,*,#202,.F.);
#314=ORIENTED_EDGE('',*,*,#212,.F.);
#315=ORIENTED_EDGE('',*,*,#222,.F.);
#316=ORIENTED_EDGE('',*,*,#220,.F.);
#317=ORIENTED_EDGE('',*,*,#213,.F.);
#318=ORIENTED_EDGE('',*,*,#227,.F.);
#319=ORIENTED_EDGE('',*,*,#195,.F.);
#320=ORIENTED_EDGE('',*,*,#215,.F.);
#321=ORIENTED_EDGE('',*,*,#214,.F.);
#322=ORIENTED_EDGE('',*,*,#225,.F.);
#323=ORIENTED_EDGE('',*,*,#223,.F.);
#324=ORIENTED_EDGE('',*,*,#221,.F.);
#325=SPHERICAL_SURFACE('',#382,0.4);
#326=SPHERICAL_SURFACE('',#386,0.4);
#327=SPHERICAL_SURFACE('',#391,0.4);
#328=SPHERICAL_SURFACE('',#395,0.4);
#329=SPHERICAL_SURFACE('',#400,0.4);
#330=SPHERICAL_SURFACE('',#406,0.4);
#331=SPHERICAL_SURFACE('',#411,0.4);
#332=SPHERICAL_SURFACE('',#417,0.4);
#333=ADVANCED_FACE('',(#81),#325,.T.);
#334=ADVANCED_FACE('',(#82),#326,.T.);
#335=ADVANCED_FACE('',(#83),#69,.T.);
#336=ADVANCED_FACE('',(#84),#327,.T.);
#337=ADVANCED_FACE('',(#85),#328,.T.);
#338=ADVANCED_FACE('',(#86),#70,.T.);
#339=ADVANCED_FACE('',(#87),#329,.T.);
#340=ADVANCED_FACE('',(#88),#71,.T.);
#341=ADVANCED_FACE('',(#89),#72,.T.);
#342=ADVANCED_FACE('',(#90),#330,.T.);
#343=ADVANCED_FACE('',(#91),#73,.T.);
#344=ADVANCED_FACE('',(#92),#331,.T.);
#345=ADVANCED_FACE('',(#93),#74,.T.);
#346=ADVANCED_FACE('',(#94),#75,.T.);
#347=ADVANCED_FACE('',(#95),#332,.T.);
#348=ADVANCED_FACE('',(#96),#76,.T.);
#349=ADVANCED_FACE('',(#97),#77,.T.);
#350=ADVANCED_FACE('',(#98),#78,.T.);
#351=ADVANCED_FACE('',(#99),#79,.T.);
#352=ADVANCED_FACE('',(#100),#80,.T.);
#353=ADVANCED_FACE('',(#101),#15,.T.);
#354=ADVANCED_FACE('',(#102),#16,.F.);
#355=ADVANCED_FACE('',(#103),#17,.T.);
#356=ADVANCED_FACE('',(#104),#18,.T.);
#357=ADVANCED_FACE('',(#105),#19,.T.);
#358=ADVANCED_FACE('',(#106),#20,.T.);
#359=CLOSED_SHELL('',(#333,#334,#335,#336,#337,#338,#339,#340,#341,#342,
#343,#344,#345,#346,#347,#348,#349,#350,#351,#352,#353,#354,#355,#356,#357,
#358));
#360=DERIVED_UNIT_ELEMENT(#363,1.);
#361=DERIVED_UNIT_ELEMENT(#662,-3.);
#362=DIMENSIONAL_EXPONENTS(0.,1.,0.,0.,0.,0.,0.);
#363=(
CONVERSION_BASED_UNIT('gram',#365)
MASS_UNIT()
NAMED_UNIT(#362)
);
#364=(
MASS_UNIT()
NAMED_UNIT(*)
SI_UNIT(.KILO.,.GRAM.)
);
#365=MASS_MEASURE_WITH_UNIT(MASS_MEASURE(0.001),#364);
#366=DERIVED_UNIT((#360,#361));
#367=MEASURE_REPRESENTATION_ITEM('density measure',
POSITIVE_RATIO_MEASURE(1.),#366);
#368=PROPERTY_DEFINITION_REPRESENTATION(#373,#370);
#369=PROPERTY_DEFINITION_REPRESENTATION(#374,#371);
#370=REPRESENTATION('material name',(#372),#659);
#371=REPRESENTATION('density',(#367),#659);
#372=DESCRIPTIVE_REPRESENTATION_ITEM('Og\X\F3lny','Og\X\F3lny');
#373=PROPERTY_DEFINITION('material property','material name',#669);
#374=PROPERTY_DEFINITION('material property','density of part',#669);
#375=DATE_TIME_ROLE('creation_date');
#376=APPLIED_DATE_AND_TIME_ASSIGNMENT(#377,#375,(#669));
#377=DATE_AND_TIME(#378,#379);
#378=CALENDAR_DATE(2026,3,8);
#379=LOCAL_TIME(0,0,0.,#380);
#380=COORDINATED_UNIVERSAL_TIME_OFFSET(0,0,.BEHIND.);
#381=AXIS2_PLACEMENT_3D('',#558,#432,#433);
#382=AXIS2_PLACEMENT_3D('',#559,#434,#435);
#383=AXIS2_PLACEMENT_3D('',#562,#436,#437);
#384=AXIS2_PLACEMENT_3D('',#564,#438,#439);
#385=AXIS2_PLACEMENT_3D('',#565,#440,#441);
#386=AXIS2_PLACEMENT_3D('',#566,#442,#443);
#387=AXIS2_PLACEMENT_3D('',#569,#444,#445);
#388=AXIS2_PLACEMENT_3D('',#571,#446,#447);
#389=AXIS2_PLACEMENT_3D('',#572,#448,#449);
#390=AXIS2_PLACEMENT_3D('',#573,#450,#451);
#391=AXIS2_PLACEMENT_3D('',#576,#454,#455);
#392=AXIS2_PLACEMENT_3D('',#579,#456,#457);
#393=AXIS2_PLACEMENT_3D('',#581,#458,#459);
#394=AXIS2_PLACEMENT_3D('',#582,#460,#461);
#395=AXIS2_PLACEMENT_3D('',#583,#462,#463);
#396=AXIS2_PLACEMENT_3D('',#586,#464,#465);
#397=AXIS2_PLACEMENT_3D('',#588,#466,#467);
#398=AXIS2_PLACEMENT_3D('',#589,#468,#469);
#399=AXIS2_PLACEMENT_3D('',#590,#470,#471);
#400=AXIS2_PLACEMENT_3D('',#593,#474,#475);
#401=AXIS2_PLACEMENT_3D('',#596,#476,#477);
#402=AXIS2_PLACEMENT_3D('',#598,#478,#479);
#403=AXIS2_PLACEMENT_3D('',#599,#480,#481);
#404=AXIS2_PLACEMENT_3D('',#600,#482,#483);
#405=AXIS2_PLACEMENT_3D('',#603,#486,#487);
#406=AXIS2_PLACEMENT_3D('',#606,#490,#491);
#407=AXIS2_PLACEMENT_3D('',#609,#492,#493);
#408=AXIS2_PLACEMENT_3D('',#611,#494,#495);
#409=AXIS2_PLACEMENT_3D('',#612,#496,#497);
#410=AXIS2_PLACEMENT_3D('',#613,#498,#499);
#411=AXIS2_PLACEMENT_3D('',#616,#502,#503);
#412=AXIS2_PLACEMENT_3D('',#619,#504,#505);
#413=AXIS2_PLACEMENT_3D('',#621,#506,#507);
#414=AXIS2_PLACEMENT_3D('',#622,#508,#509);
#415=AXIS2_PLACEMENT_3D('',#623,#510,#511);
#416=AXIS2_PLACEMENT_3D('',#626,#514,#515);
#417=AXIS2_PLACEMENT_3D('',#629,#518,#519);
#418=AXIS2_PLACEMENT_3D('',#632,#520,#521);
#419=AXIS2_PLACEMENT_3D('',#634,#522,#523);
#420=AXIS2_PLACEMENT_3D('',#635,#524,#525);
#421=AXIS2_PLACEMENT_3D('',#636,#526,#527);
#422=AXIS2_PLACEMENT_3D('',#639,#530,#531);
#423=AXIS2_PLACEMENT_3D('',#642,#534,#535);
#424=AXIS2_PLACEMENT_3D('',#645,#538,#539);
#425=AXIS2_PLACEMENT_3D('',#648,#542,#543);
#426=AXIS2_PLACEMENT_3D('',#651,#546,#547);
#427=AXIS2_PLACEMENT_3D('',#652,#548,#549);
#428=AXIS2_PLACEMENT_3D('',#653,#550,#551);
#429=AXIS2_PLACEMENT_3D('',#654,#552,#553);
#430=AXIS2_PLACEMENT_3D('',#655,#554,#555);
#431=AXIS2_PLACEMENT_3D('',#656,#556,#557);
#432=DIRECTION('axis',(0.,0.,1.));
#433=DIRECTION('refdir',(1.,0.,0.));
#434=DIRECTION('center_axis',(-0.408248290463862,-0.816496580927726,0.408248290463864));
#435=DIRECTION('ref_axis',(0.577350269189625,-0.577350269189625,-0.577350269189627));
#436=DIRECTION('center_axis',(-2.77555756156289E-15,0.,-1.));
#437=DIRECTION('ref_axis',(0.,-1.,0.));
#438=DIRECTION('center_axis',(1.,0.,0.));
#439=DIRECTION('ref_axis',(0.,0.,-1.));
#440=DIRECTION('center_axis',(0.,-1.,0.));
#441=DIRECTION('ref_axis',(1.,0.,0.));
#442=DIRECTION('center_axis',(0.408248290463862,-0.816496580927726,0.408248290463864));
#443=DIRECTION('ref_axis',(-0.577350269189626,-0.577350269189625,-0.577350269189627));
#444=DIRECTION('center_axis',(0.,-1.,0.));
#445=DIRECTION('ref_axis',(0.,0.,-1.));
#446=DIRECTION('center_axis',(-1.,0.,0.));
#447=DIRECTION('ref_axis',(0.,-1.,0.));
#448=DIRECTION('center_axis',(0.,0.,-1.));
#449=DIRECTION('ref_axis',(-1.,0.,0.));
#450=DIRECTION('center_axis',(-1.,0.,3.1720657846433E-16));
#451=DIRECTION('ref_axis',(0.,-0.707106781186546,-0.707106781186549));
#452=DIRECTION('',(1.,0.,-3.1720657846433E-16));
#453=DIRECTION('',(-1.,0.,3.1720657846433E-16));
#454=DIRECTION('center_axis',(0.408248290463862,-0.408248290463862,-0.816496580927727));
#455=DIRECTION('ref_axis',(0.577350269189627,-0.577350269189626,0.577350269189625));
#456=DIRECTION('center_axis',(0.,-1.,0.));
#457=DIRECTION('ref_axis',(0.,0.,1.));
#458=DIRECTION('center_axis',(1.,0.,0.));
#459=DIRECTION('ref_axis',(0.,-1.,0.));
#460=DIRECTION('center_axis',(0.,0.,1.));
#461=DIRECTION('ref_axis',(1.,0.,0.));
#462=DIRECTION('center_axis',(0.408248290463863,-0.816496580927726,-0.408248290463863));
#463=DIRECTION('ref_axis',(0.577350269189625,0.577350269189625,-0.577350269189627));
#464=DIRECTION('center_axis',(0.,0.,-1.));
#465=DIRECTION('ref_axis',(1.,0.,0.));
#466=DIRECTION('center_axis',(0.,1.,0.));
#467=DIRECTION('ref_axis',(0.,0.,-1.));
#468=DIRECTION('center_axis',(1.,0.,0.));
#469=DIRECTION('ref_axis',(0.,1.,0.));
#470=DIRECTION('center_axis',(0.,1.,0.));
#471=DIRECTION('ref_axis',(0.707106781186548,0.,-0.707106781186548));
#472=DIRECTION('',(0.,-1.,0.));
#473=DIRECTION('',(0.,1.,0.));
#474=DIRECTION('center_axis',(0.408248290463863,-0.816496580927727,-0.408248290463862));
#475=DIRECTION('ref_axis',(-0.577350269189626,-0.577350269189625,0.577350269189627));
#476=DIRECTION('center_axis',(0.,-1.,0.));
#477=DIRECTION('ref_axis',(-1.,0.,0.));
#478=DIRECTION('center_axis',(0.,0.,1.));
#479=DIRECTION('ref_axis',(0.,-1.,0.));
#480=DIRECTION('center_axis',(-1.,0.,0.));
#481=DIRECTION('ref_axis',(0.,0.,1.));
#482=DIRECTION('center_axis',(0.,0.,1.));
#483=DIRECTION('ref_axis',(-0.707106781186548,-0.707106781186547,0.));
#484=DIRECTION('',(0.,0.,-1.));
#485=DIRECTION('',(0.,0.,1.));
#486=DIRECTION('center_axis',(1.,0.,3.1720657846433E-16));
#487=DIRECTION('ref_axis',(0.,-0.707106781186548,0.707106781186547));
#488=DIRECTION('',(-1.,0.,-3.1720657846433E-16));
#489=DIRECTION('',(1.,0.,3.1720657846433E-16));
#490=DIRECTION('center_axis',(-0.408248290463863,-0.816496580927726,-0.408248290463863));
#491=DIRECTION('ref_axis',(-0.577350269189625,0.577350269189625,-0.577350269189627));
#492=DIRECTION('center_axis',(-1.,0.,0.));
#493=DIRECTION('ref_axis',(0.,0.,-1.));
#494=DIRECTION('center_axis',(0.,1.,0.));
#495=DIRECTION('ref_axis',(-1.,0.,0.));
#496=DIRECTION('center_axis',(0.,0.,-1.));
#497=DIRECTION('ref_axis',(0.,1.,0.));
#498=DIRECTION('center_axis',(0.,1.,0.));
#499=DIRECTION('ref_axis',(-0.707106781186548,0.,-0.707106781186548));
#500=DIRECTION('',(0.,-1.,0.));
#501=DIRECTION('',(0.,1.,0.));
#502=DIRECTION('center_axis',(0.408248290463863,-0.816496580927726,0.408248290463863));
#503=DIRECTION('ref_axis',(0.577350269189625,0.577350269189625,0.577350269189627));
#504=DIRECTION('center_axis',(1.,0.,0.));
#505=DIRECTION('ref_axis',(0.,0.,1.));
#506=DIRECTION('center_axis',(0.,1.,0.));
#507=DIRECTION('ref_axis',(1.,0.,0.));
#508=DIRECTION('center_axis',(0.,0.,1.));
#509=DIRECTION('ref_axis',(0.,1.,0.));
#510=DIRECTION('center_axis',(0.,1.,0.));
#511=DIRECTION('ref_axis',(0.707106781186548,0.,0.707106781186548));
#512=DIRECTION('',(0.,-1.,0.));
#513=DIRECTION('',(0.,1.,0.));
#514=DIRECTION('center_axis',(0.,0.,-1.));
#515=DIRECTION('ref_axis',(0.707106781186548,0.707106781186548,0.));
#516=DIRECTION('',(0.,0.,1.));
#517=DIRECTION('',(0.,0.,-1.));
#518=DIRECTION('center_axis',(-0.816496580927726,-0.408248290463863,-0.408248290463863));
#519=DIRECTION('ref_axis',(-0.577350269189627,0.577350269189627,0.577350269189624));
#520=DIRECTION('center_axis',(0.,0.,1.));
#521=DIRECTION('ref_axis',(-1.,0.,0.));
#522=DIRECTION('center_axis',(0.,1.,0.));
#523=DIRECTION('ref_axis',(0.,0.,1.));
#524=DIRECTION('center_axis',(-1.,0.,0.));
#525=DIRECTION('ref_axis',(0.,1.,0.));
#526=DIRECTION('center_axis',(0.,1.,0.));
#527=DIRECTION('ref_axis',(-0.707106781186548,0.,0.707106781186548));
#528=DIRECTION('',(0.,-1.,0.));
#529=DIRECTION('',(0.,1.,0.));
#530=DIRECTION('center_axis',(1.,0.,3.1720657846433E-16));
#531=DIRECTION('ref_axis',(0.,0.707106781186548,0.707106781186547));
#532=DIRECTION('',(-1.,0.,-3.1720657846433E-16));
#533=DIRECTION('',(1.,0.,3.1720657846433E-16));
#534=DIRECTION('center_axis',(0.,0.,1.));
#535=DIRECTION('ref_axis',(-0.707106781186548,0.707106781186548,0.));
#536=DIRECTION('',(0.,0.,-1.));
#537=DIRECTION('',(0.,0.,1.));
#538=DIRECTION('center_axis',(-1.,0.,3.1720657846433E-16));
#539=DIRECTION('ref_axis',(0.,0.707106781186546,-0.707106781186549));
#540=DIRECTION('',(1.,0.,-3.1720657846433E-16));
#541=DIRECTION('',(-1.,0.,3.1720657846433E-16));
#542=DIRECTION('center_axis',(0.,0.,-1.));
#543=DIRECTION('ref_axis',(0.707106781186548,-0.707106781186547,0.));
#544=DIRECTION('',(0.,0.,1.));
#545=DIRECTION('',(0.,0.,-1.));
#546=DIRECTION('center_axis',(-3.1720657846433E-16,0.,-1.));
#547=DIRECTION('ref_axis',(-1.,0.,3.1720657846433E-16));
#548=DIRECTION('center_axis',(0.,1.,0.));
#549=DIRECTION('ref_axis',(0.,0.,1.));
#550=DIRECTION('center_axis',(-1.,0.,0.));
#551=DIRECTION('ref_axis',(0.,0.,1.));
#552=DIRECTION('center_axis',(-3.1720657846433E-16,0.,1.));
#553=DIRECTION('ref_axis',(1.,0.,3.1720657846433E-16));
#554=DIRECTION('center_axis',(1.,0.,0.));
#555=DIRECTION('ref_axis',(0.,0.,-1.));
#556=DIRECTION('center_axis',(0.,1.,0.));
#557=DIRECTION('ref_axis',(0.,0.,1.));
#558=CARTESIAN_POINT('',(0.,0.,0.));
#559=CARTESIAN_POINT('Origin',(3.1,0.4,-4.6));
#560=CARTESIAN_POINT('',(3.1,0.,-4.6));
#561=CARTESIAN_POINT('',(3.5,0.4,-4.6));
#562=CARTESIAN_POINT('Origin',(3.1,0.4,-4.6));
#563=CARTESIAN_POINT('',(3.1,0.4,-5.));
#564=CARTESIAN_POINT('Origin',(3.1,0.4,-4.6));
#565=CARTESIAN_POINT('Origin',(3.1,0.4,-4.6));
#566=CARTESIAN_POINT('Origin',(-3.1,0.4,-4.6));
#567=CARTESIAN_POINT('',(-3.1,0.4,-5.));
#568=CARTESIAN_POINT('',(-3.5,0.4,-4.6));
#569=CARTESIAN_POINT('Origin',(-3.1,0.4,-4.6));
#570=CARTESIAN_POINT('',(-3.1,0.,-4.6));
#571=CARTESIAN_POINT('Origin',(-3.1,0.4,-4.6));
#572=CARTESIAN_POINT('Origin',(-3.1,0.4,-4.6));
#573=CARTESIAN_POINT('Origin',(1.75,0.4,-4.6));
#574=CARTESIAN_POINT('',(1.75,0.4,-5.));
#575=CARTESIAN_POINT('',(1.75,0.,-4.6));
#576=CARTESIAN_POINT('Origin',(3.1,0.4,4.6));
#577=CARTESIAN_POINT('',(3.1,0.4,5.));
#578=CARTESIAN_POINT('',(3.5,0.4,4.6));
#579=CARTESIAN_POINT('Origin',(3.1,0.4,4.6));
#580=CARTESIAN_POINT('',(3.1,0.,4.6));
#581=CARTESIAN_POINT('Origin',(3.1,0.4,4.6));
#582=CARTESIAN_POINT('Origin',(3.1,0.4,4.6));
#583=CARTESIAN_POINT('Origin',(3.1,2.6,-4.6));
#584=CARTESIAN_POINT('',(3.5,2.6,-4.6));
#585=CARTESIAN_POINT('',(3.1,3.,-4.6));
#586=CARTESIAN_POINT('Origin',(3.1,2.6,-4.6));
#587=CARTESIAN_POINT('',(3.1,2.6,-5.));
#588=CARTESIAN_POINT('Origin',(3.1,2.6,-4.6));
#589=CARTESIAN_POINT('Origin',(3.1,2.6,-4.6));
#590=CARTESIAN_POINT('Origin',(3.1,0.,-4.6));
#591=CARTESIAN_POINT('',(3.5,0.,-4.6));
#592=CARTESIAN_POINT('',(3.1,0.,-5.));
#593=CARTESIAN_POINT('Origin',(-3.1,0.4,4.6));
#594=CARTESIAN_POINT('',(-3.5,0.4,4.6));
#595=CARTESIAN_POINT('',(-3.1,0.4,5.));
#596=CARTESIAN_POINT('Origin',(-3.1,0.4,4.6));
#597=CARTESIAN_POINT('',(-3.1,0.,4.6));
#598=CARTESIAN_POINT('Origin',(-3.1,0.4,4.6));
#599=CARTESIAN_POINT('Origin',(-3.1,0.4,4.6));
#600=CARTESIAN_POINT('Origin',(-3.1,0.4,-2.5));
#601=CARTESIAN_POINT('',(-3.5,0.4,-2.5));
#602=CARTESIAN_POINT('',(-3.1,0.,-2.5));
#603=CARTESIAN_POINT('Origin',(-1.75,0.4,4.6));
#604=CARTESIAN_POINT('',(-1.75,0.4,5.));
#605=CARTESIAN_POINT('',(-1.75,0.,4.6));
#606=CARTESIAN_POINT('Origin',(-3.1,2.6,-4.6));
#607=CARTESIAN_POINT('',(-3.1,2.6,-5.));
#608=CARTESIAN_POINT('',(-3.1,3.,-4.6));
#609=CARTESIAN_POINT('Origin',(-3.1,2.6,-4.6));
#610=CARTESIAN_POINT('',(-3.5,2.6,-4.6));
#611=CARTESIAN_POINT('Origin',(-3.1,2.6,-4.6));
#612=CARTESIAN_POINT('Origin',(-3.1,2.6,-4.6));
#613=CARTESIAN_POINT('Origin',(-3.1,0.,-4.6));
#614=CARTESIAN_POINT('',(-3.1,0.,-5.));
#615=CARTESIAN_POINT('',(-3.5,0.,-4.6));
#616=CARTESIAN_POINT('Origin',(3.1,2.6,4.6));
#617=CARTESIAN_POINT('',(3.1,2.6,5.));
#618=CARTESIAN_POINT('',(3.1,3.,4.6));
#619=CARTESIAN_POINT('Origin',(3.1,2.6,4.6));
#620=CARTESIAN_POINT('',(3.5,2.6,4.6));
#621=CARTESIAN_POINT('Origin',(3.1,2.6,4.6));
#622=CARTESIAN_POINT('Origin',(3.1,2.6,4.6));
#623=CARTESIAN_POINT('Origin',(3.1,0.,4.6));
#624=CARTESIAN_POINT('',(3.1,0.,5.));
#625=CARTESIAN_POINT('',(3.5,0.,4.6));
#626=CARTESIAN_POINT('Origin',(3.1,2.6,2.5));
#627=CARTESIAN_POINT('',(3.1,3.,2.5));
#628=CARTESIAN_POINT('',(3.5,2.6,2.5));
#629=CARTESIAN_POINT('Origin',(-3.1,2.6,4.6));
#630=CARTESIAN_POINT('',(-3.5,2.6,4.6));
#631=CARTESIAN_POINT('',(-3.1,3.,4.6));
#632=CARTESIAN_POINT('Origin',(-3.1,2.6,4.6));
#633=CARTESIAN_POINT('',(-3.1,2.6,5.));
#634=CARTESIAN_POINT('Origin',(-3.1,2.6,4.6));
#635=CARTESIAN_POINT('Origin',(-3.1,2.6,4.6));
#636=CARTESIAN_POINT('Origin',(-3.1,0.,4.6));
#637=CARTESIAN_POINT('',(-3.5,0.,4.6));
#638=CARTESIAN_POINT('',(-3.1,0.,5.));
#639=CARTESIAN_POINT('Origin',(-1.75,2.6,4.6));
#640=CARTESIAN_POINT('',(-1.75,3.,4.6));
#641=CARTESIAN_POINT('',(-1.75,2.6,5.));
#642=CARTESIAN_POINT('Origin',(-3.1,2.6,-2.5));
#643=CARTESIAN_POINT('',(-3.1,3.,-2.5));
#644=CARTESIAN_POINT('',(-3.5,2.6,-2.5));
#645=CARTESIAN_POINT('Origin',(1.75,2.6,-4.6));
#646=CARTESIAN_POINT('',(1.75,3.,-4.6));
#647=CARTESIAN_POINT('',(1.75,2.6,-5.));
#648=CARTESIAN_POINT('Origin',(3.1,0.4,2.5));
#649=CARTESIAN_POINT('',(3.5,0.4,2.5));
#650=CARTESIAN_POINT('',(3.1,0.,2.5));
#651=CARTESIAN_POINT('Origin',(3.5,0.,-5.));
#652=CARTESIAN_POINT('Origin',(5.55111512312578E-16,0.,0.));
#653=CARTESIAN_POINT('Origin',(-3.5,0.,-5.));
#654=CARTESIAN_POINT('Origin',(-3.5,0.,5.));
#655=CARTESIAN_POINT('Origin',(3.5,0.,5.));
#656=CARTESIAN_POINT('Origin',(5.55111512312578E-16,3.,0.));
#657=UNCERTAINTY_MEASURE_WITH_UNIT(LENGTH_MEASURE(0.01),#661,
'DISTANCE_ACCURACY_VALUE',
'Maximum model space distance between geometric entities at asserted c
onnectivities');
#658=UNCERTAINTY_MEASURE_WITH_UNIT(LENGTH_MEASURE(0.01),#661,
'DISTANCE_ACCURACY_VALUE',
'Maximum model space distance between geometric entities at asserted c
onnectivities');
#659=(
GEOMETRIC_REPRESENTATION_CONTEXT(3)
GLOBAL_UNCERTAINTY_ASSIGNED_CONTEXT((#657))
GLOBAL_UNIT_ASSIGNED_CONTEXT((#661,#663,#664))
REPRESENTATION_CONTEXT('','3D')
);
#660=(
GEOMETRIC_REPRESENTATION_CONTEXT(3)
GLOBAL_UNCERTAINTY_ASSIGNED_CONTEXT((#658))
GLOBAL_UNIT_ASSIGNED_CONTEXT((#661,#663,#664))
REPRESENTATION_CONTEXT('','3D')
);
#661=(
LENGTH_UNIT()
NAMED_UNIT(*)
SI_UNIT(.MILLI.,.METRE.)
);
#662=(
LENGTH_UNIT()
NAMED_UNIT(*)
SI_UNIT(.CENTI.,.METRE.)
);
#663=(
NAMED_UNIT(*)
PLANE_ANGLE_UNIT()
SI_UNIT($,.RADIAN.)
);
#664=(
NAMED_UNIT(*)
SI_UNIT($,.STERADIAN.)
SOLID_ANGLE_UNIT()
);
#665=SHAPE_DEFINITION_REPRESENTATION(#666,#667);
#666=PRODUCT_DEFINITION_SHAPE('',$,#669);
#667=SHAPE_REPRESENTATION('',(#381),#659);
#668=PRODUCT_DEFINITION_CONTEXT('part definition',#673,'design');
#669=PRODUCT_DEFINITION('stator_magnet','stator_magnet',#670,#668);
#670=PRODUCT_DEFINITION_FORMATION('',$,#675);
#671=PRODUCT_RELATED_PRODUCT_CATEGORY('stator_magnet','stator_magnet',(#675));
#672=APPLICATION_PROTOCOL_DEFINITION('international standard',
'automotive_design',2009,#673);
#673=APPLICATION_CONTEXT(
'Core Data for Automotive Mechanical Design Process');
#674=PRODUCT_CONTEXT('part definition',#673,'mechanical');
#675=PRODUCT('stator_magnet','stator_magnet',$,(#674));
#676=PRESENTATION_STYLE_ASSIGNMENT((#677));
#677=SURFACE_STYLE_USAGE(.BOTH.,#680);
#678=SURFACE_STYLE_RENDERING_WITH_PROPERTIES($,#684,(#679));
#679=SURFACE_STYLE_TRANSPARENT(0.);
#680=SURFACE_SIDE_STYLE('',(#681,#678));
#681=SURFACE_STYLE_FILL_AREA(#682);
#682=FILL_AREA_STYLE('',(#683));
#683=FILL_AREA_STYLE_COLOUR('',#684);
#684=COLOUR_RGB('',0.745098039215686,0.737254901960784,0.729411764705882);
ENDSEC;
END-ISO-10303-21;
